<?xml version="1.0" encoding="utf-8"?>
<!-- Generator: Adobe Illustrator 17.1.0, SVG Export Plug-In . SVG Version: 6.00 Build 0)  -->
<!DOCTYPE svg PUBLIC "-//W3C//DTD SVG 1.1//EN" "http://www.w3.org/Graphics/SVG/1.1/DTD/svg11.dtd">
<svg version="1.1" id="Gift" xmlns="http://www.w3.org/2000/svg" xmlns:xlink="http://www.w3.org/1999/xlink" x="0px" y="0px"
	 viewBox="0 0 512 512" enable-background="new 0 0 512 512" xml:space="preserve">
<path fill="#33CC99" d="M75,473.6h167.3V287.5H75V473.6z M452,157.7h-98.1c7-3.6,13.2-7.4,18.7-11.3C393.8,131.2,405,112,405,92.9
	c0-15.7-7.4-29.5-18.2-38.8c-10.8-9.4-25-15-40.3-15c-16.3,0-31.5,5.6-44.4,14.3c-19.5,13.1-34.9,32.8-45.8,54.4
	c-0.5,1.1-1,2.1-1.5,3.2c-4-8.3-8.7-16.4-13.9-24c-9.2-13.2-20.4-24.9-33.4-33.6c-13-8.7-28.1-14.3-44.4-14.3
	c-16.2,0.1-31.1,6.9-42.2,17.3c-11.1,10.5-18.9,25.2-18.9,41.9c0,9.8,2.8,20,8.7,29.3c7.4,11.7,19,21.8,35.2,30.1H57.6
	c-11.8,0-21.3,9.5-21.3,21.3v78.9h205.9V157.7h25v100.1h205.9v-78.9C473.3,167.2,463.8,157.7,452,157.7z M152.9,126.4
	c-8.3-5.2-13.4-10.5-16.3-15.2c-2.9-4.7-3.9-8.8-4-12.9c0-6.8,3.3-13.9,9.3-19.5c5.8-5.6,13.8-8.9,20.9-8.9h0.2
	c9.1,0,18.3,3.1,27.4,9.1c13.6,9,26.4,24.8,35.4,42.6c4.6,9,8.1,18.6,10.6,27.9C195,145.2,168.3,136.1,152.9,126.4z M293.8,104.6
	C301.3,94,310,85,319.1,79c9.1-6,18.2-9.1,27.4-9.1c0,0,0.1,0,0.1,0c7.7,0,14.9,2.9,20,7.4c5.1,4.5,7.7,9.9,7.7,15.7
	c0,6.8-3.6,16.8-19.6,28.5c-15.2,11-41.5,22.4-81.9,30.3C276.5,135.6,283.9,118.6,293.8,104.6z M267.3,473.6h167.3V287.5H267.3
	V473.6z"/>
</svg>
