<?xml version="1.0" standalone="no"?> <!DOCTYPE svg PUBLIC "-//W3C//DTD SVG 1.0//EN" "http://www.w3.org/TR/2001/REC-SVG-20010904/DTD/svg10.dtd" > <svg xmlns="http://www.w3.org/2000/svg" width="100%" height="100%">
<defs >
<font id="nimbussannovtmed1361512896" horiz-adv-x="866" ><font-face
    font-family="NimbusSanNovT-Medi"
    units-per-em="2048"
    panose-1="0 0 0 0 0 0 0 0 0 0"
    ascent="1998"
    descent="-460"
    alphabetic="0" />
<missing-glyph horiz-adv-x="512" d="M51 0V1365H461V0H51ZM410 51V1314H102V51H410Z" />
<glyph unicode=" " glyph-name="space" horiz-adv-x="512" />
<glyph unicode="!" glyph-name="exclam" horiz-adv-x="583" d="M403 1365V947L356 340H268L223 947V1365H403ZM413 193V0H212V193H413Z" />
<glyph unicode="&quot;" glyph-name="quotedbl" horiz-adv-x="669" d="M548 816H470L443 1365H576L548 816ZM199 816H120L93 1365H227L199 816Z" />
<glyph unicode="#" glyph-name="numbersign" horiz-adv-x="1092" d="M733 460L678 72H571L625 460H397L343 72H235L290 460H48L63 565H304L335 781H93L108 886H350L400 1242H507L457 886H685L735 1242H843L793 886H1044L1029 781H778L747 565H999L984 460H733ZM670
781H442L412 565H640L670 781Z" />
<glyph unicode="$" glyph-name="dollar" horiz-adv-x="1092" d="M70 416H229Q229 132 485 118V634Q343 658 244 721Q95 815 95 1000Q95 1135 178 1233Q281 1355 485 1365V1532H587V1365Q760 1355 856 1261Q929 1190 948 1078Q954 1045 953 1005H796Q782 1226 587
1234V766Q670 745 706 734Q990 648 990 372Q990 158 817 48Q733 -5 587 -15V-220H485V-15Q274 -1 173 111Q66 230 70 416ZM587 118Q685 118 755 178Q833 245 833 356Q833 496 732 560Q676 595 587 612V118ZM485 1235Q396 1232 344 1196Q252 1133 252 1014Q252 901
342 839Q389 807 485 791V1235Z" />
<glyph unicode="%" glyph-name="percent" horiz-adv-x="1696" d="M1296 1401L531 -66H400L1169 1401H1296ZM1320 740Q1402 740 1467 705T1568 605Q1617 518 1617 375Q1617 161 1528 63Q1447 -27 1306 -27Q1147 -27 1069 78Q999 171 999 342Q999 531 1073 630Q1157
740 1320 740ZM1308 631Q1218 631 1176 547Q1145 484 1145 352Q1145 81 1309 81Q1472 81 1472 358Q1472 631 1308 631ZM398 1362Q545 1362 626 1260Q696 1171 696 996Q696 800 614 694Q537 595 387 595Q79 595 79 982Q79 1172 169 1271Q251 1362 398 1362ZM386
1251Q224 1251 224 972Q224 704 387 704Q485 704 525 802Q554 874 554 990Q554 1122 511 1190Q473 1251 386 1251Z" />
<glyph unicode="&amp;" glyph-name="ampersand" horiz-adv-x="1280" d="M1081 647Q1079 575 1050 464Q1020 358 987 308L1253 0H1041L896 172Q871 129 805 74Q684 -29 498 -29Q301 -29 182 93Q82 195 82 356Q82 539 236 661Q328 734 401 767Q341 840 305 903Q253
994 253 1084Q253 1198 324 1275Q414 1373 571 1373Q706 1373 791 1298Q883 1217 883 1089Q883 873 633 735L880 433Q921 538 925 647H1081ZM546 840Q725 946 725 1075Q725 1143 680 1192Q638 1239 568 1239Q501 1239 457 1198Q409 1154 409 1090Q409 1024 469
939Q485 917 546 840ZM490 662L479 656Q387 603 337 554Q251 471 251 362Q251 266 324 188Q398 110 513 110Q642 110 741 208Q767 233 804 283L490 662Z" />
<glyph unicode="&apos;" glyph-name="quotesingle" horiz-adv-x="319" d="M199 816H120L93 1365H227L199 816Z" />
<glyph unicode="(" glyph-name="parenleft" horiz-adv-x="600" d="M505 1365Q251 973 251 484Q251 17 505 -385H380L371 -370Q254 -183 215 -99Q82 189 82 480Q82 765 190 1026Q270 1219 380 1365H505Z" />
<glyph unicode=")" glyph-name="parenright" horiz-adv-x="601" d="M96 -385Q206 -215 270 -14Q350 236 350 497Q350 963 96 1365H221L230 1350Q347 1163 386 1080Q519 792 519 500Q519 215 411 -46Q330 -240 221 -385H96Z" />
<glyph unicode="*" glyph-name="asterisk" horiz-adv-x="1092" d="M837 1131L628 1058L755 885L676 827L543 1009L417 827L333 885L457 1058L254 1131L287 1225L492 1147V1365H596V1147L799 1225L837 1131Z" />
<glyph unicode="+" glyph-name="plus" horiz-adv-x="1092" d="M102 735H482V1113H612V735H989V605H612V225H482V605H102V735Z" />
<glyph unicode="," glyph-name="comma" horiz-adv-x="511" d="M364 205V83Q364 -40 345 -101Q298 -248 146 -285V-188Q253 -157 257 0H146V205H364Z" />
<glyph unicode="-" glyph-name="hyphen" horiz-adv-x="464" d="M464 591V427H0V591H464Z" />
<glyph unicode="." glyph-name="period" horiz-adv-x="511" d="M367 213V0H143V213H367Z" />
<glyph unicode="/" glyph-name="slash" horiz-adv-x="827" d="M755 1365L57 -385H-81L622 1365H755Z" />
<glyph unicode="0" glyph-name="zero" horiz-adv-x="1092" d="M551 1365Q735 1365 846 1253Q949 1150 979 966Q1000 841 1000 648Q1000 368 935 216Q831 -27 552 -27Q259 -27 156 215Q93 364 93 650Q93 843 113 970Q141 1148 244 1253Q355 1365 551 1365ZM542
1223Q356 1223 301 1037Q264 912 264 654Q264 426 302 303Q331 210 400 160Q464 115 550 115Q670 115 739 204Q799 283 817 433Q829 531 829 659Q829 910 790 1035Q731 1223 542 1223Z" />
<glyph unicode="1" glyph-name="one" horiz-adv-x="1092" d="M735 1365V0H558V990H457H361H257H213V1113Q398 1111 504 1186Q572 1236 608 1365H735Z" />
<glyph unicode="2" glyph-name="two" horiz-adv-x="1092" d="M992 147V0H104Q110 195 209 328Q255 393 341 461Q391 499 509 573Q701 693 754 755Q832 846 832 962Q832 1076 758 1151Q688 1223 571 1223Q474 1223 407 1164Q313 1081 305 878H142Q141 901 141 912Q141
1121 269 1249Q385 1365 579 1365Q760 1365 874 1269Q934 1219 967 1140Q1003 1058 1003 965Q1003 790 882 662Q802 577 596 453Q436 358 373 294Q309 225 293 146Q314 146 362 147H992Z" />
<glyph unicode="3" glyph-name="three" horiz-adv-x="1092" d="M113 924Q117 1069 177 1178Q282 1365 544 1365Q717 1365 831 1270Q944 1177 944 1011Q944 878 856 793Q812 751 757 727Q832 708 890 661Q1004 570 1004 403Q1004 212 871 87Q748 -27 535 -27Q290
-27 167 134Q82 245 82 396Q82 406 83 426H244Q248 322 288 250Q363 115 539 115Q676 115 759 200Q833 275 833 386Q833 508 749 579Q702 619 644 635Q600 647 526 647Q481 647 443 641V779Q475 776 499 776Q623 776 694 831Q774 894 774 1002Q774 1104 700 1169Q638
1223 536 1223Q389 1223 320 1111Q275 1038 272 924H113Z" />
<glyph unicode="4" glyph-name="four" horiz-adv-x="1092" d="M1005 469V332H822V0H668V332H72V484L690 1365H822V469H1005ZM668 469V856Q668 1011 671 1138Q546 942 518 901L341 652Q308 606 206 469H283H364H668Z" />
<glyph unicode="5" glyph-name="five" horiz-adv-x="1092" d="M923 1339V1192H373L324 941Q308 859 291 787Q388 895 565 895Q745 895 863 785Q997 660 997 448Q997 241 864 105Q734 -28 527 -28Q276 -28 155 146Q89 240 86 366H251Q258 287 300 226Q339 170 405
141Q464 114 529 114Q670 114 756 221Q827 310 827 434Q827 560 754 653Q675 753 526 753Q358 753 264 621L124 628L251 1339H923Z" />
<glyph unicode="6" glyph-name="six" horiz-adv-x="1092" d="M975 1012H810Q778 1224 579 1224Q379 1224 300 990Q269 899 256 698Q364 875 593 875Q778 875 896 755Q1012 638 1012 442Q1012 229 887 104Q756 -27 567 -27Q395 -27 277 75Q162 174 122 357Q94 484
94 652Q94 1025 240 1206Q369 1366 586 1366Q789 1366 892 1237Q965 1146 975 1012ZM560 733Q424 733 346 629Q287 550 287 434Q287 309 352 219Q428 115 567 115Q700 115 774 213Q841 300 841 424Q841 554 775 639Q702 733 560 733Z" />
<glyph unicode="7" glyph-name="seven" horiz-adv-x="1092" d="M1006 1338V1194Q996 1181 942 1120Q749 896 629 592Q521 319 485 0H305Q317 168 376 365T526 732Q657 973 841 1182L764 1181L673 1180H128V1338H1006Z" />
<glyph unicode="8" glyph-name="eight" horiz-adv-x="1092" d="M329 729Q267 754 226 798Q142 887 142 1014Q142 1169 255 1267Q369 1365 546 1365Q743 1365 853 1253Q948 1156 948 1023Q948 818 761 729Q1002 644 1002 400Q1002 201 875 85Q751 -27 540 -27Q331
-27 205 94Q90 206 90 385Q90 573 225 674Q276 712 329 729ZM543 1223Q429 1223 366 1150Q313 1090 313 1006Q313 914 371 856Q438 790 546 790Q660 790 721 857Q777 918 777 1007Q777 1111 711 1167Q646 1223 543 1223ZM540 658Q412 658 333 575Q261 499 261 389Q261
259 352 183Q433 115 544 115Q687 115 764 203Q831 281 831 388Q831 510 752 584Q671 658 540 658Z" />
<glyph unicode="9" glyph-name="nine" horiz-adv-x="1092" d="M114 330H275Q287 247 327 199Q399 115 522 115Q695 115 767 292Q828 441 829 649Q790 588 758 558Q654 462 497 462Q402 462 319 499T179 605Q83 724 83 903Q83 1109 214 1241Q336 1365 530 1365Q817
1365 933 1102Q996 958 996 699Q996 431 925 264Q864 121 761 47T516 -27Q296 -27 183 128Q121 212 114 330ZM521 1223Q403 1223 326 1132Q254 1047 254 907Q254 793 309 711Q381 604 522 604Q656 604 734 699Q800 779 800 902Q800 1044 729 1128Q650 1223 521
1223Z" />
<glyph unicode=":" glyph-name="colon" horiz-adv-x="545" d="M401 213V0H177V213H401ZM401 990V777H177V990H401Z" />
<glyph unicode=";" glyph-name="semicolon" horiz-adv-x="545" d="M398 990V785H180V990H398ZM398 206V77Q407 -226 180 -283V-188Q293 -148 290 0H180V206H398Z" />
<glyph unicode="&lt;" glyph-name="less" horiz-adv-x="1024" d="M955 1188V1010L257 686L955 362V186L68 611V763L955 1188Z" />
<glyph unicode="=" glyph-name="equal" horiz-adv-x="1092" d="M102 580H989V450H102V580ZM102 887H989V757H102V887Z" />
<glyph unicode="&gt;" glyph-name="greater" horiz-adv-x="1024" d="M69 186V363L767 687L69 1012V1188L956 763V610L69 186Z" />
<glyph unicode="?" glyph-name="question" horiz-adv-x="1022" d="M102 945Q110 1119 170 1214Q235 1315 353 1364Q433 1397 533 1397Q722 1397 835 1290Q939 1191 939 1029Q939 895 868 799Q836 755 716 638Q660 583 641 550Q603 484 603 337H445Q447 486 470
549Q490 608 551 679Q567 697 657 790Q726 860 747 918Q765 966 765 1016Q765 1110 714 1173Q651 1251 531 1251Q282 1251 262 945H102ZM623 194V0H421V194H623Z" />
<glyph unicode="@" glyph-name="at" horiz-adv-x="1518" d="M1300 357H1408Q1374 281 1338 234T1238 135Q1038 -27 786 -27Q626 -27 482 42T238 235Q89 423 89 665Q89 818 150 954T323 1189Q524 1365 796 1365Q931 1365 1055 1315T1269 1175Q1428 1015 1428 790Q1428
549 1243 400Q1112 294 982 294Q901 294 854 349Q841 364 833 389Q730 294 616 294Q501 294 432 390Q385 456 385 558Q385 720 488 863Q617 1043 785 1043Q876 1043 939 985Q959 967 975 938L1002 1011H1137L967 512Q948 457 948 435Q948 382 1010 382Q1106 382
1204 481Q1330 607 1330 786Q1330 1004 1160 1146Q1008 1273 798 1273Q666 1273 547 1221T343 1072Q193 904 193 667Q193 420 360 249Q535 68 790 68Q995 68 1168 204Q1249 268 1300 357ZM852 596L899 726Q923 793 923 832Q923 868 907 897Q875 954 814 954Q719
954 632 834Q583 766 554 671Q529 591 529 521Q529 463 554 425Q583 381 639 381Q712 381 769 443Q813 490 852 596Z" />
<glyph unicode="A" glyph-name="A" horiz-adv-x="1297" d="M751 1371L1284 0H1084L931 419H358L202 0H12L548 1371H751ZM878 565L744 928Q670 1127 646 1204Q613 1107 548 935L410 565H878Z" />
<glyph unicode="B" glyph-name="B" horiz-adv-x="1323" d="M157 1365H706Q906 1365 997 1319Q1088 1274 1138 1184Q1179 1109 1179 1023Q1179 893 1085 800Q1042 757 977 732Q1053 712 1096 683Q1239 586 1239 400Q1239 156 1038 50Q944 0 791 0H157V1365ZM337
1208V784H662Q795 784 859 802Q935 824 973 894Q998 940 998 998Q998 1146 874 1190Q824 1208 680 1208H337ZM337 638V157H698Q884 157 948 189Q1058 245 1058 393Q1058 560 910 616Q852 638 667 638H337Z" />
<glyph unicode="C" glyph-name="C" horiz-adv-x="1383" d="M1314 515Q1297 307 1182 167Q1021 -31 723 -31Q407 -31 236 193Q90 382 90 681Q90 1001 277 1206Q449 1396 737 1396Q1018 1396 1179 1222Q1289 1103 1303 956H1121Q1098 1060 1028 1131Q917 1243 733
1243Q489 1243 366 1044Q272 893 272 683Q272 459 369 310Q492 122 732 122Q936 122 1045 265Q1116 358 1135 515H1314Z" />
<glyph unicode="D" glyph-name="D" horiz-adv-x="1372" d="M157 1365H647Q818 1365 915 1331Q1033 1290 1124 1189Q1282 1014 1282 712Q1282 347 1090 151Q982 42 843 14Q777 0 667 0H157V1365ZM337 1208V157H632Q775 157 846 181Q984 228 1052 397Q1100 514 1100
703Q1100 969 967 1099Q893 1171 800 1192Q731 1208 651 1208H337Z" />
<glyph unicode="E" glyph-name="E" horiz-adv-x="1196" d="M1103 1365V1208H337V776H1053V630H337V157H1113V0H157V1365H1103Z" />
<glyph unicode="F" glyph-name="F" horiz-adv-x="1097" d="M1054 1365V1208H337V777H968V631H337V0H157V1365H1054Z" />
<glyph unicode="G" glyph-name="G" horiz-adv-x="1469" d="M1342 721V0H1227L1200 104Q1189 144 1181 171Q1015 -32 742 -32Q414 -32 235 205Q90 395 90 669Q90 990 276 1199Q453 1397 754 1397Q1032 1397 1192 1233Q1310 1112 1327 946H1150Q1136 1039 1073 1113Q962
1244 754 1244Q523 1244 391 1078Q272 927 272 676Q272 446 381 299Q513 121 753 121Q940 121 1059 239Q1177 354 1181 575H744V721H1342Z" />
<glyph unicode="H" glyph-name="H" horiz-adv-x="1395" d="M1238 1365V0H1058V639H337V0H157V1365H337V796H1058V1365H1238Z" />
<glyph unicode="I" glyph-name="I" horiz-adv-x="494" d="M337 1365V0H157V1365H337Z" />
<glyph unicode="J" glyph-name="J" horiz-adv-x="961" d="M823 1365V440Q823 315 811 247Q788 115 685 39Q587 -32 430 -32Q153 -32 64 156Q22 245 22 397Q22 421 24 451H199Q199 418 199 401Q199 265 237 206Q293 121 429 121Q557 121 606 204Q643 265 643 439V1365H823Z"
/>
<glyph unicode="K" glyph-name="K" horiz-adv-x="1274" d="M1266 1365L690 817L1289 0H1060L563 694L337 479V0H157V1365H337V827Q336 736 336 685Q369 717 426 776L1030 1365H1266Z" />
<glyph unicode="L" glyph-name="L" horiz-adv-x="1102" d="M1062 157V0H157V1365H337V157H1062Z" />
<glyph unicode="M" glyph-name="M" horiz-adv-x="1680" d="M1522 1365V0H1349L1351 612Q1354 985 1373 1219L1353 1164L1291 987L1249 873L924 0H767L427 863Q346 1072 309 1206Q326 930 328 618L330 0H157V1365H403L723 532Q810 305 846 187Q892 329 965 530L1272
1365H1522Z" />
<glyph unicode="N" glyph-name="N" horiz-adv-x="1407" d="M1249 1365V0H1050L563 736Q362 1045 317 1143Q325 1035 328 817L329 689V0H157V1365H352L862 588Q1018 352 1089 215Q1084 341 1077 682V1365H1249Z" />
<glyph unicode="O" glyph-name="O" horiz-adv-x="1487" d="M755 1397Q1035 1397 1217 1200Q1397 1004 1397 686Q1397 401 1257 214Q1074 -31 742 -31Q412 -31 228 216Q90 401 90 682Q90 1012 270 1200Q458 1397 755 1397ZM738 1244Q538 1244 407 1098Q272 949
272 687Q272 442 385 294Q453 205 563 159Q649 122 746 122Q939 122 1063 249Q1215 404 1215 682Q1215 937 1084 1092Q956 1244 738 1244Z" />
<glyph unicode="P" glyph-name="P" horiz-adv-x="1235" d="M157 1365H700Q838 1365 913 1343Q1036 1307 1109 1200Q1174 1107 1174 973Q1174 739 1015 631Q938 579 834 566Q793 561 707 561H337V0H157V1365ZM337 1208V707H685Q833 707 900 757Q992 825 992 963Q992
1106 885 1169Q838 1197 768 1204Q727 1208 659 1208H337Z" />
<glyph unicode="Q" glyph-name="Q" horiz-adv-x="1464" d="M1374 -2L1281 -116L1073 51Q930 -31 741 -31Q447 -31 265 172Q90 367 90 683Q90 1001 271 1199Q368 1305 499 1353Q617 1396 742 1396Q1044 1396 1222 1192Q1397 992 1397 685Q1397 464 1311 300Q1261
206 1194 142L1374 -2ZM1058 244Q1215 406 1215 686Q1215 933 1086 1089Q957 1243 742 1243Q529 1243 398 1086Q272 936 272 687Q272 449 378 303Q452 202 572 154Q654 122 748 122Q845 122 935 160L784 280L879 393L1058 244Z" />
<glyph unicode="R" glyph-name="R" horiz-adv-x="1369" d="M153 1365H777Q949 1365 1045 1305Q1211 1202 1211 995Q1211 833 1110 736Q1057 685 977 658Q1072 641 1128 560Q1167 498 1176 411Q1180 377 1193 236Q1207 69 1246 20L1263 0H1057Q1047 14 1034 56Q1024
96 1015 269Q1001 492 911 549Q848 590 692 591H333V0H153V1365ZM333 1208V737H673Q791 737 856 751Q941 768 987 831Q1029 888 1029 977Q1029 1083 966 1144Q920 1188 843 1200Q790 1208 721 1208H333Z" />
<glyph unicode="S" glyph-name="S" horiz-adv-x="1230" d="M1094 965H920Q905 1091 842 1156Q757 1244 579 1244Q450 1244 373 1198Q271 1137 271 1017Q271 919 344 877Q417 835 642 787Q796 754 862 731Q1147 633 1147 385Q1147 191 994 73Q861 -31 616 -31Q414
-31 270 48Q54 168 51 451H225Q229 319 294 244Q400 122 629 122Q796 122 880 192Q965 262 965 371Q965 455 912 505Q857 557 733 593Q698 604 571 633Q383 677 344 690Q221 732 163 803Q98 883 98 1005Q98 1188 235 1297Q362 1397 580 1397Q903 1397 1031 1194Q1089
1103 1094 965Z" />
<glyph unicode="T" glyph-name="T" horiz-adv-x="1158" d="M1128 1365V1208H669V0H489V1208H30V1365H1128Z" />
<glyph unicode="U" glyph-name="U" horiz-adv-x="1373" d="M1236 1365V569Q1236 386 1214 308Q1118 -31 692 -31Q463 -31 335 57Q192 154 155 333Q137 416 137 572V1365H317V566Q317 440 327 382Q371 122 694 122Q928 122 1005 257Q1045 325 1053 441Q1056 486
1056 567V1365H1236Z" />
<glyph unicode="V" glyph-name="V" horiz-adv-x="1205" d="M1193 1365L705 0H499L12 1365H212L499 504L538 383Q577 259 604 152Q635 272 713 504L1002 1365H1193Z" />
<glyph unicode="W" glyph-name="W" horiz-adv-x="1775" d="M1755 1365L1391 0H1201L970 835Q907 1075 886 1194Q849 1026 797 846L568 0H375L21 1365H208L410 528Q460 321 481 186Q495 281 562 532L790 1365H988L1221 513Q1277 291 1295 186Q1311 293 1364 509L1574
1365H1755Z" />
<glyph unicode="X" glyph-name="X" horiz-adv-x="1186" d="M1155 1365L701 703L1181 0H962L681 424Q626 509 593 571Q561 521 499 428L212 0H5L486 703L35 1365H251L485 1007Q576 861 594 825Q643 910 709 1007L951 1365H1155Z" />
<glyph unicode="Y" glyph-name="Y" horiz-adv-x="1198" d="M1219 1365L692 559V0H512V559L-20 1365H198L519 855Q576 766 608 707Q641 768 692 851L1012 1365H1219Z" />
<glyph unicode="Z" glyph-name="Z" horiz-adv-x="1193" d="M1122 1365V1216L346 252Q338 242 307 207Q291 188 262 153Q460 157 513 157H1143V0H53V153L837 1126Q858 1150 913 1212Q800 1208 671 1208H120V1365H1122Z" />
<glyph unicode="[" glyph-name="bracketleft" horiz-adv-x="601" d="M507 1365V1237H301V-255H507V-385H145V1365H507Z" />
<glyph unicode="\" glyph-name="backslash" horiz-adv-x="827" d="M72 1365H205L908 -385H770L72 1365Z" />
<glyph unicode="]" glyph-name="bracketright" horiz-adv-x="601" d="M94 -385V-255H300V1237H94V1365H456V-385H94Z" />
<glyph unicode="^" glyph-name="asciicircum" horiz-adv-x="1024" d="M225 760H60L411 1369H612L963 760H797L510 1248L225 760Z" />
<glyph unicode="_" glyph-name="underscore" horiz-adv-x="1024" d="M0 -143H1024V-257H0V-143Z" />
<glyph unicode="`" glyph-name="grave" horiz-adv-x="1024" d="M259 1399H460L602 1126H489L259 1399Z" />
<glyph unicode="a" glyph-name="a" horiz-adv-x="1036" d="M993 131V4Q936 -16 879 -16Q802 -16 763 37Q737 72 736 131Q597 -29 378 -29Q239 -29 157 39Q62 117 62 252Q62 448 248 523Q304 545 387 558Q399 560 552 578Q676 594 706 636Q726 664 726 709Q726
883 503 883Q366 883 305 812Q269 771 260 680H101Q104 831 207 923Q313 1019 515 1019Q723 1019 825 922Q873 875 886 792Q892 753 892 652Q892 517 886 281Q885 237 885 218Q885 165 899 143Q914 121 950 121Q969 121 993 131ZM729 514Q696 489 646 476Q618 468
510 454Q367 436 312 408Q229 365 229 266Q229 191 282 143Q331 98 425 98Q546 98 638 170Q706 222 722 283Q729 310 729 366V514Z" />
<glyph unicode="b" glyph-name="b" horiz-adv-x="1159" d="M306 1365V853Q409 1019 633 1019Q832 1019 956 878Q1079 739 1079 499Q1079 252 949 108Q824 -29 623 -29Q387 -29 296 143V0H144V1365H306ZM605 882Q478 882 393 790Q301 691 301 491Q301 309 383 211Q468
108 608 108Q746 108 825 210Q912 321 912 496Q912 680 825 785Q744 882 605 882Z" />
<glyph unicode="c" glyph-name="c" horiz-adv-x="1041" d="M983 360Q964 218 888 123Q767 -29 551 -29Q310 -29 183 139Q81 275 81 481Q81 749 227 892Q357 1019 556 1019Q782 1019 895 879Q962 796 977 668H808Q792 752 747 803Q677 883 556 883Q394 883 313
752Q248 647 248 495Q248 332 314 231Q394 107 546 107Q699 107 774 231Q806 285 817 360H983Z" />
<glyph unicode="d" glyph-name="d" horiz-adv-x="1159" d="M1015 1365V0H862V146Q833 88 782 47Q685 -29 538 -29Q335 -29 210 108Q80 249 80 497Q80 740 202 877Q329 1019 525 1019Q682 1019 782 939Q824 906 853 853V1365H1015ZM546 882Q416 882 335 786Q247
683 247 501Q247 321 334 211Q416 108 553 108Q694 108 776 211Q857 313 857 491Q857 692 765 791Q680 882 546 882Z" />
<glyph unicode="e" glyph-name="e" horiz-adv-x="1065" d="M982 317Q904 -29 549 -29Q309 -29 186 134Q81 273 81 488Q81 720 209 868Q340 1019 544 1019Q711 1019 829 918Q957 809 985 608Q993 544 993 453H249Q259 107 561 107Q707 107 775 212Q802 253 822
317H982ZM825 587Q817 689 775 756Q695 883 539 883Q389 883 313 770Q266 700 250 587H825Z" />
<glyph unicode="f" glyph-name="f" horiz-adv-x="573" d="M556 1370V1230Q506 1241 460 1241Q376 1241 353 1198Q340 1173 340 1104V990H530V856H340V0H178V856H11V990H178V1055Q178 1151 184 1191Q198 1282 271 1334Q333 1377 440 1377Q488 1377 556 1370Z" />
<glyph unicode="g" glyph-name="g" horiz-adv-x="1133" d="M989 990V108Q989 -20 972 -96Q939 -246 831 -321Q713 -404 530 -404Q324 -404 212 -310Q130 -241 113 -112H281Q310 -277 535 -277Q708 -277 774 -179Q828 -98 828 49V169Q797 115 768 85Q673 -13 513
-13Q319 -13 198 125Q80 262 80 491Q80 734 206 877Q331 1019 523 1019Q728 1019 837 847V990H989ZM531 882Q391 882 315 767Q247 666 247 502Q247 289 353 193Q430 124 534 124Q679 124 758 245Q825 350 825 517Q825 610 799 688T725 811Q650 882 531 882Z" />
<glyph unicode="h" glyph-name="h" horiz-adv-x="1101" d="M306 1365V966Q306 944 302 848Q414 1019 633 1019Q850 1019 927 871Q965 799 965 643V0H803V623Q803 754 771 801Q717 882 586 882Q469 882 391 807Q332 750 315 655Q306 605 306 467V0H144V1365H306Z" />
<glyph unicode="i" glyph-name="i" horiz-adv-x="449" d="M305 1365V1166H143V1365H305ZM305 990V0H143V990H305Z" />
<glyph unicode="j" glyph-name="j" horiz-adv-x="449" d="M306 990V-25Q306 -159 300 -213Q280 -398 55 -398Q21 -398 -19 -392V-254Q14 -261 42 -261Q116 -261 132 -221Q144 -191 144 -26V990H306ZM306 1365V1166H144V1365H306Z" />
<glyph unicode="k" glyph-name="k" horiz-adv-x="1020" d="M980 990L587 631L1008 0H802L462 518L306 375V0H144V1365H306V695V620V553Q351 601 373 622L762 990H980Z" />
<glyph unicode="l" glyph-name="l" horiz-adv-x="449" d="M305 1365V0H143V1365H305Z" />
<glyph unicode="m" glyph-name="m" horiz-adv-x="1669" d="M296 990V847Q355 926 414 963Q504 1019 619 1019Q758 1019 835 940Q867 907 893 844Q1016 1019 1224 1019Q1309 1019 1378 987T1485 896Q1533 822 1533 683V0H1371V624Q1371 743 1352 786Q1311 882 1173
882Q1076 882 1011 828Q935 766 924 660Q919 617 919 524V0H757V636Q757 751 733 800Q693 883 574 883Q473 883 402 823Q329 762 313 654Q306 606 306 524V0H144V990H296Z" />
<glyph unicode="n" glyph-name="n" horiz-adv-x="1101" d="M296 990V836Q338 899 376 930Q482 1019 641 1019Q738 1019 813 981T924 875Q956 817 962 742Q965 696 965 640V0H803V583Q803 718 784 771Q764 825 712 853Q658 882 589 882Q463 882 386 800Q331 742
315 648Q306 591 306 479V0H144V990H296Z" />
<glyph unicode="o" glyph-name="o" horiz-adv-x="1118" d="M568 1019Q782 1019 914 873Q1039 736 1039 496Q1039 232 891 89Q770 -29 566 -29Q331 -29 203 123Q81 267 81 495Q81 713 191 852Q322 1019 568 1019ZM558 882Q428 882 344 790Q248 685 248 496Q248
305 341 201Q424 108 565 108Q690 108 768 187Q872 293 872 496Q872 685 781 788Q698 882 558 882Z" />
<glyph unicode="p" glyph-name="p" horiz-adv-x="1160" d="M296 990V848Q408 1019 625 1019Q818 1019 941 891Q1080 746 1080 489Q1080 255 957 113Q833 -29 636 -29Q419 -29 306 136V-385H144V990H296ZM602 882Q470 882 385 783Q300 684 300 498Q300 300 394
199Q479 108 610 108Q747 108 825 204Q913 312 913 487Q913 674 822 785Q742 882 602 882Z" />
<glyph unicode="q" glyph-name="q" horiz-adv-x="1159" d="M1016 990V-385H854V137Q740 -29 521 -29Q326 -29 204 109Q81 248 81 489Q81 746 218 890Q340 1019 537 1019Q767 1019 864 847V990H1016ZM547 882Q417 882 339 786Q248 675 248 490Q248 309 335 205Q416
108 551 108Q681 108 765 198Q859 299 859 501Q859 685 773 783Q687 882 547 882Z" />
<glyph unicode="r" glyph-name="r" horiz-adv-x="663" d="M667 1019V849Q631 852 614 852Q484 852 400 766Q329 693 314 564Q306 500 306 385V0H144V990H296V783Q396 1027 667 1019Z" />
<glyph unicode="s" glyph-name="s" horiz-adv-x="951" d="M840 702H677Q668 770 642 804Q583 882 436 882Q344 882 291 848Q234 812 234 747Q234 675 306 641Q346 623 498 588Q615 562 678 539T788 482Q881 414 881 288Q881 215 846 150T750 44Q642 -29 470 -29Q237
-29 127 90Q50 174 45 313H205Q215 230 250 189Q318 108 470 108Q588 108 650 155Q714 202 714 272Q714 350 622 392Q582 410 465 438Q285 482 253 493Q67 557 67 727Q67 886 206 965Q300 1019 444 1019Q667 1019 771 898Q830 829 840 702Z" />
<glyph unicode="t" glyph-name="t" horiz-adv-x="578" d="M519 990V856H322V272Q322 179 337 154Q358 120 430 120Q473 120 519 131V-8Q456 -16 394 -16Q230 -16 184 70Q165 105 162 181Q161 190 160 363V856H-7V990H160V1283H322V990H519Z" />
<glyph unicode="u" glyph-name="u" horiz-adv-x="1105" d="M962 990V0H810V155Q773 94 715 51Q609 -29 467 -29Q291 -29 203 79Q137 160 137 347V990H299V406Q299 276 317 222Q334 168 386 138T514 108Q681 108 761 255Q800 326 800 511V990H962Z" />
<glyph unicode="v" glyph-name="v" horiz-adv-x="906" d="M905 990L544 0H369L1 990H181L359 489Q416 327 463 163Q495 282 569 500L735 990H905Z" />
<glyph unicode="w" glyph-name="w" horiz-adv-x="1407" d="M1398 990L1082 0H909L761 541Q732 649 703 787Q674 654 645 542L504 0H327L10 990H190L327 516Q371 364 416 180Q465 408 494 522L616 990H796L939 464Q966 361 1003 180Q1040 347 1073 460L1227 990H1398Z" />
<glyph unicode="x" glyph-name="x" horiz-adv-x="945" d="M910 990L568 535L951 0H742L529 312Q495 362 466 410Q441 371 401 312L191 0H-7L365 522L21 990H229L387 766Q409 736 466 645Q526 732 551 767L713 990H910Z" />
<glyph unicode="y" glyph-name="y" horiz-adv-x="928" d="M927 990L563 32Q465 -224 427 -286Q357 -398 214 -398Q165 -398 120 -388L95 -382V-236Q164 -257 203 -257Q274 -257 317 -174Q343 -124 392 6L1 990H184L401 410Q424 348 476 181Q523 328 556 425L755 990H927Z" />
<glyph unicode="z" glyph-name="z" horiz-adv-x="904" d="M859 990V882L327 220Q313 203 253 133Q326 134 376 134H884V0H48V121L566 765Q586 790 649 857Q579 856 556 856H86V990H859Z" />
<glyph unicode="{" glyph-name="braceleft" horiz-adv-x="601" d="M187 489Q252 454 280 387Q299 343 300 251V-40Q304 -152 320 -180Q356 -258 495 -257V-385H481Q315 -382 286 -367Q187 -332 159 -224Q144 -171 144 -81V229Q144 331 110 374Q78 411 27 424V560Q80
574 112 614Q143 651 144 748V1087Q143 1235 211 1299Q256 1346 325 1356Q363 1364 482 1365H495V1237Q406 1235 355 1202Q317 1174 308 1121Q300 1087 300 1020V721Q299 612 270 564Q246 520 187 489Z" />
<glyph unicode="|" glyph-name="bar" horiz-adv-x="1024" d="M423 1365H601V-341H423V1365Z" />
<glyph unicode="}" glyph-name="braceright" horiz-adv-x="601" d="M413 492Q349 526 319 593Q300 637 300 729V1020Q296 1133 280 1160Q244 1238 105 1237V1365H119Q285 1362 314 1347Q412 1312 441 1204Q456 1151 456 1061V751Q456 649 490 606Q523 569 573
556V420Q520 407 488 366Q457 329 456 232V-107Q457 -255 390 -319Q344 -366 275 -376Q237 -384 118 -385H105V-257Q194 -255 245 -222Q283 -194 292 -141Q300 -107 300 -40V259Q301 367 330 416Q355 460 413 492Z" />
<glyph unicode="~" glyph-name="asciitilde" horiz-adv-x="1365" d="M286 1181L193 1255Q299 1491 474 1491Q550 1491 710 1412Q808 1364 840 1355Q871 1346 897 1346Q998 1346 1081 1496L1175 1422Q1071 1188 877 1188Q847 1188 805 1201Q763 1214 633 1278Q525
1331 464 1331Q371 1331 286 1181Z" />
</font>
</defs>
</svg>
