<?xml version="1.0" standalone="no"?>
<!DOCTYPE svg PUBLIC "-//W3C//DTD SVG 1.1//EN" "http://www.w3.org/Graphics/SVG/1.1/DTD/svg11.dtd" >
<svg xmlns="http://www.w3.org/2000/svg">
<metadata></metadata>
<defs>
<font id="nimbus_sans_novus_condmedium" horiz-adv-x="911" >
<font-face units-per-em="2048" ascent="1366" descent="-682" />
<missing-glyph horiz-adv-x="395" />
<glyph unicode="&#xfb01;" horiz-adv-x="856" d="M-10 901v125h151q0 153 8.5 200.5t40.5 82.5q32 37 81.5 52t136.5 15q38 0 69 -2v-133q-14 2 -31 2h-39t-31 -2.5t-25 -4t-18 -9.5t-13.5 -13t-8.5 -21t-6 -27t-2.5 -37t-1.5 -45.5v-57.5h176v-125h-176v-901h-160v901h-151zM590 0v1026h160v-1026h-160zM590 1178v188 h160v-188h-160z" />
<glyph unicode="&#xfb02;" horiz-adv-x="856" d="M-10 901v125h151q0 153 8.5 200.5t40.5 82.5q32 37 81.5 52t136.5 15q38 0 69 -2v-133q-14 2 -31 2h-39t-31 -2.5t-25 -4t-18 -9.5t-13.5 -13t-8.5 -21t-6 -27t-2.5 -37t-1.5 -45.5v-57.5h176v-125h-176v-901h-160v901h-151zM590 0v1366h160v-1366h-160z" />
<glyph horiz-adv-x="2048" />
<glyph horiz-adv-x="2048" />
<glyph unicode="&#xd;" horiz-adv-x="2048" />
<glyph unicode=" "  horiz-adv-x="395" />
<glyph unicode="&#x09;" horiz-adv-x="395" />
<glyph unicode="&#xa0;" horiz-adv-x="395" />
<glyph unicode="!" horiz-adv-x="454" d="M139 0v182h176v-182h-176zM139 942v424h176v-424l-32 -582h-107z" />
<glyph unicode="&#x22;" horiz-adv-x="669" d="M92 1366h133l-26 -549h-80zM442 1366h133l-28 -549h-78z" />
<glyph unicode="#" d="M41 459l10 104h189l22 215h-188l12 107h186l37 344h107l-35 -344h186l37 344h107l-37 -344h196l-10 -107h-196l-23 -215h197l-11 -104h-196l-37 -350h-109l37 350h-186l-37 -350h-109l37 350h-186zM346 563h189l22 215h-188z" />
<glyph unicode="$" d="M35 412h162v-15q0 -132 47 -201.5t147 -86.5v526q-181 64 -255.5 148.5t-74.5 222.5q0 153 87 247t243 109v139h105v-139q155 -13 239 -103.5t86 -244.5h-162q-3 96 -42.5 149t-120.5 66v-463q136 -49 186 -78q88 -47 129 -124t41 -193q0 -174 -91.5 -275.5 t-264.5 -118.5v-167h-105v165q-183 13 -273.5 124.5t-82.5 312.5zM223 1018q0 -78 39.5 -128t128.5 -85v424q-82 -17 -125 -71t-43 -140zM496 111q100 23 147 81.5t47 159.5t-41.5 153.5t-152.5 92.5v-487z" />
<glyph unicode="%" horiz-adv-x="1423" d="M80 979q0 215 49 291q62 92 199 92q156 0 211 -119q32 -65 32 -244q0 -189 -41 -258q-58 -110 -213 -110q-138 0 -196 98q-41 69 -41 250zM215 983q0 -141 23 -192.5t86 -51.5q64 0 87 54.5t23 205.5q0 149 -22 202.5t-84 53.5q-65 0 -89 -58t-24 -214zM346 -27l604 1403 h121l-602 -1403h-123zM854 336q0 213 49 289q59 92 199 92q156 0 211 -119q33 -67 33 -244q0 -186 -41 -258q-58 -110 -213 -110q-139 0 -197 98q-41 69 -41 252zM989 338q0 -141 23 -192.5t86 -51.5q64 0 87 54.5t23 205.5q0 150 -21.5 203t-84.5 53q-65 0 -89 -57.5 t-24 -214.5z" />
<glyph unicode="&#x26;" horiz-adv-x="1107" d="M68 352q0 175 147 316q87 69 137 108q-98 150 -120.5 200t-22.5 116q0 116 82 190t209 74t203.5 -72t76.5 -192q0 -132 -110 -234q-17 -17 -125 -98l272 -383q19 33 34.5 111.5t16.5 152.5h150q0 -94 -32 -207t-79 -186l176 -248h-182l-92 135q-64 -83 -148 -121.5 t-198 -38.5q-173 0 -284 105.5t-111 271.5zM233 369q0 -110 73 -183t183 -73q150 0 244 135l-303 428q-106 -78 -151.5 -149.5t-45.5 -157.5zM356 1100q0 -83 115 -240q96 78 129 126.5t33 109.5q0 63 -36.5 99t-100.5 36q-63 0 -101.5 -35.5t-38.5 -95.5z" />
<glyph unicode="'" horiz-adv-x="319" d="M92 1366h133l-26 -549h-80z" />
<glyph unicode="(" horiz-adv-x="509" d="M63 514q0 223 68 429.5t211 422.5h94q-82 -157 -117 -244q-104 -261 -104 -610q0 -243 49.5 -435t171.5 -419h-94q-134 195 -206.5 418t-72.5 438z" />
<glyph unicode=")" horiz-adv-x="509" d="M76 -342q87 170 117 244q104 261 104 610q0 243 -50 435.5t-171 418.5h94q133 -195 206 -418.5t73 -437.5q0 -223 -68 -428.5t-211 -423.5h-94z" />
<glyph unicode="*" d="M156 1110l39 107l131 -50q42 -16 84 -39q-4 54 -4 111v127h108v-129q0 -51 -8 -109q47 23 80 37l133 52l39 -99l-129 -49q-56 -20 -86 -27q29 -29 69 -79l80 -103l-86 -67l-84 104q-50 70 -61 96q-4 -7 -64 -94l-75 -106l-91 67l78 101q53 69 72 81q-11 2 -44 10.5 t-40 10.5z" />
<glyph unicode="+" d="M72 612v117h325v326h117v-326h328v-117h-328v-325h-117v325h-325z" />
<glyph unicode="," horiz-adv-x="403" d="M113 0v201h178v-140q0 -169 -37 -240.5t-141 -105.5v92q51 23 68.5 62t17.5 131h-86z" />
<glyph unicode="-" horiz-adv-x="395" d="M0 451v149h395v-149h-395z" />
<glyph unicode="." horiz-adv-x="403" d="M113 0v201h178v-201h-178z" />
<glyph unicode="/" horiz-adv-x="788" d="M-27 -342l594 1708h131l-594 -1708h-131z" />
<glyph unicode="0" d="M72 651q0 305 47 451q89 264 342 264q200 0 290.5 -156t90.5 -501q0 -287 -47 -459q-37 -136 -126.5 -206.5t-226.5 -70.5q-120 0 -203.5 64t-121.5 186q-45 142 -45 428zM240 662q0 -255 26 -379q19 -88 65.5 -133.5t117.5 -45.5q89 0 136.5 55t68 183t20.5 367 q0 197 -20.5 310.5t-66.5 164.5t-126 51q-148 0 -197 -201q-24 -108 -24 -372z" />
<glyph unicode="1" d="M133 1018v110q168 2 245 56t87 178h119v-1362h-160v1018h-291z" />
<glyph unicode="2" d="M84 0q6 197 87 328.5t316 324.5q97 83 136 156.5t39 173.5q0 121 -53.5 186.5t-151.5 65.5q-211 0 -211 -307h-162q3 103 14.5 161t40.5 107q98 170 324 170q175 0 270.5 -100t95.5 -283t-102 -303q-37 -44 -77.5 -82t-160.5 -139q-105 -88 -155 -155t-72 -144 q-6 -21 -8 -25q34 6 98 6h488v-141h-756z" />
<glyph unicode="3" d="M63 373h162q15 -269 213 -269q106 0 166 73.5t60 203.5q0 164 -101 233q-29 21 -66.5 28t-123.5 7q-25 0 -43 -2v121q75 0 107 4t67 16q56 22 86.5 80t30.5 144q0 106 -48.5 164.5t-136.5 58.5q-95 0 -144.5 -67t-47.5 -193h-162q1 192 92 291.5t264 99.5 q163 0 256.5 -91.5t93.5 -252.5q0 -122 -60 -205t-161 -102q129 -15 196.5 -99t67.5 -227q0 -179 -96 -295q-103 -121 -301 -121q-173 0 -271 106t-100 294z" />
<glyph unicode="4" d="M57 328v155l486 879h166v-893h151v-141h-151v-328h-160v328h-492zM190 465q12 4 117 4h242v418q6 167 16 262q-14 -41 -76 -160l-227 -411q-54 -93 -72 -113z" />
<glyph unicode="5" d="M68 350h163q1 -119 54.5 -182.5t150.5 -63.5q108 0 168 88.5t60 249.5q0 152 -60 234t-170 82q-69 0 -120 -34t-74 -95l-142 8l74 700h604v-141h-477l-31 -252q-20 -138 -26 -162q37 51 99 79t136 28q165 0 259.5 -119t94.5 -326q0 -223 -106 -347t-295 -124 q-172 0 -267 99t-95 278z" />
<glyph unicode="6" d="M70 647q0 354 75 508q105 211 336 211q152 0 242 -85.5t94 -236.5h-166q-3 91 -50 141t-130 50q-84 0 -134 -52t-75 -165q-20 -108 -33 -309q40 79 110.5 121t164.5 42q166 0 258 -114t92 -318q0 -220 -104.5 -343.5t-290.5 -123.5q-214 0 -309 179q-80 145 -80 495z M254 449q0 -164 56 -254.5t159 -90.5q101 0 158 85t57 237t-56 231.5t-163 79.5q-100 0 -155.5 -76t-55.5 -212z" />
<glyph unicode="7" d="M66 1188v149h774v-137q-189 -253 -306 -565t-145 -635h-182q26 305 164.5 644.5t324.5 551.5q-46 -8 -143 -8h-487z" />
<glyph unicode="8" d="M68 377q0 141 61.5 234t175.5 122q-42 9 -80 39q-116 86 -116 252q0 160 92 251t252 91q163 0 256.5 -91t93.5 -249q0 -112 -53 -193t-138 -100q113 -29 172.5 -120.5t59.5 -235.5q0 -190 -101.5 -297t-283.5 -107q-184 0 -287.5 107.5t-103.5 296.5zM236 387 q0 -137 57 -210t164 -73q106 0 162.5 72.5t56.5 210.5q0 132 -58 204.5t-165 72.5q-103 0 -160 -72.5t-57 -204.5zM276 1018q0 -106 47.5 -164.5t133.5 -58.5q84 0 131 58t47 161q0 106 -47 163.5t-133 57.5t-132.5 -56.5t-46.5 -160.5z" />
<glyph unicode="9" d="M59 901q0 215 106.5 340t289.5 125q214 0 309 -176q80 -140 80 -492q0 -351 -74 -505q-103 -220 -338 -220q-153 0 -240.5 84.5t-93.5 237.5h164q5 -93 50 -142t126 -49q114 0 168.5 93t67.5 313q7 98 14 133q-46 -93 -111.5 -134.5t-166.5 -41.5q-164 0 -257.5 115 t-93.5 319zM227 909q0 -149 58 -230t164 -81q101 0 157 76.5t56 214.5q0 164 -57.5 255t-160.5 91q-102 0 -159.5 -86.5t-57.5 -239.5z" />
<glyph unicode=":" horiz-adv-x="403" d="M113 0v201h178v-201h-178zM113 776v201h178v-201h-178z" />
<glyph unicode=";" horiz-adv-x="403" d="M113 0v201h178v-140q0 -169 -37 -240.5t-141 -105.5v92q51 23 68.5 62t17.5 131h-86zM113 776v201h178v-201h-178z" />
<glyph unicode="&#x3c;" horiz-adv-x="1024" d="M68 610v154l886 424v-178l-698 -324l698 -324v-176z" />
<glyph unicode="=" d="M72 465v117h770v-117h-770zM72 760v117h770v-117h-770z" />
<glyph unicode="&#x3e;" horiz-adv-x="1024" d="M70 186v176l696 324l-696 326v176l886 -426v-152z" />
<glyph unicode="?" horiz-adv-x="831" d="M49 977v20q0 184 96 290t263 106q162 0 257 -97.5t95 -263.5q0 -132 -62 -229q-22 -32 -39 -52t-96 -106q-67 -74 -84.5 -122.5t-17.5 -155.5h-154q-1 107 12.5 165t51 113t131.5 154q51 57 73.5 113.5t22.5 129.5q0 101 -51 160.5t-139 59.5q-98 0 -148.5 -72.5 t-50.5 -212.5h-160zM301 0v182h178v-182h-178z" />
<glyph unicode="@" horiz-adv-x="1472" d="M111 664q0 143 53 273t143 224t214 149.5t261 55.5q159 0 292 -74t209.5 -202.5t76.5 -282.5q0 -127 -54 -243t-143 -185.5t-188 -69.5q-107 0 -141 111q-44 -57 -86 -81t-95 -24q-94 0 -153.5 79t-59.5 204q0 111 41.5 211t111.5 159.5t148 59.5q61 0 100.5 -28 t67.5 -91l23 97h100l-98 -451q-16 -72 -16 -88q0 -43 19 -66.5t54 -23.5q40 0 87 27.5t89 76.5q119 134 119 322q0 211 -145.5 353t-360.5 142q-163 0 -300 -83.5t-215.5 -228.5t-78.5 -318q0 -129 46 -245t125 -199t189 -132t232 -49q149 0 279.5 77.5t208.5 211.5h73 q-32 -68 -64.5 -110.5t-90.5 -92.5q-185 -154 -406 -154q-183 0 -336.5 91.5t-242 250t-88.5 347.5zM547 565q0 -85 33 -133.5t90 -48.5q104 0 155 174q54 182 54 252q0 66 -30 105.5t-81 39.5q-84 0 -147 -116q-29 -55 -51.5 -138.5t-22.5 -134.5z" />
<glyph unicode="A" horiz-adv-x="1009" d="M8 0l393 1366h224l376 -1366h-180l-96 375h-440l-103 -375h-174zM319 512h371l-112 442q-54 225 -66 306q-5 -48 -70 -302z" />
<glyph unicode="B" horiz-adv-x="1001" d="M119 0v1366h297q126 0 174.5 -4.5t93.5 -18.5q91 -32 145 -118t54 -201q0 -114 -51 -191t-148 -108q120 -26 183 -112.5t63 -221.5q0 -118 -49 -207t-140 -139q-82 -45 -260 -45h-362zM285 137h127q162 0 219 25q129 57 129 231q0 91 -39 154t-111 88q-29 10 -67.5 13 t-153.5 5h-104v-516zM285 778h104q109 0 149.5 5t71.5 22q49 25 76 78t27 125q0 170 -133 209q-47 12 -199 12h-96v-451z" />
<glyph unicode="C" horiz-adv-x="948" d="M78 668q0 359 88 528q104 197 348 197q194 0 296.5 -109.5t102.5 -316.5h-165q0 94 -37 176q-53 114 -197 114q-145 0 -205.5 -134.5t-60.5 -458.5q0 -297 61.5 -426t202.5 -129q234 0 246 360h168q0 -173 -74 -309q-54 -99 -133.5 -143t-206.5 -44q-232 0 -333 162 t-101 533z" />
<glyph unicode="D" horiz-adv-x="1040" d="M119 0v1366h260q159 0 243.5 -17t145.5 -61q100 -72 147.5 -210t47.5 -359q0 -415 -144 -588q-62 -72 -141 -101.5t-211 -29.5h-348zM285 137h147q98 0 157.5 19.5t96.5 62.5q107 125 107 492q0 184 -31.5 294t-99.5 166q-41 32 -101.5 45t-173.5 13h-102v-1092z" />
<glyph unicode="E" horiz-adv-x="901" d="M119 0v1366h704v-145h-538v-435h508v-145h-508v-496h559v-145h-725z" />
<glyph unicode="F" horiz-adv-x="847" d="M119 0v1366h698v-145h-532v-433h501v-145h-501v-643h-166z" />
<glyph unicode="G" horiz-adv-x="1032" d="M78 680q0 358 92 520q108 193 346 193q184 0 286.5 -105.5t108.5 -300.5h-168q-6 132 -64.5 201t-162.5 69q-148 0 -208 -136.5t-60 -471.5q0 -281 64 -410.5t202 -129.5q76 0 135.5 46t85.5 126q33 100 33 290h-268v138h426v-709h-129v98v86q-80 -211 -305 -211 q-101 0 -183 44t-129 122q-102 168 -102 541z" />
<glyph unicode="H" horiz-adv-x="1038" d="M119 0v1366h166v-561h469v561h166v-1366h-166v659h-469v-659h-166z" />
<glyph unicode="I" horiz-adv-x="405" d="M119 0v1366h166v-1366h-166z" />
<glyph unicode="J" horiz-adv-x="798" d="M33 399h162q0 -138 20 -194q35 -96 139 -96q143 0 164 143q8 52 8 197v917h166v-917q0 -126 -7.5 -191.5t-27.5 -110.5q-73 -174 -307 -174q-216 0 -287 170q-30 72 -30 256z" />
<glyph unicode="K" horiz-adv-x="995" d="M119 0v1366h166v-494q0 -143 -4 -192q37 66 122 197l357 489h184l-409 -569l450 -797h-190l-369 655l-141 -190v-465h-166z" />
<glyph unicode="L" horiz-adv-x="872" d="M119 0v1366h166v-1221h559v-145h-725z" />
<glyph unicode="M" horiz-adv-x="1337" d="M119 0v1366h270l141 -532q140 -533 140 -668h6v7q0 122 96 505l172 688h273v-1366h-160v956q0 126 12 306h-12q-22 -126 -121 -514l-191 -748h-155l-199 760q-13 66 -57 239l-55 263h-13q13 -187 13 -383v-879h-160z" />
<glyph unicode="N" horiz-adv-x="1073" d="M119 0v1366h215l305 -739q113 -276 164 -500h10q-18 137 -18 367v872h159v-1366h-221l-291 719q-65 153 -114.5 299.5t-59.5 222.5h-10q21 -159 21 -383v-858h-160z" />
<glyph unicode="O" horiz-adv-x="1032" d="M78 696q0 358 107.5 527.5t336.5 169.5q226 0 329 -162.5t103 -517.5q0 -393 -104 -566.5t-342 -173.5q-224 0 -327 172.5t-103 550.5zM248 694q0 -313 61.5 -449t202.5 -136q145 0 208.5 133.5t63.5 437.5q0 315 -59.5 446t-204.5 131q-146 0 -209 -130.5t-63 -432.5z " />
<glyph unicode="P" horiz-adv-x="929" d="M119 0v1366h338q177 0 260 -49q80 -46 123 -135t43 -207q0 -127 -50.5 -221t-142.5 -138q-49 -23 -104 -30.5t-166 -7.5h-135v-578h-166zM285 715h147q133 0 186 37q95 68 95 221q0 162 -107 225q-57 31 -194 31h-127v-514z" />
<glyph unicode="Q" horiz-adv-x="1028" d="M78 676q0 370 107 543.5t335 173.5q224 0 327 -162.5t103 -517.5q0 -419 -108 -568l143 -129l-90 -96l-143 131q-56 -42 -112 -60t-130 -18q-279 0 -369 256q-63 180 -63 447zM248 678q0 -301 61 -435t199 -134q87 0 137 41l-131 116l90 99l121 -113q55 119 55 440 q0 309 -59.5 437t-202.5 128q-148 0 -209 -131t-61 -448z" />
<glyph unicode="R" horiz-adv-x="1040" d="M119 0v1366h383q96 0 154.5 -11.5t101.5 -39.5q72 -44 110.5 -123.5t38.5 -181.5q0 -132 -57 -219t-160 -115q46 -10 75.5 -22t54 -35t38 -52t23.5 -81t14.5 -113.5t7.5 -157.5q3 -100 17 -142t53 -73h-203q-22 32 -29.5 89t-13.5 224q-4 120 -18.5 171.5t-51.5 82.5 q-31 26 -74 35.5t-132 9.5h-166v-612h-166zM285 741h182q129 0 186 45q84 69 84 205q0 123 -64.5 180.5t-201.5 57.5h-186v-488z" />
<glyph unicode="S" horiz-adv-x="950" d="M47 399v29h170q0 -85 7.5 -129.5t27.5 -79.5q61 -110 209 -110q122 0 188 63t66 178q0 120 -76 185q-30 27 -63 40.5t-199 69.5q-161 54 -234 142t-73 229q0 180 102.5 278.5t290.5 98.5q190 0 286.5 -95.5t96.5 -283.5h-168q-5 131 -54 187t-161 56q-107 0 -165 -56.5 t-58 -162.5q0 -133 108 -202q35 -23 68 -36t184 -63q151 -51 218 -137t67 -229q0 -190 -112 -294t-318 -104q-207 0 -307.5 104.5t-100.5 321.5z" />
<glyph unicode="T" horiz-adv-x="888" d="M16 1221v145h854v-145h-342v-1221h-166v1221h-346z" />
<glyph unicode="U" horiz-adv-x="1013" d="M106 406v49v911h166v-920q0 -146 23 -208q25 -62 78.5 -95.5t128.5 -33.5q172 0 219 151q18 58 18 182v924h166v-922q0 -181 -43 -268q-99 -203 -368 -203q-204 0 -304 127q-44 56 -64 127.5t-20 178.5z" />
<glyph unicode="V" d="M8 1366h178l226 -977q12 -53 26 -139t17 -127h8q9 100 39 266l229 977h172l-342 -1366h-213z" />
<glyph unicode="W" horiz-adv-x="1384" d="M14 1366h170l152 -799q50 -276 55 -415h8q3 124 56 430l139 784h199l145 -815q30 -170 38 -235.5t13 -163.5h8q2 94 60 426l145 788h168l-276 -1366h-207l-150 838q-35 223 -43 360h-8q0 -121 -39 -352l-151 -846h-205z" />
<glyph unicode="X" horiz-adv-x="931" d="M8 0l365 696l-338 670h186l176 -367q66 -140 74 -174q11 53 74 181l178 360h178l-342 -670l365 -696h-187l-223 442q-47 110 -51 133q0 -25 -53 -139l-222 -436h-180z" />
<glyph unicode="Y" horiz-adv-x="903" d="M6 1366h187l202 -504l13 -28q10 -30 17 -53.5t10 -33t5 -16.5t4.5 -14.5t4 -11t2.5 -7.5l2 -10q15 55 26 82l13 38q14 38 18 52l211 506h176l-365 -829v-537h-165v537z" />
<glyph unicode="Z" horiz-adv-x="884" d="M35 0v141l557 975q19 40 67 107q-20 -2 -100 -2h-487v145h759v-154l-552 -962q-42 -72 -68 -111q34 6 145 6h488v-145h-809z" />
<glyph unicode="[" horiz-adv-x="509" d="M113 -342v1708h321v-121h-174v-1466h174v-121h-321z" />
<glyph unicode="\" horiz-adv-x="788" d="M90 1366h131l594 -1708h-131z" />
<glyph unicode="]" horiz-adv-x="509" d="M76 -221h174v1466h-174v121h321v-1708h-321v121z" />
<glyph unicode="^" horiz-adv-x="1024" d="M59 760l351 610h202l351 -610h-166l-287 489l-285 -489h-166z" />
<glyph unicode="_" horiz-adv-x="1024" d="M0 -143h1024v-115h-1024v115z" />
<glyph unicode="`" horiz-adv-x="1024" d="M283 1434h192l131 -273h-121z" />
<glyph unicode="a" horiz-adv-x="843" d="M51 264q0 148 80 225q33 31 75 50t150 49q58 17 88 26t58.5 22t38.5 21.5t19 26t10 33t1 45.5q0 85 -39.5 125.5t-123.5 40.5q-95 0 -136 -48.5t-41 -162.5h-151q0 87 11 134.5t42 86.5q86 111 277 111q108 0 184 -36t108 -102q15 -33 20 -70.5t5 -125.5v-494 q0 -66 12 -89t49 -23q15 0 31 8v-115q-39 -16 -86 -16q-74 0 -111.5 33t-41.5 102q-89 -146 -265 -146q-126 0 -195 75.5t-69 213.5zM213 274q0 -82 37.5 -125t109.5 -43q47 0 93 23.5t77 63.5q25 32 33 67t8 105v79v74q2 20 2 35l2 8q-23 -25 -58 -40.5t-140 -47.5 q-94 -29 -129 -71.5t-35 -127.5z" />
<glyph unicode="b" horiz-adv-x="886" d="M106 0v1366h160v-326q0 -96 -4 -137q82 148 242 148t236.5 -129t76.5 -396q0 -270 -85 -409.5t-249 -139.5q-159 0 -229 152q2 -31 2 -74v-55h-150zM260 518q0 -211 39 -299q49 -110 158 -110q103 0 149.5 99t46.5 318q0 211 -44.5 302.5t-145.5 91.5q-117 0 -170 -127 q-33 -82 -33 -275z" />
<glyph unicode="c" horiz-adv-x="806" d="M72 512q0 275 89 406t275 131q151 0 237 -90.5t89 -251.5h-160q-7 110 -47.5 160.5t-120.5 50.5q-104 0 -151 -95.5t-47 -308.5q0 -218 45 -311.5t151 -93.5q83 0 128 64t46 185h156q-4 -187 -90.5 -284t-247.5 -97q-182 0 -267 129t-85 406z" />
<glyph unicode="d" horiz-adv-x="886" d="M70 516q0 268 71 387q86 148 254 148q159 0 230 -138q-4 40 -4 88v365h159v-1366h-147v53q0 47 2 84q-29 -78 -92 -119t-152 -41q-164 0 -242.5 132t-78.5 407zM233 520q0 -227 43.5 -319t149.5 -92q105 0 154 97.5t49 307.5q0 215 -46.5 309.5t-152.5 94.5t-151.5 -91.5 t-45.5 -306.5z" />
<glyph unicode="e" horiz-adv-x="849" d="M72 514q0 272 89 403.5t275 131.5q247 0 312 -236q30 -104 30 -315h-542q0 -213 45.5 -305.5t150.5 -92.5q81 0 128.5 62t55.5 176h154q-4 -98 -45 -182q-77 -179 -299 -179q-183 0 -268.5 130t-85.5 407zM240 623h372q-5 105 -14 153q-31 150 -164 150q-94 0 -144 -76 t-50 -217v-10z" />
<glyph unicode="f" horiz-adv-x="483" d="M-10 901v125h151q0 153 8.5 200.5t40.5 82.5q32 37 81.5 52t136.5 15q38 0 69 -2v-133q-14 2 -31 2h-39t-31 -2.5t-25 -4t-18 -9.5t-13.5 -13t-8.5 -21t-6 -27t-2.5 -37t-1.5 -45.5v-57.5h176v-125h-176v-901h-160v901h-151z" />
<glyph unicode="g" horiz-adv-x="882" d="M72 514q0 535 327 535q80 0 140.5 -39t91.5 -109q-4 31 -4 94v31h149v-879q0 -147 -7 -204.5t-30 -110.5q-37 -89 -121 -135.5t-206 -46.5q-293 0 -314 252h154q18 -129 164 -129q205 0 205 231v78q0 28 6 68q-49 -78 -105.5 -112t-136.5 -34q-313 0 -313 510zM236 528 q0 -211 43 -302t143 -91q106 0 155.5 96.5t49.5 305.5q0 196 -47.5 288.5t-147.5 92.5q-104 0 -150 -91.5t-46 -298.5z" />
<glyph unicode="h" horiz-adv-x="878" d="M106 0v1366h160v-250q0 -156 -6 -215q88 148 260 148q84 0 144 -39t88 -111q15 -36 19.5 -76t4.5 -125v-698h-160v655q0 129 -14 172q-28 91 -137 91q-55 0 -104.5 -30.5t-75.5 -80.5q-12 -27 -15.5 -48t-3.5 -77v-682h-160z" />
<glyph unicode="i" horiz-adv-x="372" d="M106 0v1026h160v-1026h-160zM106 1178v188h160v-188h-160z" />
<glyph unicode="j" horiz-adv-x="372" d="M-55 -219h32q63 0 88.5 17.5t34.5 64.5q6 25 6 209v954h160v-954q-2 -175 -4 -210.5t-14 -72.5q-23 -73 -83 -107t-165 -34q-30 0 -55 4v129zM106 1178v188h160v-188h-160z" />
<glyph unicode="k" horiz-adv-x="860" d="M106 0v1366h160v-723v-51l-2 -47l8 12q10 17 54 76l303 393h186l-309 -387l362 -639h-186l-285 508l-131 -162v-346h-160z" />
<glyph unicode="l" horiz-adv-x="372" d="M106 0v1366h160v-1366h-160z" />
<glyph unicode="m" horiz-adv-x="1347" d="M106 0v1026h150v-29l-2 -94q89 148 252 148q89 0 145 -39.5t84 -122.5q51 84 112.5 122t145.5 38q78 0 137 -31t87 -86q17 -35 22.5 -79.5t5.5 -141.5v-711h-160v715q0 69 -4 97t-16 50q-35 56 -115 56q-117 0 -176 -111q-12 -27 -15 -46t-3 -75v-686h-160v688 q-3 120 -8 135q-9 44 -43.5 70.5t-85.5 26.5q-57 0 -105 -30.5t-71 -82.5q-17 -41 -17 -123v-684h-160z" />
<glyph unicode="n" horiz-adv-x="878" d="M106 0v1026h150v-35q0 -55 -2 -92q41 71 112 110.5t156 39.5q86 0 148 -41.5t88 -116.5q12 -34 16 -74.5t4 -140.5v-676h-160v645q0 141 -14 184q-14 42 -49.5 65.5t-87.5 23.5q-49 0 -94 -24t-74 -65q-20 -29 -26.5 -56t-6.5 -83v-690h-160z" />
<glyph unicode="o" horiz-adv-x="866" d="M72 520q0 269 90.5 399t279.5 130q186 0 270.5 -128t84.5 -409q0 -280 -89 -407.5t-284 -127.5q-187 0 -269.5 127t-82.5 416zM236 512q0 -221 45.5 -316.5t150.5 -95.5q106 0 153.5 98.5t47.5 319.5t-44.5 314.5t-148.5 93.5q-109 0 -156.5 -96.5t-47.5 -317.5z" />
<glyph unicode="p" horiz-adv-x="884" d="M106 -342v1368h150v-51q0 -59 -4 -84q28 75 91.5 116.5t152.5 41.5q173 0 252 -146q67 -120 67 -368q0 -277 -76 -406q-90 -152 -254 -152q-152 0 -223 136q4 -29 4 -127v-328h-160zM258 532q0 -231 39 -313q50 -110 158 -110q103 0 149.5 99.5t46.5 317.5 q0 211 -43.5 301.5t-146.5 90.5q-120 0 -170 -125q-33 -82 -33 -261z" />
<glyph unicode="q" horiz-adv-x="892" d="M72 504q0 293 86 420q90 125 237 125q174 0 234 -156q-6 52 -6 84v49h163v-1368h-159v330q0 88 2 127q-77 -140 -238 -140q-163 0 -241 130t-78 399zM236 506q0 -215 43.5 -306t146.5 -91q107 0 155 97.5t48 317.5q0 212 -39 291q-52 103 -160 103q-106 0 -150 -94 t-44 -318z" />
<glyph unicode="r" horiz-adv-x="567" d="M106 0v1026h150v-41q0 -82 -4 -133q92 192 258 192q28 0 51 -4v-157q-46 4 -55 4q-124 0 -193 -86q-29 -37 -38 -65.5t-9 -88.5v-647h-160z" />
<glyph unicode="s" horiz-adv-x="761" d="M37 336h149q0 -126 43.5 -181t141.5 -55q86 0 135 44t49 122q0 84 -57 129q-28 22 -54 33t-153 55q-131 46 -185.5 110.5t-54.5 174.5q0 133 85 207t237 74q157 0 232 -75.5t75 -232.5v-14h-152q0 109 -35.5 155t-121.5 46q-78 0 -122 -38t-44 -106q0 -64 35.5 -101.5 t124.5 -68.5q110 -36 155.5 -55.5t83.5 -44.5q105 -69 105 -223q0 -149 -91.5 -231.5t-257.5 -82.5q-172 0 -247.5 84t-75.5 275z" />
<glyph unicode="t" horiz-adv-x="512" d="M-10 901v125h151v287h160v-287h178v-125h-178v-649q0 -84 21.5 -109.5t91.5 -25.5q26 0 65 8v-129q-51 -10 -108 -10q-135 0 -182.5 51.5t-47.5 198.5v665h-151z" />
<glyph unicode="u" horiz-adv-x="882" d="M100 305v33v688h160v-707q0 -116 34 -164.5t116 -48.5q60 0 110 30.5t76 82.5q12 25 15 46t3 87v674h160v-1026h-149v37q0 50 4 86q-107 -148 -267 -148q-134 0 -198 80.5t-64 249.5z" />
<glyph unicode="v" horiz-adv-x="747" d="M6 1026h172l166 -674q30 -124 35 -198h8q3 51 10.5 94.5t32.5 154.5l141 623h168l-266 -1026h-186z" />
<glyph unicode="w" horiz-adv-x="1218" d="M12 1026h168l105 -528q38 -187 46 -237.5t11 -117.5h8q4 45 17 136q34 163 45 231l106 516h189l124 -596q38 -178 43 -287h9q4 53 12 117q11 60 22.5 122.5t12.5 66.5l110 577h166l-239 -1026h-174l-125 539q-51 223 -54 344h-8q-8 -124 -49 -310l-119 -573h-186z" />
<glyph unicode="x" horiz-adv-x="763" d="M6 0l281 530l-271 496h183l149 -303l8 -16q6 -8 13 -27l12 -33l4 -8l4 8q3 9 14 34t17 40l149 305h174l-266 -496l279 -530h-176l-154 305q-30 64 -49 111q-5 -9 -12.5 -28.5t-10.5 -25.5q-13 -30 -35 -75l-141 -287h-172z" />
<glyph unicode="y" horiz-adv-x="747" d="M6 1026h172l164 -635q32 -138 43 -237h8q6 103 35 241l143 631h170l-249 -942q-33 -128 -80 -266q-32 -86 -93.5 -126t-162.5 -40q-5 0 -99 4v133q49 -6 86 -6q52 0 83 23t53 79q23 61 26 97z" />
<glyph unicode="z" horiz-adv-x="714" d="M37 0v125l362 596q55 88 115 178q-33 -2 -117 -2q-65 0 -110 -2h-45h-181v131h623v-131l-367 -604q-39 -63 -104 -160q66 4 201 4h266v-135h-643z" />
<glyph unicode="{" horiz-adv-x="573" d="M35 424v137q63 19 90 62t27 127v337q0 130 47 191q35 47 87 66t154 20l56 2v-129q-115 -3 -156 -47.5t-41 -167.5v-299q0 -97 -25 -148.5t-88 -85.5q63 -35 88 -87.5t25 -149.5v-291q0 -126 40 -171t157 -46v-129q-147 4 -195 16.5t-86 55.5q-63 69 -63 233v309 q0 89 -26 132.5t-91 62.5z" />
<glyph unicode="|" horiz-adv-x="1024" d="M424 -342v1708h178v-1708h-178z" />
<glyph unicode="}" horiz-adv-x="573" d="M78 -256q115 3 154.5 47.5t39.5 169.5v299q0 95 25 146.5t88 85.5q-63 35 -88 88t-25 151v289q0 128 -39.5 172t-154.5 45v129q145 -3 192.5 -15t85.5 -55q64 -70 64 -233v-311q0 -89 26.5 -132.5t92.5 -62.5v-137q-64 -17 -91.5 -60.5t-27.5 -126.5v-339 q0 -128 -47 -189q-36 -48 -88 -67.5t-152 -20.5q-30 0 -55 -2v129z" />
<glyph unicode="~" horiz-adv-x="1366" d="M193 1255q105 238 280 238q77 0 238 -80q85 -43 118.5 -55t67.5 -12q54 0 97 35t87 116l93 -74q-103 -235 -297 -235q-40 0 -82 15.5t-162 76.5q-109 53 -166 53q-53 0 -94.5 -35t-85.5 -116z" />
<glyph unicode="&#xa1;" horiz-adv-x="454" d="M139 35l33 581h107l36 -581v-424h-176v424zM139 795v182h176v-182h-176z" />
<glyph unicode="&#xa2;" d="M102 682q0 158 23 258.5t76 169.5q81 107 211 113v137h104v-137q132 -5 208.5 -95.5t80.5 -248.5h-160q-2 96 -35.5 152.5t-93.5 62.5v-822q128 15 137 254h152q0 -170 -78.5 -274t-210.5 -107v-168h-104v166q-160 9 -235 139.5t-75 399.5zM262 672q0 -195 36 -291.5 t114 -108.5v822q-32 -3 -62 -29t-45 -64q-43 -94 -43 -329z" />
<glyph unicode="&#xa3;" d="M41 117q110 69 174 162.5t64 187.5q0 83 -41 154h-183v106h133l-6 12q-8 12 -26 49q-62 121 -62 232q0 155 105.5 250.5t277.5 95.5q180 0 281.5 -105t101.5 -290h-162q0 127 -57 195.5t-162 68.5q-100 0 -158.5 -55.5t-58.5 -149.5q0 -90 66 -219q23 -36 37 -72l6 -12 h315v-106h-272q28 -67 28 -134q0 -95 -55 -177.5t-188 -186.5q103 53 170 53q42 0 125 -29q80 -28 122 -28q80 0 201 82l72 -131q-87 -55 -147 -76t-128 -21q-33 0 -64.5 8t-100.5 33q-96 37 -158 37q-41 0 -75.5 -12.5t-100.5 -50.5z" />
<glyph unicode="&#xa4;" horiz-adv-x="1366" d="M170 1128l88 89l117 -115q142 110 311 110q86 0 156.5 -24.5t146.5 -81.5l115 111l86 -89l-113 -110q62 -78 87.5 -148.5t25.5 -162.5q0 -91 -24.5 -160.5t-84.5 -145.5l113 -112l-86 -88l-113 112q-75 -59 -148 -84.5t-165 -25.5q-90 0 -161.5 25t-147.5 85l-115 -112 l-86 88l113 112q-58 82 -81.5 150t-23.5 156q0 93 24.5 162.5t82.5 142.5zM319 711q0 -155 107.5 -263t261.5 -108q152 0 259.5 107.5t107.5 259.5q0 150 -107 258t-256 108q-155 0 -264 -105.5t-109 -256.5z" />
<glyph unicode="&#xa5;" d="M25 1337h180l201 -493q7 -14 12 -29q15 -50 18 -59q22 -67 25 -84q19 64 57 170l207 495h172l-248 -563h195v-106h-242l-63 -144v-69h264v-107h-264v-348h-160v348h-260v107h260v69l-64 144h-237v106h190z" />
<glyph unicode="&#xa6;" horiz-adv-x="1024" d="M424 313h178v-655h-178v655zM424 676v690h178v-690h-178z" />
<glyph unicode="&#xa7;" d="M59 594q0 86 44 149.5t141 120.5q-125 86 -125 223q0 128 91.5 203.5t246.5 75.5q146 0 235 -78t88 -205h-164q-2 74 -47.5 116t-124.5 42q-71 0 -114 -38t-43 -101q0 -74 61 -121q39 -29 281 -176q123 -73 174 -143.5t51 -165.5q0 -165 -164 -275q60 -57 85.5 -110.5 t25.5 -122.5q0 -135 -91.5 -218t-242.5 -83q-167 0 -256.5 86t-89.5 247h164q0 -100 45 -151t131 -51q76 0 124 44t48 113q0 75 -55 127q-32 29 -70 54t-250 159q-106 64 -152.5 130t-46.5 149zM213 621q0 -68 63 -121q29 -20 197 -129q79 -52 117 -82q112 71 112 180 q0 78 -65 137q-40 34 -195 129q-44 29 -98 62q-131 -83 -131 -176z" />
<glyph unicode="&#xa8;" horiz-adv-x="1024" d="M281 1223v188h153v-188h-153zM590 1223v188h153v-188h-153z" />
<glyph unicode="&#xa9;" horiz-adv-x="1501" d="M41 688q0 192 96.5 354.5t262.5 256.5t362 94q140 0 269.5 -57t223 -152.5t149.5 -226.5t56 -273q0 -193 -95 -357t-258 -259t-355 -95q-194 0 -358 95.5t-258.5 260t-94.5 359.5zM139 688q0 -126 48.5 -240t130.5 -196.5t195.5 -131t238.5 -48.5q165 0 305.5 82 t222.5 223t82 307q0 122 -48.5 235t-129.5 195t-192 131t-232 49q-279 0 -463 -202q-75 -84 -116.5 -189t-41.5 -215zM494 674q0 207 53 297q65 112 213 112q241 0 244 -252h-117v11v4q-1 69 -34.5 107t-92.5 38q-82 0 -115 -72t-33 -247q0 -161 34 -231t112 -70 q132 0 135 200h117q0 -107 -45 -184q-32 -57 -81 -82.5t-126 -25.5q-140 0 -202 92.5t-62 302.5z" />
<glyph unicode="&#xaa;" horiz-adv-x="563" d="M47 709q0 90 53 137q20 18 46.5 29t99.5 32q93 24 111 38t18 59q0 90 -96 90q-59 0 -82 -27.5t-23 -97.5h-108q0 58 7 87.5t27 55.5q56 68 181 68q143 0 188 -86q10 -20 13 -42t3 -79v-289q0 -36 6.5 -47.5t26.5 -11.5q11 0 27 8v-84q-29 -10 -64 -10q-43 0 -65.5 15 t-34.5 52q-57 -74 -160 -74q-83 0 -128.5 46.5t-45.5 130.5zM164 715q0 -44 22.5 -68t63.5 -24q63 0 100 47q25 35 25 98v47v53q-21 -13 -35 -18t-78 -25q-57 -17 -77.5 -40t-20.5 -70z" />
<glyph unicode="&#xab;" horiz-adv-x="712" d="M68 446v158l266 270v-167l-111 -121q-41 -38 -67 -64q48 -42 69 -63l109 -111v-170zM358 446v158l265 270v-169l-107 -115q-6 -6 -25.5 -24t-46.5 -44q36 -26 64 -57q3 -6 16 -19l99 -100v-170z" />
<glyph unicode="&#xac;" horiz-adv-x="1024" d="M68 416v155h886v-571h-172v416h-714z" />
<glyph unicode="&#xad;" horiz-adv-x="395" d="M0 451v149h395v-149h-395z" />
<glyph unicode="&#xae;" horiz-adv-x="1501" d="M41 688q0 192 96.5 354.5t262.5 256.5t362 94q140 0 269.5 -57t223 -152.5t149.5 -226.5t56 -273q0 -193 -95 -357t-258 -259t-355 -95q-194 0 -358 95.5t-258.5 260t-94.5 359.5zM139 688q0 -126 48.5 -240t130.5 -196.5t195.5 -131t238.5 -48.5q165 0 305.5 82 t222.5 223t82 307q0 122 -48.5 235t-129.5 195t-192 131t-232 49q-279 0 -463 -202q-75 -84 -116.5 -189t-41.5 -215zM514 293v778h234q102 0 153 -29q92 -55 92 -178q0 -68 -24.5 -111.5t-79.5 -72.5q62 -23 80 -68t22 -190q3 -60 14 -85t42 -44h-146q-15 20 -21 53 t-10 129q-5 106 -30.5 133t-122.5 27h-90v-342h-113zM627 723h100q78 0 114 32t36 101q0 63 -36 93t-114 30h-100v-256z" />
<glyph unicode="&#xaf;" horiz-adv-x="1024" d="M258 1268v98h508v-98h-508z" />
<glyph unicode="&#xb0;" horiz-adv-x="753" d="M102 1092q0 114 81 194t196 80q114 0 193 -80t79 -196q0 -113 -80 -193t-192 -80q-115 0 -196 80.5t-81 194.5zM197 1092q0 -75 53 -129t127 -54q72 0 126 53t54 125q0 78 -53 132.5t-129 54.5q-72 0 -125 -54t-53 -128z" />
<glyph unicode="&#xb1;" d="M72 82v117h770v-117h-770zM72 612v117h325v326h117v-326h328v-117h-328v-325h-117v325h-325z" />
<glyph unicode="&#xb2;" horiz-adv-x="616" d="M66 547q1 120 53.5 200.5t202.5 196.5q60 49 83 90.5t23 100.5q0 69 -31 105t-90 36q-127 0 -127 -182h-114q0 139 60.5 205.5t186.5 66.5q112 0 174 -61.5t62 -171.5q0 -111 -66 -183q-29 -30 -54 -52.5t-97 -80.5q-67 -52 -98.5 -91t-43.5 -85q20 2 50 2h315v-96h-489z " />
<glyph unicode="&#xb3;" horiz-adv-x="616" d="M53 780h117q4 -83 34.5 -121t90.5 -38q64 0 99.5 40.5t35.5 114.5q0 94 -59 135q-21 12 -43.5 15.5t-89.5 3.5h-17v84q81 0 113 12q69 25 69 125q0 60 -28 92.5t-80 32.5q-115 0 -115 -154h-114q0 244 231 244q106 0 166.5 -56t60.5 -153q0 -66 -27 -109t-87 -71 q73 -22 107 -68.5t34 -126.5q0 -118 -68 -185t-188 -67q-116 0 -179 65t-63 185z" />
<glyph unicode="&#xb4;" horiz-adv-x="1024" d="M418 1161l133 275h190l-206 -275h-117z" />
<glyph unicode="&#xb5;" horiz-adv-x="888" d="M109 -342v1368h159v-655q0 -94 3.5 -124.5t15.5 -62.5q35 -75 131 -75q60 0 110 30t76 82q13 26 16 46.5t3 84.5v674h159v-1026h-149v37q0 50 4 86q-105 -148 -260 -148q-56 0 -109 31v-348h-159z" />
<glyph unicode="&#xb6;" d="M29 1001q0 102 37.5 184t105.5 128q85 53 238 53h444v-109h-90v-1488h-133v1488h-133v-1488h-133v878q-57 0 -83 4.5t-65 18.5q-88 37 -138 125t-50 206z" />
<glyph unicode="&#xb7;" horiz-adv-x="403" d="M113 426v201h178v-201h-178z" />
<glyph unicode="&#xb8;" horiz-adv-x="1024" d="M336 -356l24 63q68 -22 119 -22q46 0 73.5 20t27.5 55q0 29 -26.5 48.5t-64.5 19.5q-33 0 -65 -14l-29 30l105 156h80l-78 -111q50 9 59 9q65 0 108.5 -37t43.5 -92q0 -71 -59 -114.5t-154 -43.5q-76 0 -164 33z" />
<glyph unicode="&#xb9;" horiz-adv-x="616" d="M96 1147v78q109 0 156 31t53 106h88v-815h-114v600h-183z" />
<glyph unicode="&#xba;" horiz-adv-x="581" d="M55 860q0 163 59.5 241.5t182.5 78.5q120 0 174.5 -77.5t54.5 -246.5t-58 -246.5t-185 -77.5q-120 0 -174 78t-54 250zM172 856q0 -128 27.5 -183t91.5 -55q63 0 91 57t28 183q0 129 -26.5 182.5t-90.5 53.5q-65 0 -93 -55.5t-28 -182.5z" />
<glyph unicode="&#xbb;" horiz-adv-x="712" d="M90 176v170l98 100l11 11l6 8q30 33 63 57q-20 19 -36 34.5t-22.5 21.5t-12.5 12l-107 115v169l264 -270v-158zM381 178v170l108 111q39 39 70 63q-23 20 -67 64l-111 121v167l264 -270v-158z" />
<glyph unicode="&#xbc;" horiz-adv-x="1492" d="M96 1147v78q109 0 156 31t53 106h88v-815h-114v600h-183zM340 0l713 1337h98l-713 -1337h-98zM926 193v100l309 524h115v-528h96v-96h-96v-193h-115v193h-309zM1032 289h58h145v239q3 85 6 113q-20 -30 -31 -55l-143 -244q-13 -21 -35 -53z" />
<glyph unicode="&#xbd;" horiz-adv-x="1492" d="M96 1147v78q109 0 156 31t53 106h88v-815h-114v600h-183zM340 0l713 1337h98l-713 -1337h-98zM942 0q1 120 53.5 200.5t202.5 196.5q60 50 83.5 91.5t23.5 99.5q0 69 -31 105t-90 36q-127 0 -127 -182h-115q2 67 9 103t26 65q62 104 213 104q112 0 173.5 -61t61.5 -172 q0 -112 -65 -183q-43 -45 -152 -133q-67 -52 -98 -91t-43 -85q20 2 49 2h316v-96h-490z" />
<glyph unicode="&#xbe;" horiz-adv-x="1492" d="M53 780h117q4 -83 34.5 -121t90.5 -38q64 0 99.5 40.5t35.5 114.5q0 94 -59 135q-21 12 -43.5 15.5t-89.5 3.5h-17v84q81 0 113 12q69 25 69 125q0 60 -28 92.5t-80 32.5q-115 0 -115 -154h-114q0 244 231 244q106 0 166.5 -56t60.5 -153q0 -66 -27 -109t-87 -71 q73 -22 107 -68.5t34 -126.5q0 -118 -68 -185t-188 -67q-116 0 -179 65t-63 185zM340 0l713 1337h98l-713 -1337h-98zM926 193v100l309 524h115v-528h96v-96h-96v-193h-115v193h-309zM1032 289h58h145v239q3 85 6 113q-20 -30 -31 -55l-143 -244q-13 -21 -35 -53z" />
<glyph unicode="&#xbf;" horiz-adv-x="831" d="M72 -55q0 134 61 229q22 32 38.5 51.5t96.5 104.5q67 76 85 125t18 155h153q1 -107 -12 -165.5t-51 -114t-131 -152.5q-51 -57 -74 -114t-23 -130q0 -101 51.5 -160t139.5 -59q97 0 148 73t51 212h159v-20q0 -185 -95.5 -290.5t-262.5 -105.5q-162 0 -257 97.5t-95 263.5 zM352 795v182h178v-182h-178z" />
<glyph unicode="&#xc0;" horiz-adv-x="1009" d="M8 0l393 1366h224l376 -1366h-180l-96 375h-440l-103 -375h-174zM250 1731h203l143 -242h-125zM319 512h371l-112 442q-54 225 -66 306q-5 -48 -70 -302z" />
<glyph unicode="&#xc1;" horiz-adv-x="1009" d="M8 0l393 1366h224l376 -1366h-180l-96 375h-440l-103 -375h-174zM319 512h371l-112 442q-54 225 -66 306q-5 -48 -70 -302zM414 1489l141 242h205l-221 -242h-125z" />
<glyph unicode="&#xc2;" horiz-adv-x="1009" d="M8 0l393 1366h224l376 -1366h-180l-96 375h-440l-103 -375h-174zM219 1489l209 254h158l205 -254h-168l-121 143l-123 -143h-160zM319 512h371l-112 442q-54 225 -66 306q-5 -48 -70 -302z" />
<glyph unicode="&#xc3;" horiz-adv-x="1009" d="M8 0l393 1366h224l376 -1366h-180l-96 375h-440l-103 -375h-174zM209 1509q12 102 61.5 158.5t126.5 56.5q36 0 61 -7t101 -38q43 -16 66 -16q28 0 44 18.5t25 59.5h107q-4 -94 -54 -153.5t-124 -59.5q-29 0 -50.5 6.5t-103.5 38.5q-53 18 -74 18q-29 0 -52.5 -23.5 t-27.5 -58.5h-106zM319 512h371l-112 442q-54 225 -66 306q-5 -48 -70 -302z" />
<glyph unicode="&#xc4;" horiz-adv-x="1009" d="M8 0l393 1366h224l376 -1366h-180l-96 375h-440l-103 -375h-174zM260 1522v198h162v-198h-162zM319 512h371l-112 442q-54 225 -66 306q-5 -48 -70 -302zM586 1522v198h162v-198h-162z" />
<glyph unicode="&#xc5;" horiz-adv-x="1009" d="M8 0l393 1366h224l376 -1366h-180l-96 375h-440l-103 -375h-174zM307 1647q0 82 58 138t143 56q78 0 135 -58t57 -138q0 -82 -57 -139.5t-139 -57.5t-139.5 58t-57.5 141zM319 512h371l-112 442q-54 225 -66 306q-5 -48 -70 -302zM395 1645q0 -47 31.5 -80t77.5 -33 q44 0 76 33.5t32 79.5t-31.5 79t-74.5 33q-46 0 -78.5 -32.5t-32.5 -79.5z" />
<glyph unicode="&#xc6;" horiz-adv-x="1374" d="M-27 0l525 1366h805v-145h-515v-433h486v-145h-486v-498h531v-145h-696v377h-336l-140 -377h-174zM334 514h289v717h-25z" />
<glyph unicode="&#xc7;" horiz-adv-x="950" d="M78 657q0 368 88 537q51 97 141 148t211 51q191 0 292.5 -110t104.5 -320h-170q0 141 -60.5 217.5t-170.5 76.5q-164 0 -221 -174q-45 -140 -45 -409q0 -301 61.5 -433t202.5 -132q231 0 246 360h168q-9 -237 -108 -364t-277 -130l-64 -90q30 6 60 6q72 0 116.5 -38.5 t44.5 -100.5q0 -72 -62.5 -117t-162.5 -45q-77 0 -172 33l27 70q67 -25 121 -25q51 0 79.5 20.5t28.5 57.5q0 32 -26.5 52t-67.5 20q-33 0 -70 -15l-31 33l95 139q-200 15 -289.5 176.5t-89.5 505.5z" />
<glyph unicode="&#xc8;" horiz-adv-x="901" d="M119 0v1366h704v-145h-538v-435h508v-145h-508v-496h559v-145h-725zM215 1731h205l143 -242h-125z" />
<glyph unicode="&#xc9;" horiz-adv-x="901" d="M119 0v1366h704v-145h-538v-435h508v-145h-508v-496h559v-145h-725zM379 1489l143 242h205l-223 -242h-125z" />
<glyph unicode="&#xca;" horiz-adv-x="901" d="M119 0v1366h704v-145h-538v-435h508v-145h-508v-496h559v-145h-725zM186 1489l207 254h160l205 -254h-170l-119 143l-123 -143h-160z" />
<glyph unicode="&#xcb;" horiz-adv-x="901" d="M119 0v1366h704v-145h-538v-435h508v-145h-508v-496h559v-145h-725zM227 1522v198h162v-198h-162zM553 1522v198h162v-198h-162z" />
<glyph unicode="&#xcc;" horiz-adv-x="405" d="M-53 1731h205l141 -242h-123zM119 0v1366h166v-1366h-166z" />
<glyph unicode="&#xcd;" horiz-adv-x="405" d="M111 1489l143 242h203l-221 -242h-125zM119 0v1366h166v-1366h-166z" />
<glyph unicode="&#xce;" horiz-adv-x="405" d="M-84 1489l209 254h160l202 -254h-168l-120 143l-123 -143h-160zM119 0v1366h166v-1366h-166z" />
<glyph unicode="&#xcf;" horiz-adv-x="405" d="M-8 1522v198h162v-198h-162zM119 0v1366h166v-1366h-166zM250 1522v198h162v-198h-162z" />
<glyph unicode="&#xd0;" horiz-adv-x="1040" d="M-2 674v119h121v573h260q160 0 243.5 -17t145.5 -61q100 -72 147.5 -210t47.5 -357q0 -417 -144 -590q-60 -72 -140 -101.5t-212 -29.5h-348v674h-121zM285 137h147q186 0 256 82q105 126 105 492q0 184 -31.5 294t-99.5 166q-40 32 -100.5 45t-174.5 13h-102v-436h239 v-119h-239v-537z" />
<glyph unicode="&#xd1;" horiz-adv-x="1073" d="M119 0v1366h215l305 -739q113 -276 164 -500h10q-18 137 -18 367v872h159v-1366h-221l-291 719q-65 153 -114.5 299.5t-59.5 222.5h-10q21 -159 21 -383v-858h-160zM240 1509q14 103 63 159t127 56q35 0 61 -7t99 -38q43 -16 65 -16q29 0 45 18t25 60h106 q-4 -94 -54 -153.5t-124 -59.5q-29 0 -49.5 6t-103.5 39q-50 18 -74 18q-29 0 -52.5 -23.5t-27.5 -58.5h-106z" />
<glyph unicode="&#xd2;" horiz-adv-x="1032" d="M78 696q0 358 107.5 527.5t336.5 169.5q226 0 329 -162.5t103 -517.5q0 -393 -104 -566.5t-342 -173.5q-224 0 -327 172.5t-103 550.5zM248 694q0 -313 61.5 -449t202.5 -136q145 0 208.5 133.5t63.5 437.5q0 315 -59.5 446t-204.5 131q-146 0 -209 -130.5t-63 -432.5z M260 1731h205l143 -242h-125z" />
<glyph unicode="&#xd3;" horiz-adv-x="1032" d="M78 696q0 358 107.5 527.5t336.5 169.5q226 0 329 -162.5t103 -517.5q0 -393 -104 -566.5t-342 -173.5q-224 0 -327 172.5t-103 550.5zM248 694q0 -313 61.5 -449t202.5 -136q145 0 208.5 133.5t63.5 437.5q0 315 -59.5 446t-204.5 131q-146 0 -209 -130.5t-63 -432.5z M424 1489l143 242h205l-223 -242h-125z" />
<glyph unicode="&#xd4;" horiz-adv-x="1032" d="M78 696q0 358 107.5 527.5t336.5 169.5q226 0 329 -162.5t103 -517.5q0 -393 -104 -566.5t-342 -173.5q-224 0 -327 172.5t-103 550.5zM229 1489l209 254h160l205 -254h-170l-121 143l-121 -143h-162zM248 694q0 -313 61.5 -449t202.5 -136q145 0 208.5 133.5t63.5 437.5 q0 315 -59.5 446t-204.5 131q-146 0 -209 -130.5t-63 -432.5z" />
<glyph unicode="&#xd5;" horiz-adv-x="1032" d="M78 696q0 358 107.5 527.5t336.5 169.5q226 0 329 -162.5t103 -517.5q0 -393 -104 -566.5t-342 -173.5q-224 0 -327 172.5t-103 550.5zM219 1509q14 103 63.5 159t127.5 56q35 0 60 -7t99 -38q46 -16 68 -16q28 0 43.5 18t24.5 60h108q-6 -94 -56.5 -153.5t-123.5 -59.5 q-29 0 -50.5 6.5t-103.5 38.5q-49 18 -73 18q-29 0 -51.5 -23t-28.5 -59h-107zM248 694q0 -313 61.5 -449t202.5 -136q145 0 208.5 133.5t63.5 437.5q0 315 -59.5 446t-204.5 131q-146 0 -209 -130.5t-63 -432.5z" />
<glyph unicode="&#xd6;" horiz-adv-x="1032" d="M78 696q0 358 107.5 527.5t336.5 169.5q226 0 329 -162.5t103 -517.5q0 -393 -104 -566.5t-342 -173.5q-224 0 -327 172.5t-103 550.5zM248 694q0 -313 61.5 -449t202.5 -136q145 0 208.5 133.5t63.5 437.5q0 315 -59.5 446t-204.5 131q-146 0 -209 -130.5t-63 -432.5z M272 1522v198h162v-198h-162zM598 1522v198h162v-198h-162z" />
<glyph unicode="&#xd7;" d="M113 410l260 260l-260 262l82 82l262 -260l260 260l84 -82l-262 -262l262 -260l-84 -84l-260 262l-262 -262z" />
<glyph unicode="&#xd8;" horiz-adv-x="1032" d="M78 690q0 356 107 529.5t327 173.5q133 0 219 -60q2 11 17 51l30 74l99 -39l-43 -108q-12 -24 -23 -43q69 -56 106 -200t37 -361q0 -308 -61 -474q-44 -125 -141 -192.5t-230 -67.5q-69 0 -131 17t-94 45q-11 -33 -14 -41l-33 -80l-96 41l36 94q11 24 29 55 q-63 51 -102 213.5t-39 372.5zM248 700q0 -253 53 -417q7 32 31 86l317 782q4 8 6 14l13 25l4 10q-54 57 -156 57q-143 0 -205.5 -130t-62.5 -427zM354 172q66 -63 162 -63q142 0 205 134t63 439q0 122 -14 235.5t-37 174.5q-10 -29 -24 -66l-326 -795q-19 -41 -29 -59z" />
<glyph unicode="&#xd9;" horiz-adv-x="1013" d="M106 406v49v911h166v-920q0 -146 23 -208q25 -62 78.5 -95.5t128.5 -33.5q172 0 219 151q18 58 18 182v924h166v-922q0 -181 -43 -268q-99 -203 -368 -203q-204 0 -304 127q-44 56 -64 127.5t-20 178.5zM250 1731h205l143 -242h-125z" />
<glyph unicode="&#xda;" horiz-adv-x="1013" d="M106 406v49v911h166v-920q0 -146 23 -208q25 -62 78.5 -95.5t128.5 -33.5q172 0 219 151q18 58 18 182v924h166v-922q0 -181 -43 -268q-99 -203 -368 -203q-204 0 -304 127q-44 56 -64 127.5t-20 178.5zM414 1489l143 242h205l-223 -242h-125z" />
<glyph unicode="&#xdb;" horiz-adv-x="1013" d="M106 406v49v911h166v-920q0 -146 23 -208q25 -62 78.5 -95.5t128.5 -33.5q172 0 219 151q18 58 18 182v924h166v-922q0 -181 -43 -268q-99 -203 -368 -203q-204 0 -304 127q-44 56 -64 127.5t-20 178.5zM219 1489l209 254h160l205 -254h-170l-119 143l-123 -143h-162z " />
<glyph unicode="&#xdc;" horiz-adv-x="1013" d="M106 406v49v911h166v-920q0 -146 23 -208q25 -62 78.5 -95.5t128.5 -33.5q172 0 219 151q18 58 18 182v924h166v-922q0 -181 -43 -268q-99 -203 -368 -203q-204 0 -304 127q-44 56 -64 127.5t-20 178.5zM262 1522v198h162v-198h-162zM588 1522v198h162v-198h-162z" />
<glyph unicode="&#xdd;" horiz-adv-x="903" d="M6 1366h187l202 -504l13 -28q10 -30 17 -53.5t10 -33t5 -16.5t4.5 -14.5t4 -11t2.5 -7.5l2 -10q15 55 26 82l13 38q14 38 18 52l211 506h176l-365 -829v-537h-165v537zM381 1489l143 242h205l-223 -242h-125z" />
<glyph unicode="&#xde;" horiz-adv-x="935" d="M119 0v1366h166v-223h172q177 0 260 -49q80 -46 123 -135t43 -207q0 -127 -50.5 -221t-142.5 -138q-49 -23 -104.5 -31t-165.5 -8h-135v-354h-166zM285 492h147q75 0 116 8t70 28q95 68 95 222q0 162 -107 225q-57 31 -194 31h-127v-514z" />
<glyph unicode="&#xdf;" horiz-adv-x="907" d="M106 0v991q0 106 15.5 171.5t50.5 111.5q89 115 272 115q156 0 240 -81.5t84 -232.5q0 -237 -197 -293q265 -44 265 -362q0 -114 -39 -213.5t-105 -153.5q-85 -67 -229 -67q-31 0 -74 6v135q34 -10 66 -10q102 0 159.5 81.5t57.5 227.5q0 139 -59.5 213t-172.5 74 q-25 0 -45 -4v129h23q91 0 139.5 58t48.5 165q0 98 -43 151.5t-123 53.5q-121 0 -157 -105q-17 -44 -17 -145v-1016h-160z" />
<glyph unicode="&#xe0;" horiz-adv-x="843" d="M51 264q0 148 80 225q33 31 75 50t150 49q58 17 88 26t58.5 22t38.5 21.5t19 26t10 33t1 45.5q0 85 -39.5 125.5t-123.5 40.5q-95 0 -136 -48.5t-41 -162.5h-151q0 87 11 134.5t42 86.5q86 111 277 111q108 0 184 -36t108 -102q15 -33 20 -70.5t5 -125.5v-494 q0 -66 12 -89t49 -23q15 0 31 8v-115q-39 -16 -86 -16q-74 0 -111.5 33t-41.5 102q-89 -146 -265 -146q-126 0 -195 75.5t-69 213.5zM190 1434h193l131 -273h-119zM213 274q0 -82 37.5 -125t109.5 -43q47 0 93 23.5t77 63.5q25 32 33 67t8 105v79v74q2 20 2 35l2 8 q-23 -25 -58 -40.5t-140 -47.5q-94 -29 -129 -71.5t-35 -127.5z" />
<glyph unicode="&#xe1;" horiz-adv-x="843" d="M51 264q0 148 80 225q33 31 75 50t150 49q58 17 88 26t58.5 22t38.5 21.5t19 26t10 33t1 45.5q0 85 -39.5 125.5t-123.5 40.5q-95 0 -136 -48.5t-41 -162.5h-151q0 87 11 134.5t42 86.5q86 111 277 111q108 0 184 -36t108 -102q15 -33 20 -70.5t5 -125.5v-494 q0 -66 12 -89t49 -23q15 0 31 8v-115q-39 -16 -86 -16q-74 0 -111.5 33t-41.5 102q-89 -146 -265 -146q-126 0 -195 75.5t-69 213.5zM213 274q0 -82 37.5 -125t109.5 -43q47 0 93 23.5t77 63.5q25 32 33 67t8 105v79v74q2 20 2 35l2 8q-23 -25 -58 -40.5t-140 -47.5 q-94 -29 -129 -71.5t-35 -127.5zM328 1161l131 275h192l-207 -275h-116z" />
<glyph unicode="&#xe2;" horiz-adv-x="843" d="M51 264q0 148 80 225q33 31 75 50t150 49q58 17 88 26t58.5 22t38.5 21.5t19 26t10 33t1 45.5q0 85 -39.5 125.5t-123.5 40.5q-95 0 -136 -48.5t-41 -162.5h-151q0 87 11 134.5t42 86.5q86 111 277 111q108 0 184 -36t108 -102q15 -33 20 -70.5t5 -125.5v-494 q0 -66 12 -89t49 -23q15 0 31 8v-115q-39 -16 -86 -16q-74 0 -111.5 33t-41.5 102q-89 -146 -265 -146q-126 0 -195 75.5t-69 213.5zM156 1174l192 274h150l188 -274h-151l-117 169l-119 -169h-143zM213 274q0 -82 37.5 -125t109.5 -43q47 0 93 23.5t77 63.5q25 32 33 67 t8 105v79v74q2 20 2 35l2 8q-23 -25 -58 -40.5t-140 -47.5q-94 -29 -129 -71.5t-35 -127.5z" />
<glyph unicode="&#xe3;" horiz-adv-x="843" d="M51 264q0 148 80 225q33 31 75 50t150 49q58 17 88 26t58.5 22t38.5 21.5t19 26t10 33t1 45.5q0 85 -39.5 125.5t-123.5 40.5q-95 0 -136 -48.5t-41 -162.5h-151q0 87 11 134.5t42 86.5q86 111 277 111q108 0 184 -36t108 -102q15 -33 20 -70.5t5 -125.5v-494 q0 -66 12 -89t49 -23q15 0 31 8v-115q-39 -16 -86 -16q-74 0 -111.5 33t-41.5 102q-89 -146 -265 -146q-126 0 -195 75.5t-69 213.5zM147 1198q12 101 58 156t117 55q32 0 53.5 -7t93.5 -40q46 -19 63 -19q52 0 64 78h98q-4 -91 -51 -150t-113 -59q-27 0 -45 6.5t-98 43.5 q-44 20 -70 20t-46.5 -23.5t-26.5 -60.5h-97zM213 274q0 -82 37.5 -125t109.5 -43q47 0 93 23.5t77 63.5q25 32 33 67t8 105v79v74q2 20 2 35l2 8q-23 -25 -58 -40.5t-140 -47.5q-94 -29 -129 -71.5t-35 -127.5z" />
<glyph unicode="&#xe4;" horiz-adv-x="843" d="M51 264q0 148 80 225q33 31 75 50t150 49q58 17 88 26t58.5 22t38.5 21.5t19 26t10 33t1 45.5q0 85 -39.5 125.5t-123.5 40.5q-95 0 -136 -48.5t-41 -162.5h-151q0 87 11 134.5t42 86.5q86 111 277 111q108 0 184 -36t108 -102q15 -33 20 -70.5t5 -125.5v-494 q0 -66 12 -89t49 -23q15 0 31 8v-115q-39 -16 -86 -16q-74 0 -111.5 33t-41.5 102q-89 -146 -265 -146q-126 0 -195 75.5t-69 213.5zM178 1223v188h154v-188h-154zM213 274q0 -82 37.5 -125t109.5 -43q47 0 93 23.5t77 63.5q25 32 33 67t8 105v79v74q2 20 2 35l2 8 q-23 -25 -58 -40.5t-140 -47.5q-94 -29 -129 -71.5t-35 -127.5zM487 1223v188h154v-188h-154z" />
<glyph unicode="&#xe5;" horiz-adv-x="843" d="M51 264q0 148 80 225q33 31 75 50t150 49q58 17 88 26t58.5 22t38.5 21.5t19 26t10 33t1 45.5q0 85 -39.5 125.5t-123.5 40.5q-95 0 -136 -48.5t-41 -162.5h-151q0 87 11 134.5t42 86.5q86 111 277 111q108 0 184 -36t108 -102q15 -33 20 -70.5t5 -125.5v-494 q0 -66 12 -89t49 -23q15 0 31 8v-115q-39 -16 -86 -16q-74 0 -111.5 33t-41.5 102q-89 -146 -265 -146q-126 0 -195 75.5t-69 213.5zM213 274q0 -82 37.5 -125t109.5 -43q47 0 93 23.5t77 63.5q25 32 33 67t8 105v79v74q2 20 2 35l2 8q-23 -25 -58 -40.5t-140 -47.5 q-94 -29 -129 -71.5t-35 -127.5zM231 1346q0 76 55.5 130t133.5 54q74 0 128 -55.5t54 -131.5t-54.5 -131t-129.5 -55q-78 0 -132.5 55.5t-54.5 133.5zM315 1343q0 -44 30 -75t71 -31q43 0 72.5 31t29.5 75q0 43 -29.5 75t-70.5 32q-43 0 -73 -31.5t-30 -75.5z" />
<glyph unicode="&#xe6;" horiz-adv-x="1292" d="M53 264q0 168 101 240q66 49 284 100q72 17 92.5 45t20.5 111q0 82 -39.5 124t-116.5 42q-91 0 -133 -64q-29 -39 -29 -143h-151v18q0 88 20 145t66 95q81 72 227 72q203 0 262 -140q70 140 242 140q164 0 243 -124.5t79 -385.5q0 -25 -2 -43h-517q0 -163 23 -248 q45 -148 160 -148q73 0 121 65t53 171h153q-11 -169 -97 -264t-230 -95q-103 0 -174 49.5t-99 141.5q-41 -98 -109.5 -144.5t-172.5 -46.5q-134 0 -205.5 74t-71.5 213zM215 272q0 -81 35.5 -123.5t103.5 -42.5q49 0 93.5 23.5t70.5 63.5q33 49 33 147v84v72q2 23 2 32v9 q-30 -26 -182 -70q-86 -26 -121 -69.5t-35 -125.5zM707 621h350q-2 97 -13 153q-15 74 -55.5 113t-101.5 39q-88 0 -134 -78.5t-46 -226.5z" />
<glyph unicode="&#xe7;" horiz-adv-x="806" d="M72 512q0 275 89 406t275 131q151 0 237 -90.5t89 -251.5h-160q-7 110 -47.5 160.5t-120.5 50.5q-104 0 -151 -95.5t-47 -308.5q0 -218 45 -311.5t151 -93.5q83 0 128 64t46 185h156q-3 -175 -84.5 -275.5t-222.5 -105.5l-62 -88l10 2q31 7 48 7q65 0 108 -37t43 -92 q0 -71 -59 -114.5t-154 -43.5q-74 0 -164 33l27 63q61 -22 117 -22q47 0 73.5 20t26.5 55q0 29 -26 48.5t-64 19.5q-35 0 -66 -14l-28 30l90 136q-154 12 -228.5 143t-74.5 389z" />
<glyph unicode="&#xe8;" horiz-adv-x="849" d="M72 514q0 272 89 403.5t275 131.5q247 0 312 -236q30 -104 30 -315h-542q0 -213 45.5 -305.5t150.5 -92.5q81 0 128.5 62t55.5 176h154q-4 -98 -45 -182q-77 -179 -299 -179q-183 0 -268.5 130t-85.5 407zM195 1434h192l131 -273h-119zM240 623h372q-5 105 -14 153 q-31 150 -164 150q-94 0 -144 -76t-50 -217v-10z" />
<glyph unicode="&#xe9;" horiz-adv-x="849" d="M72 514q0 272 89 403.5t275 131.5q247 0 312 -236q30 -104 30 -315h-542q0 -213 45.5 -305.5t150.5 -92.5q81 0 128.5 62t55.5 176h154q-4 -98 -45 -182q-77 -179 -299 -179q-183 0 -268.5 130t-85.5 407zM240 623h372q-5 105 -14 153q-31 150 -164 150q-94 0 -144 -76 t-50 -217v-10zM332 1161l133 275h190l-206 -275h-117z" />
<glyph unicode="&#xea;" horiz-adv-x="849" d="M72 514q0 272 89 403.5t275 131.5q247 0 312 -236q30 -104 30 -315h-542q0 -213 45.5 -305.5t150.5 -92.5q81 0 128.5 62t55.5 176h154q-4 -98 -45 -182q-77 -179 -299 -179q-183 0 -268.5 130t-85.5 407zM160 1174l192 274h150l190 -274h-153l-117 169l-119 -169h-143z M240 623h372q-5 105 -14 153q-31 150 -164 150q-94 0 -144 -76t-50 -217v-10z" />
<glyph unicode="&#xeb;" horiz-adv-x="849" d="M72 514q0 272 89 403.5t275 131.5q247 0 312 -236q30 -104 30 -315h-542q0 -213 45.5 -305.5t150.5 -92.5q81 0 128.5 62t55.5 176h154q-4 -98 -45 -182q-77 -179 -299 -179q-183 0 -268.5 130t-85.5 407zM195 1223v188h153v-188h-153zM240 623h372q-5 105 -14 153 q-31 150 -164 150q-94 0 -144 -76t-50 -217v-10zM504 1223v188h153v-188h-153z" />
<glyph unicode="&#xec;" horiz-adv-x="372" d="M-43 1434h193l131 -273h-121zM109 0v1026h159v-1026h-159z" />
<glyph unicode="&#xed;" horiz-adv-x="372" d="M92 1161l133 275h191l-207 -275h-117zM106 0v1026h160v-1026h-160z" />
<glyph unicode="&#xee;" horiz-adv-x="372" d="M-80 1174l195 274h147l191 -274h-152l-119 169l-119 -169h-143zM106 0v1026h160v-1026h-160z" />
<glyph unicode="&#xef;" horiz-adv-x="372" d="M-14 1223v188h153v-188h-153zM109 0v1026h159v-1026h-159zM236 1223v188h153v-188h-153z" />
<glyph unicode="&#xf0;" horiz-adv-x="866" d="M72 508q0 139 20 231.5t64 161.5q41 65 111 101t155 36q54 0 102 -22l-57 158l-119 -39l-22 67l118 41l-49 131l88 29l62 -131l127 43l22 -68l-119 -39l134 -278q51 -104 69.5 -192.5t18.5 -225.5q0 -280 -87.5 -406t-281.5 -126q-188 0 -272 125t-84 403zM236 514 q0 -220 46 -316t152 -96q105 0 152 98.5t47 319.5q0 215 -44.5 305t-150.5 90q-109 0 -155.5 -93t-46.5 -308z" />
<glyph unicode="&#xf1;" horiz-adv-x="878" d="M106 0v1026h150v-35q0 -55 -2 -92q41 71 112 110.5t156 39.5q86 0 148 -41.5t88 -116.5q12 -34 16 -74.5t4 -140.5v-676h-160v645q0 141 -14 184q-14 42 -49.5 65.5t-87.5 23.5q-49 0 -94 -24t-74 -65q-20 -29 -26.5 -56t-6.5 -83v-690h-160zM170 1198q10 101 55.5 156 t116.5 55q33 0 56 -7t94 -40q46 -19 63 -19q26 0 40.5 19t22.5 59h97q-4 -90 -50.5 -149.5t-111.5 -59.5q-27 0 -45 6.5t-98 43.5q-47 20 -70 20q-28 0 -49 -23.5t-27 -60.5h-94z" />
<glyph unicode="&#xf2;" horiz-adv-x="866" d="M72 520q0 269 90.5 399t279.5 130q186 0 270.5 -128t84.5 -409q0 -280 -89 -407.5t-284 -127.5q-187 0 -269.5 127t-82.5 416zM205 1434h192l131 -273h-120zM236 512q0 -221 45.5 -316.5t150.5 -95.5q106 0 153.5 98.5t47.5 319.5t-44.5 314.5t-148.5 93.5 q-109 0 -156.5 -96.5t-47.5 -317.5z" />
<glyph unicode="&#xf3;" horiz-adv-x="866" d="M72 520q0 269 90.5 399t279.5 130q186 0 270.5 -128t84.5 -409q0 -280 -89 -407.5t-284 -127.5q-187 0 -269.5 127t-82.5 416zM236 512q0 -221 45.5 -316.5t150.5 -95.5q106 0 153.5 98.5t47.5 319.5t-44.5 314.5t-148.5 93.5q-109 0 -156.5 -96.5t-47.5 -317.5z M340 1161l133 275h193l-207 -275h-119z" />
<glyph unicode="&#xf4;" horiz-adv-x="866" d="M72 520q0 269 90.5 399t279.5 130q186 0 270.5 -128t84.5 -409q0 -280 -89 -407.5t-284 -127.5q-187 0 -269.5 127t-82.5 416zM168 1174l194 274h148l190 -274h-151l-117 169l-121 -169h-143zM236 512q0 -221 45.5 -316.5t150.5 -95.5q106 0 153.5 98.5t47.5 319.5 t-44.5 314.5t-148.5 93.5q-109 0 -156.5 -96.5t-47.5 -317.5z" />
<glyph unicode="&#xf5;" horiz-adv-x="866" d="M72 520q0 269 90.5 399t279.5 130q186 0 270.5 -128t84.5 -409q0 -280 -89 -407.5t-284 -127.5q-187 0 -269.5 127t-82.5 416zM162 1198q12 101 56.5 156t115.5 55q33 0 55 -7t94 -40q46 -19 64 -19q26 0 40.5 19t22.5 59h97q-5 -91 -50.5 -150t-111.5 -59q-27 0 -46 6.5 t-98 43.5q-44 20 -69 20q-28 0 -49 -23.5t-27 -60.5h-94zM236 512q0 -221 45.5 -316.5t150.5 -95.5q106 0 153.5 98.5t47.5 319.5t-44.5 314.5t-148.5 93.5q-109 0 -156.5 -96.5t-47.5 -317.5z" />
<glyph unicode="&#xf6;" horiz-adv-x="866" d="M72 520q0 269 90.5 399t279.5 130q186 0 270.5 -128t84.5 -409q0 -280 -89 -407.5t-284 -127.5q-187 0 -269.5 127t-82.5 416zM203 1223v188h153v-188h-153zM236 512q0 -221 45.5 -316.5t150.5 -95.5q106 0 153.5 98.5t47.5 319.5t-44.5 314.5t-148.5 93.5 q-109 0 -156.5 -96.5t-47.5 -317.5zM512 1223v188h154v-188h-154z" />
<glyph unicode="&#xf7;" d="M72 612v117h770v-117h-770zM362 369q0 38 27.5 65t67.5 27q37 0 63.5 -27.5t26.5 -64.5q0 -38 -27 -65.5t-65 -27.5t-65.5 27.5t-27.5 65.5zM362 971q0 38 27.5 65t67.5 27q37 0 63.5 -27.5t26.5 -64.5q0 -38 -27 -65t-65 -27t-65.5 27t-27.5 65z" />
<glyph unicode="&#xf8;" horiz-adv-x="868" d="M72 504q0 278 89.5 411.5t276.5 133.5q106 0 160 -33q6 24 12 39l35 82l90 -39l-41 -101l-6 -12q-8 -14 -12 -22q32 -21 61 -78q62 -121 62 -373q0 -275 -88.5 -405t-276.5 -130q-117 0 -162 29q-2 -3 -12 -31l-39 -90l-90 39l43 99q1 1 1.5 2.5t3.5 7t7 12.5l4 10l5 6 q-22 11 -62 86q-61 122 -61 357zM236 510q0 -193 38 -285q2 17 21 60l229 561q0 2 8 18q3 7 13 27q-38 35 -109 35q-106 0 -153 -98t-47 -318zM324 137q46 -37 110 -37q106 0 153.5 97t47.5 315q0 171 -37 295q-1 -4 -16 -49l-238 -578q-4 -7 -11 -23.5t-9 -19.5z" />
<glyph unicode="&#xf9;" horiz-adv-x="882" d="M100 305v33v688h160v-707q0 -116 34 -164.5t116 -48.5q60 0 110 30.5t76 82.5q12 25 15 46t3 87v674h160v-1026h-149v37q0 50 4 86q-107 -148 -267 -148q-134 0 -198 80.5t-64 249.5zM207 1434h192l131 -273h-118z" />
<glyph unicode="&#xfa;" horiz-adv-x="882" d="M100 305v33v688h160v-707q0 -116 34 -164.5t116 -48.5q60 0 110 30.5t76 82.5q12 25 15 46t3 87v674h160v-1026h-149v37q0 50 4 86q-107 -148 -267 -148q-134 0 -198 80.5t-64 249.5zM344 1161l133 275h191l-207 -275h-117z" />
<glyph unicode="&#xfb;" horiz-adv-x="882" d="M100 305v33v688h160v-707q0 -116 34 -164.5t116 -48.5q60 0 110 30.5t76 82.5q12 25 15 46t3 87v674h160v-1026h-149v37q0 50 4 86q-107 -148 -267 -148q-134 0 -198 80.5t-64 249.5zM172 1174l193 274h149l188 -274h-151l-117 169l-119 -169h-143z" />
<glyph unicode="&#xfc;" horiz-adv-x="882" d="M100 305v33v688h160v-707q0 -116 34 -164.5t116 -48.5q60 0 110 30.5t76 82.5q12 25 15 46t3 87v674h160v-1026h-149v37q0 50 4 86q-107 -148 -267 -148q-134 0 -198 80.5t-64 249.5zM207 1223v188h153v-188h-153zM516 1223v188h154v-188h-154z" />
<glyph unicode="&#xfd;" horiz-adv-x="747" d="M6 1026h172l164 -635q32 -138 43 -237h8q6 103 35 241l143 631h170l-249 -942q-33 -128 -80 -266q-32 -86 -93.5 -126t-162.5 -40q-5 0 -99 4v133q49 -6 86 -6q52 0 83 23t53 79q23 61 26 97zM301 1161l133 275h191l-207 -275h-117z" />
<glyph unicode="&#xfe;" horiz-adv-x="884" d="M106 -344v1710h160v-391q0 -53 -4 -76q28 72 89 112t145 40q85 0 150 -38t102 -108q67 -123 67 -370q0 -277 -76 -406q-90 -152 -254 -152q-152 0 -223 136q4 -29 4 -127v-330h-160zM258 532q0 -231 39 -313q50 -110 158 -110q103 0 149.5 99.5t46.5 319.5 q0 211 -43.5 301.5t-146.5 90.5q-120 0 -170 -125q-33 -82 -33 -263z" />
<glyph unicode="&#xff;" horiz-adv-x="747" d="M6 1026h172l164 -635q32 -138 43 -237h8q6 103 35 241l143 631h170l-249 -942q-33 -128 -80 -266q-32 -86 -93.5 -126t-162.5 -40q-5 0 -99 4v133q49 -6 86 -6q52 0 83 23t53 79q23 61 26 97zM143 1223v188h154v-188h-154zM453 1223v188h153v-188h-153z" />
<glyph unicode="&#x152;" horiz-adv-x="1515" d="M78 696q0 352 104 524.5t316 172.5q98 0 172.5 -36t111.5 -102q-1 11 -2 23.5t-1.5 20t-0.5 14.5v41v12h664v-145h-506v-435h473v-145h-473v-496h522v-145h-680q0 82 4 121q-77 -148 -274 -148q-221 0 -325.5 175t-104.5 548zM248 702q0 -281 47 -417q63 -176 233 -176 q72 0 130.5 34t78.5 88q20 56 28.5 153.5t8.5 283.5v112q0 223 -22 316q-22 83 -74.5 122t-142.5 39q-152 0 -219.5 -130.5t-67.5 -424.5z" />
<glyph unicode="&#x153;" horiz-adv-x="1372" d="M72 510q0 274 90 406.5t276 132.5q203 0 273 -172q34 84 103.5 128t166.5 44q117 0 193 -64.5t102 -187.5q27 -123 27 -299h-521q-1 -198 46 -299t139 -101q74 0 120.5 64t53.5 176h151q-6 -107 -45 -186q-85 -177 -284 -177q-198 0 -263 175q-35 -83 -108 -128t-174 -45 q-177 0 -261.5 131t-84.5 402zM236 514q0 -222 45 -311q53 -103 151 -103q103 0 151 101.5t48 316.5q0 221 -44.5 314.5t-148.5 93.5q-106 0 -154 -98.5t-48 -313.5zM784 623h353l2 12q0 138 -44.5 214.5t-125.5 76.5q-124 0 -168 -160q-17 -66 -17 -143z" />
<glyph unicode="&#x178;" horiz-adv-x="903" d="M6 1366h187l202 -504l13 -28q10 -30 17 -53.5t10 -33t5 -16.5t4.5 -14.5t4 -11t2.5 -7.5l2 -10q15 55 26 82l13 38q14 38 18 52l211 506h176l-365 -829v-537h-165v537zM209 1522v198h162v-198h-162zM535 1522v198h161v-198h-161z" />
<glyph unicode="&#x2c6;" horiz-adv-x="1024" d="M246 1174l194 274h148l190 -274h-151l-119 169l-119 -169h-143z" />
<glyph unicode="&#x2dc;" horiz-adv-x="1001" d="M227 1198q12 101 57 156t117 55q32 0 54.5 -7t93.5 -40q46 -19 63 -19q52 0 64 78h98q-6 -91 -52 -150t-112 -59q-27 0 -45 6.5t-98 43.5q-44 20 -70 20t-46.5 -23.5t-26.5 -60.5h-97z" />
<glyph unicode="&#x2000;" horiz-adv-x="920" />
<glyph unicode="&#x2001;" horiz-adv-x="1841" />
<glyph unicode="&#x2002;" horiz-adv-x="920" />
<glyph unicode="&#x2003;" horiz-adv-x="1841" />
<glyph unicode="&#x2004;" horiz-adv-x="613" />
<glyph unicode="&#x2005;" horiz-adv-x="460" />
<glyph unicode="&#x2006;" horiz-adv-x="306" />
<glyph unicode="&#x2007;" horiz-adv-x="306" />
<glyph unicode="&#x2008;" horiz-adv-x="230" />
<glyph unicode="&#x2009;" horiz-adv-x="368" />
<glyph unicode="&#x200a;" horiz-adv-x="102" />
<glyph unicode="&#x2010;" horiz-adv-x="395" d="M0 451v149h395v-149h-395z" />
<glyph unicode="&#x2011;" horiz-adv-x="395" d="M0 451v149h395v-149h-395z" />
<glyph unicode="&#x2012;" horiz-adv-x="395" d="M0 451v149h395v-149h-395z" />
<glyph unicode="&#x2013;" d="M100 451v149h711v-149h-711z" />
<glyph unicode="&#x2014;" horiz-adv-x="1138" d="M0 451v149h1139v-149h-1139z" />
<glyph unicode="&#x2018;" horiz-adv-x="403" d="M113 907v140q0 169 37 241.5t141 104.5v-90q-51 -23 -68.5 -63t-17.5 -132h86v-201h-178z" />
<glyph unicode="&#x2019;" horiz-adv-x="403" d="M113 881v92q51 23 68.5 61.5t17.5 130.5h-86v201h178v-139q0 -169 -37 -240.5t-141 -105.5z" />
<glyph unicode="&#x201a;" horiz-adv-x="403" d="M113 0v201h178v-140q0 -169 -37 -240.5t-141 -105.5v92q51 23 68.5 62t17.5 131h-86z" />
<glyph unicode="&#x201c;" horiz-adv-x="704" d="M113 907v140q0 169 37 241.5t141 104.5v-90q-51 -23 -68.5 -63t-17.5 -132h86v-201h-178zM416 907v140q0 169 37 241.5t141 104.5v-90q-51 -23 -68.5 -63t-17.5 -132h86v-201h-178z" />
<glyph unicode="&#x201d;" horiz-adv-x="704" d="M113 881v92q51 23 68.5 61.5t17.5 130.5h-86v201h178v-139q0 -169 -37 -240.5t-141 -105.5zM416 881v92q51 23 68.5 61.5t17.5 130.5h-86v201h178v-139q0 -169 -37 -240.5t-141 -105.5z" />
<glyph unicode="&#x201e;" horiz-adv-x="704" d="M113 0v201h178v-140q0 -169 -37 -240.5t-141 -105.5v92q51 23 68.5 62t17.5 131h-86zM416 0v201h178v-140q0 -169 -37 -240.5t-141 -105.5v92q51 23 68.5 62t17.5 131h-86z" />
<glyph unicode="&#x2022;" horiz-adv-x="1366" d="M401 692q0 120 83.5 202.5t205.5 82.5q114 0 196.5 -83.5t82.5 -199.5q0 -118 -83 -201t-200 -83t-201 82.5t-84 199.5z" />
<glyph unicode="&#x2026;" horiz-adv-x="1208" d="M113 0v201h178v-201h-178zM516 0v201h178v-201h-178zM920 0v201h178v-201h-178z" />
<glyph unicode="&#x202f;" horiz-adv-x="368" />
<glyph unicode="&#x2039;" horiz-adv-x="421" d="M68 449v153l264 270v-167l-129 -136q-2 -4 -49 -47q23 -16 57 -53l121 -123v-168z" />
<glyph unicode="&#x203a;" horiz-adv-x="421" d="M90 178v168l121 123q34 37 57 53q-47 43 -49 47l-129 136v167l264 -270v-153z" />
<glyph unicode="&#x205f;" horiz-adv-x="460" />
<glyph unicode="&#x20ac;" d="M2 539l27 90h92v45q0 37 2 78h-121l27 90h96q9 126 26.5 207t49.5 147q92 197 317 197q161 0 262 -93q50 -46 71.5 -107t27.5 -171h-152q-2 113 -55 174t-150 61q-111 0 -162.5 -93.5t-64.5 -321.5h379l-27 -90h-354q-2 -31 -2 -76v-47h317l-26 -90h-287 q7 -226 60.5 -328t162.5 -102q89 0 135 67t54 207h151q-9 -121 -29.5 -187t-66.5 -122q-46 -53 -105 -77t-145 -24q-190 0 -282.5 135t-106.5 431h-121z" />
<glyph unicode="&#x2122;" horiz-adv-x="1427" d="M20 1270v96h527v-96h-207v-682h-113v682h-207zM625 588v778h174l86 -303q52 -186 80 -326q3 67 53 240l104 389h174v-778h-108v542q0 60 6 107v25q-3 -35 -66 -250l-116 -424h-103l-121 430l-6 26q-18 64 -28 109q-6 12 -25 109q4 -122 4 -177v-497h-108z" />
<glyph unicode="&#x25fc;" horiz-adv-x="1024" d="M0 0v1024h1024v-1024h-1024z" />
</font>
</defs>
</svg>
