<?xml version="1.0" standalone="no"?>
<!DOCTYPE svg PUBLIC "-//W3C//DTD SVG 1.1//EN" "http://www.w3.org/Graphics/SVG/1.1/DTD/svg11.dtd" >
<svg xmlns="http://www.w3.org/2000/svg">
<metadata></metadata>
<defs>
<font id="nimbus_sans_novus_condSBd" horiz-adv-x="942" >
<font-face units-per-em="2048" ascent="1366" descent="-682" />
<missing-glyph horiz-adv-x="512" />
<glyph unicode="&#xfb01;" horiz-adv-x="915" d="M-8 877v151h143q0 162 8 197q19 85 82.5 121t194.5 36q51 0 88 -4v-155h-33h-43.5t-32 -4t-24.5 -7t-15.5 -16t-10.5 -22.5t-4.5 -35.5t-2.5 -46.5v-63.5h166v-151h-166v-877h-207v877h-143zM608 0v1028h207v-1028h-207zM608 1163v207h207v-207h-207z" />
<glyph unicode="&#xfb02;" horiz-adv-x="915" d="M-8 877v151h143q0 162 8 197q19 85 82.5 121t194.5 36q51 0 88 -4v-155h-33h-43.5t-32 -4t-24.5 -7t-15.5 -16t-10.5 -22.5t-4.5 -35.5t-2.5 -46.5v-63.5h166v-151h-166v-877h-207v877h-143zM608 0v1366h207v-1366h-207z" />
<glyph unicode="&#xfb03;" horiz-adv-x="1388" d="M-8 877v151h143q0 162 8 197q19 85 82.5 121t194.5 36q51 0 88 -4v-155h-33h-43.5t-32 -4t-24.5 -7t-15.5 -16t-10.5 -22.5t-4.5 -35.5t-2.5 -46.5v-63.5h268q0 162 8 197q19 85 82.5 121t194.5 36q51 0 86 -4v-155h-31h-43.5t-32 -4t-24.5 -7t-15.5 -16t-10.5 -22.5 t-4.5 -35.5t-2.5 -46.5v-63.5h164v-151h-164v-877h-207v877h-268v-877h-207v877h-143zM1083 0v1028h207v-1028h-207zM1083 1163v207h207v-207h-207z" />
<glyph unicode="&#xfb04;" horiz-adv-x="1388" d="M-8 877v151h143q0 162 8 197q19 85 82.5 121t194.5 36q51 0 88 -4v-155h-33h-43.5t-32 -4t-24.5 -7t-15.5 -16t-10.5 -22.5t-4.5 -35.5t-2.5 -46.5v-63.5h268q0 162 8 197q19 85 82.5 121t194.5 36q51 0 86 -4v-155h-31h-43.5t-32 -4t-24.5 -7t-15.5 -16t-10.5 -22.5 t-4.5 -35.5t-2.5 -46.5v-63.5h164v-151h-164v-877h-207v877h-268v-877h-207v877h-143zM1083 0v1366h207v-1366h-207z" />
<glyph horiz-adv-x="2048" />
<glyph horiz-adv-x="2048" />
<glyph unicode="&#xd;" horiz-adv-x="2048" />
<glyph unicode=" "  horiz-adv-x="512" />
<glyph unicode="&#x09;" horiz-adv-x="512" />
<glyph unicode="&#xa0;" horiz-adv-x="512" />
<glyph unicode="!" horiz-adv-x="481" d="M133 0v213h217v-213h-217zM133 934v432h217v-432l-35 -563h-147z" />
<glyph unicode="&#x22;" horiz-adv-x="802" d="M88 1366h264l-43 -547h-180zM451 1366h262l-41 -547h-180z" />
<glyph unicode="#" d="M53 455l15 127h172l22 202h-174l12 129h174l33 304h131l-32 -304h165l33 304h131l-33 -304h187l-12 -129h-187l-22 -202h186l-12 -127h-187l-34 -334h-132l35 334h-168l-34 -334h-129l34 334h-174zM371 582h166l22 202h-168z" />
<glyph unicode="$" d="M39 389v27h205q-4 -136 37.5 -203.5t136.5 -79.5v467q-133 49 -167 67q-5 2 -11 5q-183 100 -183 317q0 171 91.5 266.5t269.5 108.5v135h88v-135q169 -9 256 -106.5t84 -274.5h-201q-2 106 -34 156.5t-105 62.5v-424q123 -44 150.5 -55.5t68.5 -36.5q158 -91 158 -311 q0 -186 -93 -285.5t-284 -116.5v-176h-88v176q-200 11 -289.5 109t-89.5 307zM264 1018q0 -74 36 -122t118 -83v389q-55 -9 -88 -33q-66 -50 -66 -151zM506 137q85 17 123.5 68t38.5 143q0 86 -34.5 132.5t-127.5 86.5v-430z" />
<glyph unicode="%" horiz-adv-x="1454" d="M74 981q0 207 58.5 291t203.5 84q143 0 200.5 -81.5t57.5 -285.5q0 -201 -60 -283.5t-208 -82.5q-138 0 -195 80.5t-57 277.5zM236 975q0 -135 20 -183.5t76 -48.5q58 0 78 50.5t20 197.5q0 145 -19.5 194.5t-76.5 49.5q-58 0 -78 -53t-20 -207zM350 -31l602 1401h146 l-602 -1401h-146zM860 340q0 207 58.5 291t201.5 84q145 0 202.5 -81.5t57.5 -285.5q0 -200 -60 -282t-208 -82q-138 0 -195 80t-57 276zM1022 340q0 -139 19.5 -187.5t76.5 -48.5q58 0 78.5 51t20.5 197q0 141 -20 191.5t-77 50.5t-77.5 -53t-20.5 -201z" />
<glyph unicode="&#x26;" horiz-adv-x="1140" d="M61 354q0 171 140 308q39 36 137 108q-91 136 -116 191t-25 122q0 124 88 201.5t229 77.5q142 0 225.5 -74.5t83.5 -200.5q0 -132 -110 -239q-32 -32 -125 -100l239 -336q19 28 34.5 100t17.5 135h188q1 -93 -35.5 -211.5t-87.5 -187.5l178 -248h-233l-84 121 q-128 -146 -342 -146q-180 0 -291 104.5t-111 274.5zM270 373q0 -97 65.5 -162.5t162.5 -65.5q124 0 213 115l-271 381q-91 -67 -130.5 -130t-39.5 -138zM381 1096q0 -78 111 -222q87 73 117 117.5t30 100.5q0 58 -34 91.5t-93 33.5q-60 0 -95.5 -33t-35.5 -88z" />
<glyph unicode="'" horiz-adv-x="440" d="M88 1366h264l-43 -547h-180z" />
<glyph unicode="(" horiz-adv-x="548" d="M61 512q0 224 67 430.5t210 423.5h141q-119 -218 -169 -414t-50 -440q0 -243 50 -438.5t169 -415.5h-141q-134 198 -205.5 419t-71.5 435z" />
<glyph unicode=")" horiz-adv-x="548" d="M68 -342q121 220 171 414.5t50 439.5q0 243 -50.5 438.5t-170.5 415.5h141q135 -201 206.5 -420.5t71.5 -433.5q0 -224 -66.5 -429t-211.5 -425h-141z" />
<glyph unicode="*" d="M147 1085l43 125l136 -49q63 -26 88 -41q-4 54 -4 113v133h129v-133q0 -50 -9 -111q30 17 82 35l140 51l45 -118l-138 -50q-56 -19 -86 -26q56 -62 70 -80l82 -111l-104 -78l-84 111q-41 53 -62 94q-58 -90 -61 -94l-82 -111l-105 80l80 107q50 62 72 82q-60 14 -90 24z " />
<glyph unicode="+" d="M68 596v149h327v328h150v-328h329v-149h-329v-330h-150v330h-327z" />
<glyph unicode="," horiz-adv-x="425" d="M104 0v248h215v-160q0 -115 -9.5 -172.5t-35.5 -103.5q-47 -85 -170 -107v109q56 19 75.5 57t19.5 129h-95z" />
<glyph unicode="-" horiz-adv-x="409" d="M0 455v186h410v-186h-410z" />
<glyph unicode="." horiz-adv-x="425" d="M104 0v248h215v-248h-215z" />
<glyph unicode="/" horiz-adv-x="782" d="M-41 -342l580 1708h168l-580 -1708h-168z" />
<glyph unicode="0" d="M68 655q0 322 49 459q95 252 360 252q225 0 322 -178q78 -138 78 -483q0 -304 -48 -465q-77 -267 -374 -267q-124 0 -209.5 60t-126.5 176q-28 80 -39.5 180.5t-11.5 265.5zM287 616q0 -191 16.5 -295t54.5 -149t107 -45q48 0 79.5 16t54.5 52t35 104t17.5 161.5 t5.5 235.5q0 204 -16.5 313t-55 156t-110.5 47q-129 0 -166 -178q-22 -94 -22 -418z" />
<glyph unicode="1" d="M127 993v142q163 0 242 52.5t96 172.5h158v-1360h-215v895v16v33v39v10h-25h-72h-82h-77h-25z" />
<glyph unicode="2" d="M70 0q4 140 38.5 237t116.5 196t248 245q93 85 126.5 149.5t33.5 159.5q0 225 -174 225q-92 0 -136 -70t-44 -218h-207q0 183 57 278q100 164 340 164q187 0 285 -98t98 -285q0 -184 -102 -307q-36 -44 -75 -81t-155 -138q-97 -84 -139 -140.5t-76 -148.5q27 6 94 6h461 v-174h-790z" />
<glyph unicode="3" d="M63 383h207q6 -131 51.5 -193.5t135.5 -62.5q91 0 139.5 65t48.5 187q0 156 -84 219q-24 20 -63 27.5t-115 7.5q-21 0 -41 -2v147h29q129 0 178 43q63 57 63 191q0 98 -41.5 149t-119.5 51q-168 0 -168 -241h-203q3 395 377 395q175 0 270.5 -91t95.5 -257 q0 -121 -57 -202.5t-154 -100.5q123 -17 187.5 -100t64.5 -224q0 -187 -98 -297q-106 -121 -317 -121q-187 0 -286.5 106t-99.5 304z" />
<glyph unicode="4" d="M55 309v187l469 862h224v-877h143v-172h-143v-309h-205v309h-488zM223 477q10 4 103 4h219v391q0 1 4 111q2 64 12 133q-18 -47 -76 -166l-200 -370q-41 -77 -62 -103z" />
<glyph unicode="5" d="M66 367h208v-13q-2 -42 10 -87.5t35 -76.5q41 -63 132 -63q93 0 142.5 83t49.5 239q0 292 -192 292q-63 0 -107 -32t-61 -91l-191 9l62 710h653v-174h-490l-22 -221q-9 -71 -23 -151q35 54 97.5 83t142.5 29q169 0 259.5 -116.5t90.5 -335.5q0 -232 -105 -355t-306 -123 q-382 0 -385 394z" />
<glyph unicode="6" d="M66 637q0 205 18 328t61 202q103 199 351 199q166 0 258 -86t96 -246h-211q-1 85 -41.5 130.5t-114.5 45.5q-109 0 -155 -106q-29 -74 -45 -266q-2 -39 -5 -70.5t-4 -40.5q88 152 269 152q166 0 254 -110.5t88 -319.5q0 -231 -105.5 -353.5t-304.5 -122.5 q-227 0 -325 168q-84 142 -84 496zM295 449q0 -158 46.5 -240t137.5 -82t139 76.5t48 222.5q0 287 -189 287q-89 0 -135.5 -67.5t-46.5 -196.5z" />
<glyph unicode="7" d="M66 1147v190h802v-172q-174 -241 -286 -548t-140 -617h-229q26 296 156.5 622.5t304.5 532.5q-39 -8 -142 -8h-466z" />
<glyph unicode="8" d="M63 377q0 145 60 234.5t174 117.5q-40 8 -86 43q-109 87 -109 246q0 164 97 256t270 92q177 0 274 -90t97 -254q0 -114 -51.5 -193.5t-139.5 -99.5q110 -25 170 -115.5t60 -232.5q0 -198 -105.5 -303t-302.5 -105t-302.5 104.5t-105.5 299.5zM283 389q0 -266 190 -266 q186 0 186 264q0 258 -190 258q-91 0 -138.5 -65.5t-47.5 -190.5zM313 1008q0 -101 41.5 -155t116.5 -54t116.5 54.5t41.5 152.5q0 101 -40.5 153.5t-117.5 52.5t-117.5 -52t-40.5 -152z" />
<glyph unicode="9" d="M57 895q0 226 108 348.5t306 122.5q226 0 326 -168q80 -140 80 -498q0 -201 -18 -322t-58 -200q-109 -205 -355 -205q-166 0 -257.5 86t-94.5 244h209q1 -85 41.5 -130.5t112.5 -45.5q101 0 144.5 82t57.5 293q5 84 11 119q-79 -160 -264 -160q-169 0 -259 111.5 t-90 322.5zM276 911q0 -140 48 -212t141 -72q89 0 135.5 67.5t46.5 196.5q0 321 -184 321q-91 0 -139 -77.5t-48 -223.5z" />
<glyph unicode=":" horiz-adv-x="425" d="M104 0v248h215v-248h-215zM104 733v248h215v-248h-215z" />
<glyph unicode=";" horiz-adv-x="425" d="M104 0v248h215v-160q0 -115 -9.5 -172.5t-35.5 -103.5q-47 -85 -170 -107v109q56 19 75.5 57t19.5 129h-95zM104 733v248h215v-248h-215z" />
<glyph unicode="&#x3c;" horiz-adv-x="1024" d="M68 588v200l886 445v-238l-635 -307l635 -309v-236z" />
<glyph unicode="=" d="M68 442v150h806v-150h-806zM68 748v149h806v-149h-806z" />
<glyph unicode="&#x3e;" horiz-adv-x="1024" d="M70 143v238l635 307l-635 309v236l886 -445v-200z" />
<glyph unicode="?" horiz-adv-x="854" d="M45 965v18q0 197 96.5 303.5t276.5 106.5q172 0 270 -97.5t98 -267.5q0 -129 -57 -223q-20 -32 -37 -52t-96 -108q-66 -75 -83 -121t-19 -149h-193q-2 148 21.5 215t109.5 162q64 70 79 88t30 45q39 70 39 159q0 91 -44 143t-120 52q-170 0 -170 -274h-201zM293 0v213 h217v-213h-217z" />
<glyph unicode="@" horiz-adv-x="1472" d="M104 668q0 143 53.5 272.5t144 222.5t216 148t264.5 55q161 0 294 -73.5t209.5 -201.5t76.5 -282q0 -127 -54.5 -243.5t-145 -186.5t-189.5 -70q-105 0 -144 105q-45 -51 -86 -74t-92 -23q-98 0 -159.5 79.5t-61.5 207.5q0 170 90 297t211 127q61 0 100 -25.5t68 -84.5 l23 88h122l-96 -449q-14 -61 -14 -88q0 -80 63 -80q76 0 164 98q115 137 115 316q0 206 -143 344.5t-355 138.5q-162 0 -296 -81.5t-211.5 -223t-77.5 -311.5t77.5 -312t212.5 -223.5t297 -81.5q142 0 267.5 73t205.5 202h88q-32 -67 -65 -109t-92 -92q-186 -152 -406 -152 q-184 0 -339.5 92.5t-245 252t-89.5 348.5zM565 555q0 -74 29 -116t80 -42q91 0 143 170q20 66 34.5 139t14.5 103q0 60 -27 95.5t-71 35.5q-79 0 -135 -115q-25 -55 -46.5 -139t-21.5 -131z" />
<glyph unicode="A" horiz-adv-x="1032" d="M4 0l379 1366h281l366 -1366h-231l-84 336h-396l-88 -336h-227zM354 512h326l-100 408q-3 14 -13.5 66.5t-17.5 88.5q-23 115 -27 142h-4q-6 -51 -26 -140q-3 -13 -8 -35t-8.5 -39t-6.5 -32q-2 -8 -4.5 -19t-4 -17.5t-1.5 -8.5z" />
<glyph unicode="B" horiz-adv-x="1024" d="M111 0v1366h346q117 0 171.5 -6t98.5 -23q88 -35 138 -119t50 -194q0 -117 -52 -194.5t-152 -106.5q121 -25 185.5 -110t64.5 -220q0 -119 -48 -209t-137 -137q-86 -47 -260 -47h-405zM328 166h102q95 0 129 4t64 18q114 52 114 213q0 83 -34.5 140t-98.5 80 q-25 9 -58.5 11.5t-133.5 4.5h-84v-471zM328 791h84q147 0 196 24q90 47 90 182q0 153 -116 191q-40 12 -176 12h-78v-409z" />
<glyph unicode="C" horiz-adv-x="1007" d="M74 670q0 203 21 328.5t69 207.5q113 187 358 187q209 0 310.5 -111.5t101.5 -341.5h-213q0 289 -199 289q-85 0 -133.5 -53.5t-70 -174t-21.5 -333.5q0 -297 49.5 -415t173.5 -118q106 0 157 86t54 268h213v-16q0 -182 -67 -307q-54 -101 -139.5 -147t-221.5 -46 q-146 0 -236 55.5t-143 176.5q-35 81 -49 186t-14 279z" />
<glyph unicode="D" horiz-adv-x="1054" d="M111 0v1366h311q154 0 238.5 -19.5t144.5 -68.5q92 -74 134 -206.5t42 -352.5q0 -267 -47.5 -422.5t-153 -226t-286.5 -70.5h-383zM328 166h116q89 0 140.5 16.5t83.5 55.5q90 109 90 475q0 183 -26 284.5t-85 151.5q-35 29 -85.5 40t-149.5 11h-84v-1034z" />
<glyph unicode="E" horiz-adv-x="917" d="M111 0v1366h731v-182h-514v-385h485v-178h-485v-439h534v-182h-751z" />
<glyph unicode="F" horiz-adv-x="868" d="M111 0v1366h729v-182h-512v-385h481v-178h-481v-621h-217z" />
<glyph unicode="G" horiz-adv-x="1042" d="M74 670q0 206 21.5 332t72.5 210q111 181 354 181q399 0 408 -420h-213q-9 256 -195 256q-133 0 -182 -135q-43 -130 -43 -441q0 -281 52 -400.5t175 -119.5q112 0 164.5 96.5t52.5 300.5v23h-231v162h434v-715h-160v82q0 8 -2 18v25v33v10q-75 -197 -301 -197 q-103 0 -185 43t-128 121q-94 161 -94 535z" />
<glyph unicode="H" horiz-adv-x="1054" d="M111 0v1366h217v-547h401v547h217v-1366h-217v633h-401v-633h-217z" />
<glyph unicode="I" horiz-adv-x="436" d="M111 0v1366h217v-1366h-217z" />
<glyph unicode="J" horiz-adv-x="837" d="M27 410h204q0 -131 17 -183q30 -92 125 -92q122 0 143 131q6 52 6 180v920h217v-922q0 -120 -8.5 -186.5t-30.5 -112.5q-84 -172 -329 -172q-239 0 -312 174q-32 74 -32 263z" />
<glyph unicode="K" horiz-adv-x="1019" d="M111 0v1366h213v-448q0 -88 -5 -201q76 152 130 229l292 420h238l-393 -578l436 -788h-246l-330 610l-122 -172v-438h-213z" />
<glyph unicode="L" horiz-adv-x="884" d="M111 0v1366h217v-1184h530v-182h-747z" />
<glyph unicode="M" horiz-adv-x="1372" d="M111 0v1366h333l121 -477q50 -189 85.5 -375t37.5 -264h6v9q0 48 27 200q30 168 65 309l146 598h332v-1366h-203v848q10 290 14 354h-10q-17 -108 -109 -481l-178 -721h-182l-180 719q-8 31 -10 49l-48 190q0 1 -7 34t-18 87.5t-24 122.5h-12q12 -141 16 -405l2 -797 h-204z" />
<glyph unicode="N" horiz-adv-x="1085" d="M111 0v1366h262l264 -672q103 -269 147 -475h9q-16 136 -19 373l-2 774h205v-1366h-264l-262 688q-5 10 -19 45q-113 291 -131 416h-8q17 -145 20 -391l2 -758h-204z" />
<glyph unicode="O" horiz-adv-x="1048" d="M74 694q0 372 106.5 535.5t349.5 163.5q277 0 377 -219q70 -161 70 -467q0 -317 -59 -480q-44 -123 -146 -188.5t-248 -65.5q-244 0 -347 165.5t-103 555.5zM297 694q0 -312 49.5 -435.5t175.5 -123.5q128 0 180 121.5t52 419.5q0 213 -21.5 332t-70 171t-136.5 52 q-86 0 -135.5 -52.5t-71.5 -168t-22 -316.5z" />
<glyph unicode="P" horiz-adv-x="960" d="M111 0v1366h370q187 0 273 -51q78 -47 121 -137.5t43 -210.5q0 -132 -53 -228t-150 -139q-49 -22 -106 -29.5t-165 -7.5h-116v-563h-217zM328 729h118q67 0 102.5 7t61.5 26q84 60 84 207q0 150 -94 205q-45 26 -168 26h-104v-471z" />
<glyph unicode="Q" horiz-adv-x="1044" d="M74 674q0 189 21 311.5t69 212.5q112 195 364 195q270 0 371 -215q41 -86 57.5 -192t16.5 -281q0 -429 -107 -562l152 -145l-125 -121l-162 160q-90 -64 -219 -64q-230 0 -334 166t-104 535zM297 684q0 -159 9 -249.5t32 -155.5q48 -148 184 -148q43 0 86 25l-104 98 l121 125l86 -88q39 113 39 401q0 207 -21.5 322.5t-69 166t-133.5 50.5q-87 0 -136 -51.5t-71 -169t-22 -326.5z" />
<glyph unicode="R" horiz-adv-x="1054" d="M111 0v1366h413q100 0 160 -11.5t104 -39.5q71 -44 109.5 -124.5t38.5 -184.5q0 -132 -57 -217t-164 -111q57 -12 91.5 -28.5t60 -44.5t38 -81t18.5 -122.5t9 -184.5q3 -103 16.5 -147t48.5 -64v-6h-247q-21 34 -28 88.5t-13 224.5q-4 116 -16.5 164t-43.5 78 q-28 25 -65.5 34t-116.5 9h-139v-598h-217zM328 756h147q113 0 164 39q78 63 78 190q0 113 -57 164t-183 51h-149v-444z" />
<glyph unicode="S" horiz-adv-x="966" d="M45 397v27h215q0 -128 27 -186q53 -103 180 -103q103 0 159 56t56 159q0 107 -70 168q-29 25 -63.5 40t-194.5 73q-153 57 -220.5 145t-67.5 230q0 186 106 286.5t301 100.5q200 0 298 -97t97 -292h-211q-3 122 -46 174.5t-140 52.5q-92 0 -141 -50.5t-49 -144.5 q0 -122 100 -186q25 -17 53 -28t197 -74q148 -54 211 -139t63 -230q0 -200 -113 -303t-333 -103q-199 0 -305 97q-57 53 -83 130.5t-26 196.5z" />
<glyph unicode="T" horiz-adv-x="892" d="M14 1180v186h867v-186h-322v-1180h-217v1180h-328z" />
<glyph unicode="U" horiz-adv-x="1032" d="M98 420v49v897h217v-922q0 -138 19 -194q45 -115 178 -115q148 0 186 135q17 52 17 172v924h217v-905q0 -198 -47 -287q-100 -201 -383 -201q-212 0 -318 127q-46 57 -66 131.5t-20 188.5z" />
<glyph unicode="V" d="M4 1366h232l190 -862q37 -192 45 -338h8q12 163 43 336l193 864h225l-330 -1366h-278z" />
<glyph unicode="W" horiz-adv-x="1409" d="M10 1366h217l129 -725q33 -218 40 -277.5t12 -154.5h6q3 132 51 424l125 733h233l131 -752q34 -210 40.5 -262t9.5 -143h8q0 50 9.5 126t43.5 302l123 729h213l-266 -1366h-252l-127 715q-26 174 -34 250t-13 170h-9q0 -120 -43 -387l-129 -748h-254z" />
<glyph unicode="X" horiz-adv-x="964" d="M4 0l354 696l-327 670h241l148 -326l12 -26q15 -45 27 -70q21 -54 26 -84h4q24 80 68 195l148 311h233l-330 -672l355 -694h-244l-189 389q-18 49 -30 80q-14 42 -19 70h-4q-9 -59 -53 -160l-184 -379h-236z" />
<glyph unicode="Y" horiz-adv-x="933" d="M0 1366h242l170 -430q13 -37 33 -106t24 -95h4q13 59 59 203l173 428h231l-361 -829v-537h-217v537z" />
<glyph unicode="Z" horiz-adv-x="892" d="M35 0v170l514 920l29 49q13 25 32 47q-23 -2 -98 -2h-442v182h774v-176l-510 -909q-49 -84 -66 -105q40 6 146 6h438v-182h-817z" />
<glyph unicode="[" horiz-adv-x="548" d="M104 -342v1708h373v-154h-180v-1400h180v-154h-373z" />
<glyph unicode="\" horiz-adv-x="782" d="M76 1366h168l579 -1708h-166z" />
<glyph unicode="]" horiz-adv-x="548" d="M70 -188h180v1400h-180v154h372v-1708h-372v154z" />
<glyph unicode="^" horiz-adv-x="1024" d="M47 741l332 629h266l332 -629h-215l-250 469l-250 -469h-215z" />
<glyph unicode="_" horiz-adv-x="1024" d="M0 -131h1024v-145h-1024v145z" />
<glyph unicode="`" horiz-adv-x="1024" d="M272 1446h226l118 -277h-145z" />
<glyph unicode="a" horiz-adv-x="872" d="M51 274q0 174 105 250q35 25 73 38t230 67q66 20 88 46.5t22 86.5q0 149 -143 149q-84 0 -120 -44.5t-36 -147.5h-190q0 86 13 137t46 90q89 109 293 109q238 0 307 -137q17 -32 23 -72.5t6 -128.5v-469q0 -68 12 -90.5t47 -22.5q13 0 31 6v-133q-48 -18 -106 -18 q-86 0 -127 35t-47 112q-47 -84 -108.5 -120.5t-154.5 -36.5q-128 0 -196 76t-68 218zM262 287q0 -75 33 -115.5t96 -40.5q41 0 80 20.5t64 55.5q20 29 27 62.5t7 99.5v71v29q2 35 2 66q0 6 2 14q-22 -22 -53 -36.5t-119 -41.5q-78 -26 -108.5 -66t-30.5 -118z" />
<glyph unicode="b" horiz-adv-x="917" d="M98 0v1366h207v-330q0 -96 -4 -131q83 150 242 150q160 0 234.5 -128.5t74.5 -402.5q0 -551 -328 -551q-85 0 -138 36.5t-97 125.5q4 -50 4 -80v-55h-195zM297 518q0 -205 40 -294t132 -89t132 90.5t40 302.5q0 200 -37.5 282.5t-128.5 82.5q-95 0 -136.5 -87t-41.5 -288 z" />
<glyph unicode="c" horiz-adv-x="847" d="M68 512q0 154 22.5 253t73.5 163q98 127 287 127q172 0 260.5 -92t89.5 -273h-201q-3 112 -38 162.5t-109 50.5q-94 0 -134 -88t-40 -295q0 -219 38.5 -307t133.5 -88q152 0 155 250h195q-2 -203 -92 -302.5t-271 -99.5q-195 0 -282.5 127.5t-87.5 411.5z" />
<glyph unicode="d" horiz-adv-x="917" d="M66 514q0 271 67 393q88 148 254 148q159 0 229 -140q-4 46 -4 91v360h207v-1366h-194v51q0 28 4 86q-43 -89 -99.5 -126.5t-148.5 -37.5q-163 0 -239 130.5t-76 410.5zM276 524q0 -194 27 -280q38 -109 141 -109q94 0 135.5 88.5t41.5 290.5q0 208 -39.5 293.5 t-135.5 85.5q-94 0 -132 -83t-38 -286z" />
<glyph unicode="e" horiz-adv-x="878" d="M68 512q0 282 92.5 412.5t292.5 130.5q192 0 276 -123.5t84 -403.5v-41h-534q0 -203 38 -285.5t132 -82.5q147 0 159 223h195q0 -107 -45 -195q-80 -174 -316 -174q-196 0 -285 128t-89 411zM281 625h325q-2 80 -12 147q-24 137 -143 137q-83 0 -126.5 -69.5 t-43.5 -204.5v-10z" />
<glyph unicode="f" horiz-adv-x="512" d="M-8 877v151h143q0 162 8 197q19 85 82.5 121t194.5 36q51 0 88 -4v-155h-33h-43.5t-32 -4t-24.5 -7t-15.5 -16t-10.5 -22.5t-4.5 -35.5t-2.5 -46.5v-63.5h166v-151h-166v-877h-207v877h-143z" />
<glyph unicode="g" horiz-adv-x="913" d="M68 520q0 272 79.5 403.5t243.5 131.5q83 0 144.5 -41.5t89.5 -114.5q-4 35 -4 96v33h196v-895q0 -135 -8.5 -197.5t-34.5 -111.5q-86 -174 -346 -174q-314 0 -332 262h195q12 -117 145 -117q103 0 148 70q12 17 21 61t9 80v76q0 20 7 78q-84 -150 -242 -150 q-311 0 -311 510zM279 528q0 -194 37 -275t126 -81q94 0 135 86.5t41 280.5q0 185 -40 269.5t-129 84.5q-92 0 -131 -83.5t-39 -281.5z" />
<glyph unicode="h" horiz-adv-x="907" d="M98 0v1366h207v-248q0 -158 -6 -211q82 148 258 148q86 0 147 -39t89 -111q13 -35 17.5 -75.5t4.5 -127.5v-702h-207v655q0 113 -12 154q-28 78 -121 78q-47 0 -89 -26.5t-64 -69.5q-11 -22 -14 -43t-3 -72v-676h-207z" />
<glyph unicode="i" horiz-adv-x="403" d="M98 0v1028h207v-1028h-207zM98 1163v207h207v-207h-207z" />
<glyph unicode="j" horiz-adv-x="403" d="M-55 -186q16 -2 39 -2q49 0 72 15t34 52q8 27 8 180v969h207v-965q-2 -169 -4.5 -206t-17.5 -76q-28 -68 -89.5 -98.5t-170.5 -30.5q-45 0 -78 2v160zM98 1163v207h207v-207h-207z" />
<glyph unicode="k" horiz-adv-x="894" d="M98 0v1366h207v-684q0 -76 -4 -107l8 13q9 18 23 39q8 16 22 37q11 15 11 16l260 348h235l-303 -395l352 -633h-235l-254 469l-115 -143v-326h-207z" />
<glyph unicode="l" horiz-adv-x="403" d="M98 0v1366h207v-1366h-207z" />
<glyph unicode="m" horiz-adv-x="1386" d="M98 0v1028h195v-27q0 -63 -4 -96q95 150 258 150q93 0 148.5 -38t84.5 -122q49 85 110.5 122.5t147.5 37.5q170 0 228 -117q18 -34 24 -79t6 -138v-721h-206v692q0 70 -3.5 96t-15.5 46q-29 53 -100 53q-105 0 -154 -99q-11 -24 -13.5 -40.5t-2.5 -65.5v-682h-207v678 q-3 107 -6 125q-9 40 -39 62t-76 22q-54 0 -94 -26t-60 -73q-14 -35 -14 -116v-672h-207z" />
<glyph unicode="n" horiz-adv-x="909" d="M98 0v1028h195v-31v-22q0 -47 -4 -74q97 154 270 154q84 0 147 -40.5t91 -111.5q12 -34 16 -74.5t4 -134.5v-694h-207v651q0 117 -12 160q-12 35 -44.5 55.5t-76.5 20.5q-93 0 -145 -80q-15 -26 -21 -50.5t-6 -70.5v-686h-207z" />
<glyph unicode="o" horiz-adv-x="897" d="M68 520q0 277 94 406t295 129q199 0 286.5 -126t87.5 -413q0 -289 -92 -416t-303 -127q-196 0 -282 127.5t-86 419.5zM279 516q0 -214 38 -302.5t132 -88.5q92 0 132 90.5t40 302.5q0 215 -37 300t-131 85t-134 -88.5t-40 -298.5z" />
<glyph unicode="p" horiz-adv-x="915" d="M98 -342v1370h195v-47q0 -57 -4 -90q69 164 246 164q163 0 239 -125.5t76 -394.5q0 -284 -72 -408q-87 -154 -256 -154q-148 0 -221 140q4 -29 4 -127v-328h-207zM297 532q0 -216 35 -299q20 -46 55.5 -71t79.5 -25q92 0 132 89.5t40 293.5t-37.5 288.5t-126.5 84.5 q-105 0 -149 -115q-29 -77 -29 -246z" />
<glyph unicode="q" horiz-adv-x="919" d="M68 508q0 297 82 422q87 125 239 125q88 0 146 -38.5t98 -123.5q-6 52 -6 88v47h196v-1370h-207v330q0 51 5 129q-71 -144 -238 -144q-163 0 -239 129.5t-76 405.5zM279 506q0 -205 36.5 -287t128.5 -82q95 0 134.5 87.5t39.5 299.5q0 204 -32 275q-42 94 -140 94 q-94 0 -130.5 -85.5t-36.5 -301.5z" />
<glyph unicode="r" horiz-adv-x="604" d="M98 0v1028h195v-41q0 -79 -6 -123q89 183 262 183q11 0 49 -3v-200q-54 4 -63 4q-137 0 -201 -98q-18 -26 -23.5 -50t-5.5 -77v-623h-207z" />
<glyph unicode="s" horiz-adv-x="794" d="M35 334h190q0 -106 23 -148q39 -67 139 -67q75 0 117.5 39t42.5 108q0 79 -53 117q-25 19 -49.5 29.5t-149.5 54.5q-135 47 -190.5 113.5t-55.5 181.5q0 141 89 217t255 76q228 0 297 -144q29 -57 29 -182h-191q0 88 -14 115q-30 65 -125 65q-68 0 -106.5 -34t-38.5 -95 q0 -57 32.5 -90t116.5 -61q178 -58 242 -99q110 -69 110 -233q0 -155 -95.5 -239.5t-270.5 -84.5q-241 0 -313 150q-31 73 -31 211z" />
<glyph unicode="t" horiz-adv-x="538" d="M-6 877v151h143v289h207v-289h168v-151h-168v-601q0 -78 21 -101t90 -23q32 0 57 4v-154q-68 -12 -129 -12q-148 0 -197 52t-49 210v625h-143z" />
<glyph unicode="u" horiz-adv-x="911" d="M92 297v29v702h207v-688q0 -110 29.5 -154.5t101.5 -44.5q52 0 95 26.5t65 72.5q11 24 13.5 42.5t2.5 77.5v668h207v-1028h-195v33q0 28 5 92q-59 -82 -121 -117t-148 -35q-262 0 -262 324z" />
<glyph unicode="v" horiz-adv-x="784" d="M2 1028h221l144 -641q26 -114 32 -199h7q6 99 36 238l125 602h215l-264 -1028h-242z" />
<glyph unicode="w" horiz-adv-x="1269" d="M8 1028h213l94 -514q7 -42 16 -92t12.5 -70t8 -48.5t6 -38.5t3.5 -27.5t2.5 -29t1.5 -30.5h6q7 93 16 131q29 170 39 217l96 502h234l112 -586q34 -164 39 -264h6q6 72 41 281l99 569h207l-230 -1028h-233l-105 483q-20 86 -35.5 202t-15.5 165h-8q-9 -125 -49 -342 l-103 -508h-241z" />
<glyph unicode="x" horiz-adv-x="802" d="M2 0l279 532l-269 496h226l129 -270l8 -17l12 -30l12 -33l4 -10q1 3 39 94l127 266h219l-264 -496l279 -532h-221l-136 276l-26 64q-9 21 -21 51q-36 -93 -59 -141l-119 -250h-219z" />
<glyph unicode="y" horiz-adv-x="784" d="M2 1028h221l139 -577q32 -153 41 -252h7q13 157 36 256l121 573h215l-252 -962q-51 -182 -79 -252q-35 -86 -99.5 -123t-177.5 -37q-10 0 -108 4v160q45 -2 73 -2q71 0 106 37.5t54 132.5z" />
<glyph unicode="z" horiz-adv-x="747" d="M35 0v162l344 549l49 73q50 75 55 82q-66 -4 -239 -4h-187v166h658v-164l-348 -553q-13 -22 -52 -75q-36 -52 -47 -72q50 6 195 6h252v-170h-680z" />
<glyph unicode="{" horiz-adv-x="595" d="M27 420v162q62 17 89 62.5t27 131.5v307q0 136 58 203q40 46 97 62.5t181 17.5h53v-164h-24q-41 0 -78.5 -13.5t-54.5 -33.5q-22 -26 -30.5 -65.5t-8.5 -114.5v-238q0 -96 -25 -147.5t-90 -89.5q64 -38 89.5 -92t25.5 -152v-236q0 -77 9.5 -118t33.5 -68q15 -15 52.5 -26 t76.5 -11h24v-164h-55q-134 2 -191.5 21t-97.5 76q-45 68 -45 204v287q0 91 -26 136.5t-90 62.5z" />
<glyph unicode="|" horiz-adv-x="1024" d="M393 -342v1708h240v-1708h-240z" />
<glyph unicode="}" horiz-adv-x="595" d="M63 -203h27q42 0 79 13t54 34q22 26 30.5 66t8.5 115v237q0 96 25 148t90 90q-65 38 -90 91.5t-25 151.5v236q0 77 -10 118.5t-35 67.5q-15 15 -52.5 26t-76.5 11h-25v164h56q135 -2 193.5 -20.5t97.5 -75.5q45 -68 45 -205v-287q0 -91 25.5 -136t88.5 -62v-162 q-61 -17 -87.5 -62.5t-26.5 -132.5v-307q0 -136 -58 -203q-40 -46 -96.5 -62.5t-183.5 -17.5h-54v164z" />
<glyph unicode="~" horiz-adv-x="1366" d="M193 1255q108 256 292 256q73 0 234 -73q86 -40 115 -50t57 -10q49 0 88 32.5t80 107.5l119 -99q-57 -133 -131 -192.5t-183 -59.5q-37 0 -76 13.5t-155 66.5q-104 49 -158 49q-46 0 -84.5 -32t-79.5 -105z" />
<glyph unicode="&#xa1;" horiz-adv-x="481" d="M133 47l35 563h147l35 -563v-432h-217v432zM133 768v213h217v-213h-217z" />
<glyph unicode="&#xa2;" d="M102 678q0 165 26 268t85 172q84 98 225 107v141h88v-141q147 -6 228 -99t84 -256h-197q0 85 -30.5 140.5t-84.5 64.5v-784q57 9 88.5 71t32.5 170h193q1 -175 -83.5 -280t-230.5 -111v-168h-88v168q-173 9 -254.5 139.5t-81.5 397.5zM307 674q0 -187 30.5 -274 t102.5 -109v786q-73 -22 -103 -112.5t-30 -290.5z" />
<glyph unicode="&#xa3;" d="M55 135q107 68 169.5 160t62.5 184q0 60 -31 127h-188v129h131q-9 18 -33 62q-57 114 -57 223q0 157 108 250.5t289 93.5q191 0 293.5 -102t101.5 -291h-199q-3 241 -192 241q-88 0 -138 -48.5t-50 -133.5q0 -88 63 -211q8 -17 17.5 -35t14 -27t5.5 -12l4 -10h319v-129 h-270q21 -64 21 -108q0 -91 -52.5 -170.5t-175.5 -175.5q54 27 84.5 36t65.5 9q48 0 121 -29q77 -27 114 -27q79 0 201 82l76 -153q-146 -97 -279 -97q-64 0 -170 39q-101 39 -166 39q-43 0 -81 -13t-101 -50z" />
<glyph unicode="&#xa4;" horiz-adv-x="1435" d="M111 1178l125 125l202 -203q92 52 149.5 70t131.5 18t128.5 -17t145.5 -71l203 200l125 -122l-199 -199q49 -76 70.5 -142t21.5 -143q0 -70 -18.5 -127t-69.5 -145l199 -199l-123 -125l-198 197q-134 -92 -275 -92q-133 0 -295 92l-198 -197l-123 123l196 199 q-88 130 -88 278q0 71 20 132.5t72 146.5zM430 698q0 -120 84 -204t203 -84q120 0 204.5 84t84.5 204q0 119 -84 204t-201 85q-122 0 -206.5 -84t-84.5 -205z" />
<glyph unicode="&#xa5;" d="M14 1337h236l166 -419q42 -129 53 -197h4q10 44 57 199l168 417h230l-230 -524h172v-127h-227l-70 -160v-47h230v-127h-230v-352h-211v352h-227v127h227v47l-67 160h-223v127h168z" />
<glyph unicode="&#xa6;" horiz-adv-x="1024" d="M393 313h240v-655h-240v655zM393 662v704h240v-704h-240z" />
<glyph unicode="&#xa7;" d="M57 575q0 88 42 152.5t137 122.5q-121 84 -121 221q0 138 95.5 216.5t264.5 78.5q161 0 252.5 -79.5t89.5 -217.5h-201q-2 72 -40.5 110t-110.5 38q-64 0 -102.5 -34t-38.5 -91q0 -64 57 -109q29 -22 63 -41.5t209 -114.5q125 -68 178.5 -140.5t53.5 -174.5 q0 -86 -38 -152.5t-118 -123.5q58 -54 83.5 -109t25.5 -129q0 -146 -96.5 -229.5t-262.5 -83.5q-368 0 -368 346h204q0 -193 156 -193q69 0 110.5 41t41.5 107q0 67 -48 112q-31 29 -70 53t-241 138q-109 62 -158 129t-49 157zM242 608q0 -46 29.5 -79.5t107.5 -77.5 q156 -88 219 -138q54 38 78 77t24 89q0 71 -63 123q-28 25 -52 40t-136 77q-33 21 -89 53q-67 -49 -92.5 -84.5t-25.5 -79.5z" />
<glyph unicode="&#xa8;" horiz-adv-x="1024" d="M264 1223v209h182v-209h-182zM575 1223v209h183v-209h-183z" />
<glyph unicode="&#xa9;" horiz-adv-x="1495" d="M37 688q0 192 96.5 354.5t262.5 256.5t362 94q140 0 269.5 -57t223 -152.5t149.5 -226.5t56 -273q0 -193 -95 -357t-258 -259t-355 -95q-194 0 -358 95.5t-258.5 260t-94.5 359.5zM141 688q0 -125 47.5 -238t128.5 -194.5t193.5 -129.5t237.5 -48q164 0 303 81t220 220.5 t81 304.5q0 161 -81 300.5t-218.5 221.5t-296.5 82q-276 0 -459 -201q-74 -82 -115 -186.5t-41 -212.5zM483 676q0 215 56 303q65 106 217 106q128 0 188.5 -66t59.5 -202h-142q0 83 -25.5 121.5t-80.5 38.5q-70 0 -97.5 -66.5t-27.5 -236.5q0 -161 27.5 -225t95.5 -64 q59 0 86.5 48t27.5 151h142q3 -305 -258 -305q-146 0 -207.5 90t-61.5 307z" />
<glyph unicode="&#xaa;" horiz-adv-x="589" d="M47 713q0 103 70 151q24 16 49.5 24.5t144.5 39.5q41 10 54.5 24.5t13.5 48.5q0 82 -86 82q-53 0 -73.5 -24.5t-20.5 -87.5h-133q0 56 8 87t30 56q60 66 193 66q154 0 201 -84q18 -35 18 -121v-277q0 -37 6.5 -48t26.5 -11q12 0 24 4v-92q-34 -10 -73 -10q-53 0 -78 16.5 t-35 58.5q-36 -47 -72 -65.5t-94 -18.5q-85 0 -129.5 46.5t-44.5 134.5zM193 719q0 -86 75 -86q58 0 90 43q21 30 21 92v43q0 6 2 51q-8 -4 -43 -20l-16 -4l-43 -15q-51 -15 -68.5 -36.5t-17.5 -67.5z" />
<glyph unicode="&#xab;" horiz-adv-x="733" d="M66 414v223l274 254v-207l-102 -96q-47 -44 -72 -60q29 -19 70 -57l104 -104v-205zM375 414v225l274 252v-207l-94 -88q-52 -44 -80 -68q29 -23 74 -61l100 -100v-205z" />
<glyph unicode="&#xac;" horiz-adv-x="1024" d="M68 373v209h886v-582h-231v373h-655z" />
<glyph unicode="&#xad;" horiz-adv-x="409" d="M0 455v186h410v-186h-410z" />
<glyph unicode="&#xae;" horiz-adv-x="1495" d="M37 688q0 192 96.5 354.5t262.5 256.5t362 94q140 0 269.5 -57t223 -152.5t149.5 -226.5t56 -273q0 -193 -95 -357t-258 -259t-355 -95q-194 0 -358 95.5t-258.5 260t-94.5 359.5zM141 688q0 -125 47.5 -238t128.5 -194.5t193.5 -129.5t237.5 -48q164 0 303 81t220 220.5 t81 304.5q0 161 -81 300.5t-218.5 221.5t-296.5 82q-276 0 -459 -201q-74 -82 -115 -186.5t-41 -212.5zM506 293v778h248q108 0 159 -29q91 -56 91 -180q0 -67 -24.5 -110t-80.5 -72q63 -23 80 -67.5t22 -190.5q1 -51 8.5 -73.5t30.5 -55.5h-157q-15 22 -20.5 54.5 t-8.5 127.5q-5 101 -26.5 126.5t-106.5 25.5h-74v-334h-141zM647 731h78q70 0 102.5 28.5t32.5 90.5q0 60 -31 86.5t-102 26.5h-80v-232z" />
<glyph unicode="&#xaf;" horiz-adv-x="1024" d="M246 1268v121h532v-121h-532z" />
<glyph unicode="&#xb0;" horiz-adv-x="763" d="M96 1077q0 120 84.5 204.5t204.5 84.5q119 0 202 -85t83 -206q0 -117 -84.5 -200.5t-202.5 -83.5q-119 0 -203 84t-84 202zM209 1077q0 -74 51 -126t123 -52q71 0 122.5 51.5t51.5 122.5q0 78 -51 131t-125 53q-70 0 -121 -53t-51 -127z" />
<glyph unicode="&#xb1;" d="M68 49v150h806v-150h-806zM68 596v149h327v328h150v-328h329v-149h-329v-320h-150v320h-327z" />
<glyph unicode="&#xb2;" horiz-adv-x="636" d="M55 547q3 126 53 204.5t207 204.5q59 50 80 87t21 92q0 63 -27 96t-78 33q-110 0 -110 -158v-14h-144q0 141 63 207.5t197 66.5q122 0 186 -59.5t64 -173.5q0 -115 -67 -185q-23 -25 -47 -46.5t-99 -82.5q-60 -50 -86.5 -81.5t-46.5 -78.5q37 3 53 3h299v-115h-518z" />
<glyph unicode="&#xb3;" horiz-adv-x="636" d="M51 784h144q3 -78 30 -114.5t82 -36.5t85 37t30 106q0 91 -51 127q-27 19 -109 19q-19 0 -33 -2v98h25q82 0 114.5 29t32.5 102q0 115 -96 115q-54 0 -78 -35t-24 -109h-142q3 246 248 246q114 0 177 -56t63 -157q0 -66 -27.5 -108t-87.5 -68q73 -23 106 -69t33 -124 q0 -121 -70.5 -187.5t-199.5 -66.5q-124 0 -188 64.5t-64 189.5z" />
<glyph unicode="&#xb4;" horiz-adv-x="1024" d="M408 1169l118 277h226l-201 -277h-143z" />
<glyph unicode="&#xb5;" horiz-adv-x="917" d="M98 -342v1370h207v-651q0 -82 3 -110.5t14 -55.5q27 -70 114 -70q52 0 95 26.5t65 72.5q11 24 13.5 42.5t2.5 77.5v668h207v-1028h-194v33q0 41 4 92q-104 -152 -246 -152q-33 0 -78 19v-334h-207z" />
<glyph unicode="&#xb6;" d="M43 1004q0 103 36.5 184t102.5 125q44 29 98.5 41t139.5 12h454v-129h-90v-1468h-151v1468h-119v-1468h-152v882h-26q-130 0 -211.5 98t-81.5 255z" />
<glyph unicode="&#xb7;" horiz-adv-x="425" d="M104 403v248h215v-248h-215z" />
<glyph unicode="&#xb8;" horiz-adv-x="1024" d="M315 -385l31 78q73 -25 129 -25q46 0 73 20.5t27 55.5q0 29 -26 48.5t-66 19.5q-35 0 -65 -15l-35 35l106 168h95l-78 -117q31 8 61 8q71 0 116.5 -40t45.5 -101q0 -75 -63.5 -122.5t-165.5 -47.5q-90 0 -185 35z" />
<glyph unicode="&#xb9;" horiz-adv-x="636" d="M92 1135v94q109 0 158.5 30.5t58.5 102.5h111v-815h-148v534v11v18v25h-10h-47h-51h-49h-23z" />
<glyph unicode="&#xba;" horiz-adv-x="608" d="M53 858q0 167 61.5 245.5t192.5 78.5q130 0 188 -76t58 -248q0 -173 -61 -250.5t-197 -77.5q-129 0 -185.5 77t-56.5 251zM199 856q0 -124 23.5 -174.5t80.5 -50.5t81 52t24 175q0 125 -23 174t-80 49q-58 0 -82 -51t-24 -174z" />
<glyph unicode="&#xbb;" horiz-adv-x="733" d="M86 162v207l94 88q48 46 80 67q-48 38 -74 64l-100 98v205l274 -250v-225zM395 164v207l103 94q31 29 71 59q-12 10 -35.5 30.5t-35.5 29.5l-103 102v205l275 -250v-225z" />
<glyph unicode="&#xbc;" horiz-adv-x="1542" d="M92 1135v94q109 0 158.5 30.5t58.5 102.5h111v-815h-148v534v11v18v25h-10h-47h-51h-49h-23zM356 0l707 1337h121l-705 -1337h-123zM950 182v117l303 516h152v-520h92v-113h-92v-182h-141v182h-314zM1075 295h53h136v227l2 45v21q0 1 4 41q-14 -24 -33 -64l-129 -221 q-5 -10 -14 -22q-2 -3 -19 -27z" />
<glyph unicode="&#xbd;" horiz-adv-x="1542" d="M92 1135v94q109 0 158.5 30.5t58.5 102.5h111v-815h-148v534v11v18v25h-10h-47h-51h-49h-23zM356 0l707 1337h121l-705 -1337h-123zM958 0q3 125 53.5 204t207.5 208q58 47 79 84.5t21 93.5q0 127 -105 127q-110 0 -110 -158v-12h-143q0 140 63.5 206t196.5 66 q121 0 185 -59t64 -172q0 -114 -67 -187q-23 -25 -47 -46.5t-99 -82.5q-62 -50 -87.5 -80t-45.5 -79q25 2 54 2h299v-115h-519z" />
<glyph unicode="&#xbe;" horiz-adv-x="1542" d="M51 784h144q3 -78 30 -114.5t82 -36.5t85 37t30 106q0 91 -51 127q-27 19 -109 19q-19 0 -33 -2v98h25q82 0 114.5 29t32.5 102q0 115 -96 115q-54 0 -78 -35t-24 -109h-142q3 246 248 246q114 0 177 -56t63 -157q0 -66 -27.5 -108t-87.5 -68q73 -23 106 -69t33 -124 q0 -121 -70.5 -187.5t-199.5 -66.5q-124 0 -188 64.5t-64 189.5zM356 0l705 1337h123l-705 -1337h-123zM950 182v117l303 516h152v-520h92v-113h-92v-182h-141v182h-314zM1075 295h53h136v227l2 45v21q0 1 4 41q-14 -24 -33 -64l-129 -221q-5 -10 -14 -22q-2 -3 -19 -27z " />
<glyph unicode="&#xbf;" horiz-adv-x="854" d="M68 -49q0 129 57 223q21 34 38.5 55t96.5 107q65 74 82.5 120t17.5 148h195q0 -148 -23 -214.5t-108 -160.5q-65 -71 -80.5 -89.5t-30.5 -45.5q-39 -65 -39 -157t43.5 -143.5t120.5 -51.5q173 0 170 272h201q-3 -105 -14.5 -160t-40.5 -104q-47 -78 -129 -120t-189 -42 q-172 0 -270 97t-98 266zM344 768v213h217v-213h-217z" />
<glyph unicode="&#xc0;" horiz-adv-x="1032" d="M4 0l379 1366h281l366 -1366h-231l-84 336h-396l-88 -336h-227zM252 1737h233l146 -262h-150zM354 512h326l-100 408q-3 14 -13.5 66.5t-17.5 88.5q-23 115 -27 142h-4q-6 -51 -26 -140q-3 -13 -8 -35t-8.5 -39t-6.5 -32q-2 -8 -4.5 -19t-4 -17.5t-1.5 -8.5z" />
<glyph unicode="&#xc1;" horiz-adv-x="1032" d="M4 0l379 1366h281l366 -1366h-231l-84 336h-396l-88 -336h-227zM354 512h326l-100 408q-3 14 -13.5 66.5t-17.5 88.5q-23 115 -27 142h-4q-6 -51 -26 -140q-3 -13 -8 -35t-8.5 -39t-6.5 -32q-2 -8 -4.5 -19t-4 -17.5t-1.5 -8.5zM432 1475l148 262h231l-227 -262h-152z " />
<glyph unicode="&#xc2;" horiz-adv-x="1032" d="M4 0l379 1366h281l366 -1366h-231l-84 336h-396l-88 -336h-227zM207 1489l203 274h219l198 -274h-178l-133 166l-131 -166h-178zM354 512h326l-100 408q-3 14 -13.5 66.5t-17.5 88.5q-23 115 -27 142h-4q-6 -51 -26 -140q-3 -13 -8 -35t-8.5 -39t-6.5 -32q-2 -8 -4.5 -19 t-4 -17.5t-1.5 -8.5z" />
<glyph unicode="&#xc3;" horiz-adv-x="1032" d="M4 0l379 1366h281l366 -1366h-231l-84 336h-396l-88 -336h-227zM217 1509q13 106 62 164t124 58q35 0 59.5 -7t106.5 -41q43 -16 64 -16q48 0 63 74h121q-6 -98 -56 -159.5t-124 -61.5q-30 0 -53 7t-107 40q-47 18 -69 18q-25 0 -45 -20.5t-27 -55.5h-119zM354 512h326 l-100 408q-3 14 -13.5 66.5t-17.5 88.5q-23 115 -27 142h-4q-6 -51 -26 -140q-3 -13 -8 -35t-8.5 -39t-6.5 -32q-2 -8 -4.5 -19t-4 -17.5t-1.5 -8.5z" />
<glyph unicode="&#xc4;" horiz-adv-x="1032" d="M4 0l379 1366h281l366 -1366h-231l-84 336h-396l-88 -336h-227zM248 1516v221h198v-221h-198zM354 512h326l-100 408q-3 14 -13.5 66.5t-17.5 88.5q-23 115 -27 142h-4q-6 -51 -26 -140q-3 -13 -8 -35t-8.5 -39t-6.5 -32q-2 -8 -4.5 -19t-4 -17.5t-1.5 -8.5zM588 1516 v221h198v-221h-198z" />
<glyph unicode="&#xc5;" horiz-adv-x="1032" d="M4 0l379 1366h281l366 -1366h-231l-84 336h-396l-88 -336h-227zM307 1647q0 85 62.5 145.5t148.5 60.5t147.5 -61t61.5 -147q0 -88 -61.5 -149.5t-147.5 -61.5q-89 0 -150 62t-61 151zM354 512h326l-100 408q-3 14 -13.5 66.5t-17.5 88.5q-23 115 -27 142h-4 q-6 -51 -26 -140q-3 -13 -8 -35t-8.5 -39t-6.5 -32q-2 -8 -4.5 -19t-4 -17.5t-1.5 -8.5zM408 1645q0 -49 32 -83t78 -34q45 0 77 34t32 83q0 47 -32.5 80.5t-76.5 33.5q-46 0 -78 -33.5t-32 -80.5z" />
<glyph unicode="&#xc6;" horiz-adv-x="1402" d="M-27 0l523 1366h837v-182h-483v-385h455v-178h-455v-439h500v-182h-707v338h-319l-121 -338h-230zM379 514h264v680h-20z" />
<glyph unicode="&#xc7;" horiz-adv-x="1009" d="M74 664q0 208 21.5 335.5t70.5 208.5q110 185 360 185q207 0 307.5 -111.5t102.5 -341.5h-215q0 291 -199 291q-124 0 -174.5 -124t-50.5 -429q0 -300 50 -421.5t173 -121.5q106 0 158 86.5t53 267.5h215q0 -246 -102.5 -380.5t-292.5 -135.5l-57 -88q30 9 57 9 q72 0 118 -40.5t46 -103.5q0 -75 -64.5 -122.5t-165.5 -47.5q-88 0 -184 37l33 78q67 -27 125 -27q47 0 74.5 20t27.5 54q0 31 -25 50.5t-65 19.5q-24 0 -65 -13l-37 35l90 139q-105 8 -176.5 50.5t-118.5 126.5q-49 84 -69.5 201.5t-20.5 312.5z" />
<glyph unicode="&#xc8;" horiz-adv-x="917" d="M111 0v1366h731v-182h-514v-385h485v-178h-485v-439h534v-182h-751zM242 1737h233l146 -262h-150z" />
<glyph unicode="&#xc9;" horiz-adv-x="917" d="M111 0v1366h731v-182h-514v-385h485v-178h-485v-439h534v-182h-751zM383 1475l147 262h232l-227 -262h-152z" />
<glyph unicode="&#xca;" horiz-adv-x="917" d="M111 0v1366h731v-182h-514v-385h485v-178h-485v-439h534v-182h-751zM166 1489l203 274h219l198 -274h-178l-131 166l-133 -166h-178z" />
<glyph unicode="&#xcb;" horiz-adv-x="917" d="M111 0v1366h731v-182h-514v-385h485v-178h-485v-439h534v-182h-751zM207 1516v221h199v-221h-199zM547 1516v221h198v-221h-198z" />
<glyph unicode="&#xcc;" horiz-adv-x="436" d="M-45 1737h231l148 -262h-152zM111 0v1366h217v-1366h-217z" />
<glyph unicode="&#xcd;" horiz-adv-x="436" d="M111 0v1366h217v-1366h-217zM133 1475l146 262h231l-227 -262h-150z" />
<glyph unicode="&#xce;" horiz-adv-x="436" d="M-92 1489l203 274h219l198 -274h-178l-133 166l-131 -166h-178zM111 0v1366h217v-1366h-217z" />
<glyph unicode="&#xcf;" horiz-adv-x="436" d="M-27 1516v221h199v-221h-199zM111 0v1366h217v-1366h-217zM266 1516v221h199v-221h-199z" />
<glyph unicode="&#xd0;" horiz-adv-x="1054" d="M-6 659v152h115v555h311q154 0 239.5 -19.5t145.5 -68.5q92 -73 134 -206t42 -351q0 -268 -48 -424t-153.5 -226.5t-287.5 -70.5h-383v659h-115zM326 166h118q87 0 139.5 17t84.5 55q90 112 90 475q0 183 -26 284.5t-85 151.5q-35 29 -86 40t-151 11h-84v-389h206v-152 h-206v-493z" />
<glyph unicode="&#xd1;" horiz-adv-x="1085" d="M111 0v1366h262l264 -672q103 -269 147 -475h9q-16 136 -19 373l-2 774h205v-1366h-264l-262 688q-5 10 -19 45q-113 291 -131 416h-8q17 -145 20 -391l2 -758h-204zM244 1509q13 106 62 164t124 58q35 0 59.5 -7t106.5 -41q43 -16 63 -16q49 0 64 74h121 q-6 -98 -56 -159.5t-124 -61.5q-30 0 -53 7t-107 40q-47 18 -70 18q-25 0 -45 -20.5t-27 -55.5h-118z" />
<glyph unicode="&#xd2;" horiz-adv-x="1048" d="M74 694q0 372 106.5 535.5t349.5 163.5q277 0 377 -219q70 -161 70 -467q0 -317 -59 -480q-44 -123 -146 -188.5t-248 -65.5q-244 0 -347 165.5t-103 555.5zM270 1737h232l147 -262h-151zM297 694q0 -312 49.5 -435.5t175.5 -123.5q128 0 180 121.5t52 419.5 q0 213 -21.5 332t-70 171t-136.5 52q-86 0 -135.5 -52.5t-71.5 -168t-22 -316.5z" />
<glyph unicode="&#xd3;" horiz-adv-x="1048" d="M74 694q0 372 106.5 535.5t349.5 163.5q277 0 377 -219q70 -161 70 -467q0 -317 -59 -480q-44 -123 -146 -188.5t-248 -65.5q-244 0 -347 165.5t-103 555.5zM297 694q0 -312 49.5 -435.5t175.5 -123.5q128 0 180 121.5t52 419.5q0 213 -21.5 332t-70 171t-136.5 52 q-86 0 -135.5 -52.5t-71.5 -168t-22 -316.5zM428 1475l147 262h232l-227 -262h-152z" />
<glyph unicode="&#xd4;" horiz-adv-x="1048" d="M74 694q0 372 106.5 535.5t349.5 163.5q277 0 377 -219q70 -161 70 -467q0 -317 -59 -480q-44 -123 -146 -188.5t-248 -65.5q-244 0 -347 165.5t-103 555.5zM215 1489l203 274h219l199 -274h-179l-133 166l-131 -166h-178zM297 694q0 -312 49.5 -435.5t175.5 -123.5 q128 0 180 121.5t52 419.5q0 213 -21.5 332t-70 171t-136.5 52q-86 0 -135.5 -52.5t-71.5 -168t-22 -316.5z" />
<glyph unicode="&#xd5;" horiz-adv-x="1048" d="M74 694q0 372 106.5 535.5t349.5 163.5q277 0 377 -219q70 -161 70 -467q0 -317 -59 -480q-44 -123 -146 -188.5t-248 -65.5q-244 0 -347 165.5t-103 555.5zM225 1509q13 106 62.5 164t124.5 58q35 0 59.5 -7t106.5 -41q43 -16 63 -16q49 0 64 74h120q-6 -98 -56 -159.5 t-124 -61.5q-30 0 -53 7t-107 40q-46 18 -69 18q-25 0 -45 -20.5t-27 -55.5h-119zM297 694q0 -312 49.5 -435.5t175.5 -123.5q128 0 180 121.5t52 419.5q0 213 -21.5 332t-70 171t-136.5 52q-86 0 -135.5 -52.5t-71.5 -168t-22 -316.5z" />
<glyph unicode="&#xd6;" horiz-adv-x="1048" d="M74 694q0 372 106.5 535.5t349.5 163.5q277 0 377 -219q70 -161 70 -467q0 -317 -59 -480q-44 -123 -146 -188.5t-248 -65.5q-244 0 -347 165.5t-103 555.5zM256 1516v221h199v-221h-199zM297 694q0 -312 49.5 -435.5t175.5 -123.5q128 0 180 121.5t52 419.5 q0 213 -21.5 332t-70 171t-136.5 52q-86 0 -135.5 -52.5t-71.5 -168t-22 -316.5zM596 1516v221h199v-221h-199z" />
<glyph unicode="&#xd7;" d="M111 416l254 254l-254 256l106 104l254 -254l254 254l106 -104l-253 -256l253 -254l-106 -107l-254 256l-254 -256z" />
<glyph unicode="&#xd8;" horiz-adv-x="1048" d="M74 690q0 335 86 502q107 201 360 201q125 0 217 -54q1 5 21 54l28 69l109 -45l-41 -98q-16 -34 -25 -47q146 -110 146 -567q0 -321 -57 -476q-43 -122 -143.5 -189t-239.5 -67q-145 0 -230 56q-2 -11 -16 -45l-35 -80l-104 47l38 94q10 26 27 55q-67 54 -104 209.5 t-37 380.5zM293 705q0 -278 24 -398q14 54 54 154l270 661q0 6 6 15q13 30 17 41q-46 55 -142 55q-123 0 -176 -113q-29 -66 -41 -158.5t-12 -256.5zM379 197q52 -64 147 -64q126 0 178 122.5t52 418.5q0 257 -23 403q-7 -41 -47 -139l-276 -678q-5 -12 -19 -37l-6 -16z" />
<glyph unicode="&#xd9;" horiz-adv-x="1032" d="M98 420v49v897h217v-922q0 -138 19 -194q45 -115 178 -115q148 0 186 135q17 52 17 172v924h217v-905q0 -198 -47 -287q-100 -201 -383 -201q-212 0 -318 127q-46 57 -66 131.5t-20 188.5zM260 1737h232l147 -262h-152z" />
<glyph unicode="&#xda;" horiz-adv-x="1032" d="M98 420v49v897h217v-922q0 -138 19 -194q45 -115 178 -115q148 0 186 135q17 52 17 172v924h217v-905q0 -198 -47 -287q-100 -201 -383 -201q-212 0 -318 127q-46 57 -66 131.5t-20 188.5zM414 1475l145 262h234l-230 -262h-149z" />
<glyph unicode="&#xdb;" horiz-adv-x="1032" d="M98 420v49v897h217v-922q0 -138 19 -194q45 -115 178 -115q148 0 186 135q17 52 17 172v924h217v-905q0 -198 -47 -287q-100 -201 -383 -201q-212 0 -318 127q-46 57 -66 131.5t-20 188.5zM205 1489l203 274h219l198 -274h-178l-131 166l-133 -166h-178z" />
<glyph unicode="&#xdc;" horiz-adv-x="1032" d="M98 420v49v897h217v-922q0 -138 19 -194q45 -115 178 -115q148 0 186 135q17 52 17 172v924h217v-905q0 -198 -47 -287q-100 -201 -383 -201q-212 0 -318 127q-46 57 -66 131.5t-20 188.5zM246 1516v221h198v-221h-198zM586 1516v221h198v-221h-198z" />
<glyph unicode="&#xdd;" horiz-adv-x="933" d="M0 1366h242l170 -430q13 -37 33 -106t24 -95h4q13 59 59 203l173 428h231l-361 -829v-537h-217v537zM375 1475l145 262h234l-230 -262h-149z" />
<glyph unicode="&#xde;" horiz-adv-x="968" d="M111 0v1366h217v-219h153q187 0 273 -51q78 -47 121 -137.5t43 -210.5q0 -132 -53 -228t-150 -139q-49 -22 -106 -29.5t-165 -7.5h-116v-344h-217zM328 510h118q67 0 102.5 7t61.5 26q84 60 84 207q0 149 -94 204q-46 27 -168 27h-104v-471z" />
<glyph unicode="&#xdf;" horiz-adv-x="940" d="M98 0v985q0 110 17 179.5t55 115.5q93 113 295 113q170 0 259 -84.5t89 -247.5q0 -227 -188 -283q126 -22 186.5 -109.5t60.5 -250.5q0 -185 -79 -301q-86 -129 -289 -129q-38 0 -90 6v158q40 -7 57 -7q94 0 142.5 73t48.5 214q0 132 -50.5 197t-154.5 65q-21 0 -39 -2 v156q10 -2 26 -2q80 0 122 52.5t42 152.5q0 190 -151 190q-110 0 -138 -94q-14 -41 -14 -133v-1014h-207z" />
<glyph unicode="&#xe0;" horiz-adv-x="872" d="M51 274q0 174 105 250q35 25 73 38t230 67q66 20 88 46.5t22 86.5q0 149 -143 149q-84 0 -120 -44.5t-36 -147.5h-190q0 86 13 137t46 90q89 109 293 109q238 0 307 -137q17 -32 23 -72.5t6 -128.5v-469q0 -68 12 -90.5t47 -22.5q13 0 31 6v-133q-48 -18 -106 -18 q-86 0 -127 35t-47 112q-47 -84 -108.5 -120.5t-154.5 -36.5q-128 0 -196 76t-68 218zM233 1446h226l119 -277h-146zM262 287q0 -75 33 -115.5t96 -40.5q41 0 80 20.5t64 55.5q20 29 27 62.5t7 99.5v71v29q2 35 2 66q0 6 2 14q-22 -22 -53 -36.5t-119 -41.5 q-78 -26 -108.5 -66t-30.5 -118z" />
<glyph unicode="&#xe1;" horiz-adv-x="872" d="M51 274q0 174 105 250q35 25 73 38t230 67q66 20 88 46.5t22 86.5q0 149 -143 149q-84 0 -120 -44.5t-36 -147.5h-190q0 86 13 137t46 90q89 109 293 109q238 0 307 -137q17 -32 23 -72.5t6 -128.5v-469q0 -68 12 -90.5t47 -22.5q13 0 31 6v-133q-48 -18 -106 -18 q-86 0 -127 35t-47 112q-47 -84 -108.5 -120.5t-154.5 -36.5q-128 0 -196 76t-68 218zM262 287q0 -75 33 -115.5t96 -40.5q41 0 80 20.5t64 55.5q20 29 27 62.5t7 99.5v71v29q2 35 2 66q0 6 2 14q-22 -22 -53 -36.5t-119 -41.5q-78 -26 -108.5 -66t-30.5 -118zM362 1169 l119 277h226l-201 -277h-144z" />
<glyph unicode="&#xe2;" horiz-adv-x="872" d="M51 274q0 174 105 250q35 25 73 38t230 67q66 20 88 46.5t22 86.5q0 149 -143 149q-84 0 -120 -44.5t-36 -147.5h-190q0 86 13 137t46 90q89 109 293 109q238 0 307 -137q17 -32 23 -72.5t6 -128.5v-469q0 -68 12 -90.5t47 -22.5q13 0 31 6v-133q-48 -18 -106 -18 q-86 0 -127 35t-47 112q-47 -84 -108.5 -120.5t-154.5 -36.5q-128 0 -196 76t-68 218zM176 1174l174 274h207l170 -274h-170l-104 165l-105 -165h-172zM262 287q0 -75 33 -115.5t96 -40.5q41 0 80 20.5t64 55.5q20 29 27 62.5t7 99.5v71v29q2 35 2 66q0 6 2 14 q-22 -22 -53 -36.5t-119 -41.5q-78 -26 -108.5 -66t-30.5 -118z" />
<glyph unicode="&#xe3;" horiz-adv-x="872" d="M51 274q0 174 105 250q35 25 73 38t230 67q66 20 88 46.5t22 86.5q0 149 -143 149q-84 0 -120 -44.5t-36 -147.5h-190q0 86 13 137t46 90q89 109 293 109q238 0 307 -137q17 -32 23 -72.5t6 -128.5v-469q0 -68 12 -90.5t47 -22.5q13 0 31 6v-133q-48 -18 -106 -18 q-86 0 -127 35t-47 112q-47 -84 -108.5 -120.5t-154.5 -36.5q-128 0 -196 76t-68 218zM158 1208q12 108 57.5 166t116.5 58q32 0 55 -7t98 -41q40 -16 60 -16q47 0 59 74h113q-6 -99 -53 -161t-115 -62q-28 0 -51 7t-99 40q-43 18 -63 18q-25 0 -43.5 -21t-24.5 -55h-110z M262 287q0 -75 33 -115.5t96 -40.5q41 0 80 20.5t64 55.5q20 29 27 62.5t7 99.5v71v29q2 35 2 66q0 6 2 14q-22 -22 -53 -36.5t-119 -41.5q-78 -26 -108.5 -66t-30.5 -118z" />
<glyph unicode="&#xe4;" horiz-adv-x="872" d="M51 274q0 174 105 250q35 25 73 38t230 67q66 20 88 46.5t22 86.5q0 149 -143 149q-84 0 -120 -44.5t-36 -147.5h-190q0 86 13 137t46 90q89 109 293 109q238 0 307 -137q17 -32 23 -72.5t6 -128.5v-469q0 -68 12 -90.5t47 -22.5q13 0 31 6v-133q-48 -18 -106 -18 q-86 0 -127 35t-47 112q-47 -84 -108.5 -120.5t-154.5 -36.5q-128 0 -196 76t-68 218zM190 1223v209h183v-209h-183zM262 287q0 -75 33 -115.5t96 -40.5q41 0 80 20.5t64 55.5q20 29 27 62.5t7 99.5v71v29q2 35 2 66q0 6 2 14q-22 -22 -53 -36.5t-119 -41.5 q-78 -26 -108.5 -66t-30.5 -118zM504 1223v209h182v-209h-182z" />
<glyph unicode="&#xe5;" horiz-adv-x="872" d="M51 274q0 174 105 250q35 25 73 38t230 67q66 20 88 46.5t22 86.5q0 149 -143 149q-84 0 -120 -44.5t-36 -147.5h-190q0 86 13 137t46 90q89 109 293 109q238 0 307 -137q17 -32 23 -72.5t6 -128.5v-469q0 -68 12 -90.5t47 -22.5q13 0 31 6v-133q-48 -18 -106 -18 q-86 0 -127 35t-47 112q-47 -84 -108.5 -120.5t-154.5 -36.5q-128 0 -196 76t-68 218zM242 1341q0 80 58.5 138.5t139.5 58.5q83 0 141 -58t58 -141q0 -82 -58 -140t-141 -58t-140.5 57.5t-57.5 142.5zM262 287q0 -75 33 -115.5t96 -40.5q41 0 80 20.5t64 55.5 q20 29 27 62.5t7 99.5v71v29q2 35 2 66q0 6 2 14q-22 -22 -53 -36.5t-119 -41.5q-78 -26 -108.5 -66t-30.5 -118zM334 1341q0 -47 31 -80.5t75 -33.5t75.5 33t31.5 79t-31.5 79.5t-75.5 33.5q-43 0 -74.5 -33.5t-31.5 -77.5z" />
<glyph unicode="&#xe6;" horiz-adv-x="1335" d="M51 268q0 181 105 252q38 26 96.5 45.5t193.5 52.5q68 17 88.5 44.5t20.5 101.5q0 145 -137 145q-77 0 -111.5 -45t-34.5 -145h-190q-3 150 55 225q82 111 279 111q202 0 264 -135q70 135 244 135q258 0 319 -258q25 -119 25 -310h-516q0 -160 18 -233q35 -135 141 -135 q68 0 109.5 59.5t44.5 163.5h195q-11 -180 -100 -274.5t-249 -94.5q-228 0 -290 189q-73 -189 -283 -189q-287 0 -287 295zM256 285q0 -75 33 -115.5t94 -40.5q44 0 82 20.5t61 57.5q29 48 29 131v78v71q2 20 2 33l2 8q-31 -24 -166 -65q-75 -22 -106 -62.5t-31 -115.5z M754 625h309v14l-2 59q-5 100 -44 155.5t-106 55.5q-157 0 -157 -284z" />
<glyph unicode="&#xe7;" horiz-adv-x="845" d="M68 506q0 286 91.5 417.5t289.5 131.5q172 0 259 -90.5t93 -274.5h-203q-1 109 -37 161t-110 52q-94 0 -133 -90t-39 -307q0 -206 39 -292.5t131 -86.5q152 0 155 250h197q2 -188 -85 -295t-241 -107l-59 -92q31 8 53 8q76 0 123 -39t47 -102q0 -75 -63 -122.5 t-164 -47.5q-97 0 -187 35l31 78q80 -25 133 -25q41 0 68.5 21.5t27.5 52.5t-26 50.5t-66 19.5q-24 0 -65 -13l-35 33l90 143q-161 12 -238 141.5t-77 389.5z" />
<glyph unicode="&#xe8;" horiz-adv-x="878" d="M68 512q0 282 92.5 412.5t292.5 130.5q192 0 276 -123.5t84 -403.5v-41h-534q0 -203 38 -285.5t132 -82.5q147 0 159 223h195q0 -107 -45 -195q-80 -174 -316 -174q-196 0 -285 128t-89 411zM236 1446h227l119 -277h-148zM281 625h325q-2 80 -12 147q-24 137 -143 137 q-83 0 -126.5 -69.5t-43.5 -204.5v-10z" />
<glyph unicode="&#xe9;" horiz-adv-x="878" d="M68 512q0 282 92.5 412.5t292.5 130.5q192 0 276 -123.5t84 -403.5v-41h-534q0 -203 38 -285.5t132 -82.5q147 0 159 223h195q0 -107 -45 -195q-80 -174 -316 -174q-196 0 -285 128t-89 411zM281 625h325q-2 80 -12 147q-24 137 -143 137q-83 0 -126.5 -69.5 t-43.5 -204.5v-10zM379 1169l119 277h225l-201 -277h-143z" />
<glyph unicode="&#xea;" horiz-adv-x="878" d="M68 512q0 282 92.5 412.5t292.5 130.5q192 0 276 -123.5t84 -403.5v-41h-534q0 -203 38 -285.5t132 -82.5q147 0 159 223h195q0 -107 -45 -195q-80 -174 -316 -174q-196 0 -285 128t-89 411zM164 1174l176 274h205l172 -274h-172l-105 165l-104 -165h-172zM281 625h325 q-2 80 -12 147q-24 137 -143 137q-83 0 -126.5 -69.5t-43.5 -204.5v-10z" />
<glyph unicode="&#xeb;" horiz-adv-x="878" d="M68 512q0 282 92.5 412.5t292.5 130.5q192 0 276 -123.5t84 -403.5v-41h-534q0 -203 38 -285.5t132 -82.5q147 0 159 223h195q0 -107 -45 -195q-80 -174 -316 -174q-196 0 -285 128t-89 411zM205 1223v209h182v-209h-182zM281 625h325q-2 80 -12 147q-24 137 -143 137 q-83 0 -126.5 -69.5t-43.5 -204.5v-10zM518 1223v209h182v-209h-182z" />
<glyph unicode="&#xec;" horiz-adv-x="403" d="M-39 1446h225l119 -277h-145zM98 0v1028h207v-1028h-207z" />
<glyph unicode="&#xed;" horiz-adv-x="403" d="M98 0v1028h207v-1028h-207zM121 1169l121 277h225l-201 -277h-145z" />
<glyph unicode="&#xee;" horiz-adv-x="403" d="M-74 1174l176 274h205l172 -274h-172l-104 165l-105 -165h-172zM98 0v1028h207v-1028h-207z" />
<glyph unicode="&#xef;" horiz-adv-x="403" d="M-20 1223v209h182v-209h-182zM98 0v1028h207v-1028h-207zM242 1223v209h182v-209h-182z" />
<glyph unicode="&#xf0;" horiz-adv-x="897" d="M68 512q0 141 20 234.5t66 160.5q41 61 114.5 98t155.5 37q54 0 102 -18l-55 143l-111 -37l-26 80l112 39l-45 121l115 39l59 -125l123 41l25 -78l-111 -37l133 -278q49 -99 67.5 -189t18.5 -225q0 -286 -90.5 -413.5t-294.5 -127.5t-291 123.5t-87 411.5zM279 516 q0 -211 39 -299t131 -88t132 90.5t40 300.5q0 207 -37 289t-131 82q-95 0 -134.5 -85.5t-39.5 -289.5z" />
<glyph unicode="&#xf1;" horiz-adv-x="909" d="M98 0v1028h195v-31v-22q0 -47 -4 -74q97 154 270 154q84 0 147 -40.5t91 -111.5q12 -34 16 -74.5t4 -134.5v-694h-207v651q0 117 -12 160q-12 35 -44.5 55.5t-76.5 20.5q-93 0 -145 -80q-15 -26 -21 -50.5t-6 -70.5v-686h-207zM178 1208q13 109 58 166.5t116 57.5 q33 0 56.5 -7.5t99.5 -40.5q40 -16 57 -16q48 0 60 74h112q-6 -100 -52.5 -161.5t-115.5 -61.5q-28 0 -48.5 6.5t-98.5 40.5q-47 18 -66 18q-25 0 -43 -21t-24 -55h-111z" />
<glyph unicode="&#xf2;" horiz-adv-x="897" d="M68 520q0 277 94 406t295 129q199 0 286.5 -126t87.5 -413q0 -289 -92 -416t-303 -127q-196 0 -282 127.5t-86 419.5zM225 1446h226l118 -277h-145zM279 516q0 -214 38 -302.5t132 -88.5q92 0 132 90.5t40 302.5q0 215 -37 300t-131 85t-134 -88.5t-40 -298.5z" />
<glyph unicode="&#xf3;" horiz-adv-x="897" d="M68 520q0 277 94 406t295 129q199 0 286.5 -126t87.5 -413q0 -289 -92 -416t-303 -127q-196 0 -282 127.5t-86 419.5zM279 516q0 -214 38 -302.5t132 -88.5q92 0 132 90.5t40 302.5q0 215 -37 300t-131 85t-134 -88.5t-40 -298.5zM379 1169l119 277h225l-201 -277h-143z " />
<glyph unicode="&#xf4;" horiz-adv-x="897" d="M68 520q0 277 94 406t295 129q199 0 286.5 -126t87.5 -413q0 -289 -92 -416t-303 -127q-196 0 -282 127.5t-86 419.5zM182 1174l176 274h205l172 -274h-172l-104 165l-105 -165h-172zM279 516q0 -214 38 -302.5t132 -88.5q92 0 132 90.5t40 302.5q0 215 -37 300t-131 85 t-134 -88.5t-40 -298.5z" />
<glyph unicode="&#xf5;" horiz-adv-x="897" d="M68 520q0 277 94 406t295 129q199 0 286.5 -126t87.5 -413q0 -289 -92 -416t-303 -127q-196 0 -282 127.5t-86 419.5zM170 1208q14 109 59 166.5t117 57.5q32 0 54.5 -7t99.5 -41q40 -16 59 -16q45 0 57 74h113q-6 -100 -52.5 -161.5t-115.5 -61.5q-28 0 -48.5 6.5 t-98.5 40.5q-46 18 -66 18q-23 0 -41 -21t-24 -55h-113zM279 516q0 -214 38 -302.5t132 -88.5q92 0 132 90.5t40 302.5q0 215 -37 300t-131 85t-134 -88.5t-40 -298.5z" />
<glyph unicode="&#xf6;" horiz-adv-x="897" d="M68 520q0 277 94 406t295 129q199 0 286.5 -126t87.5 -413q0 -289 -92 -416t-303 -127q-196 0 -282 127.5t-86 419.5zM203 1223v209h182v-209h-182zM279 516q0 -214 38 -302.5t132 -88.5q92 0 132 90.5t40 302.5q0 215 -37 300t-131 85t-134 -88.5t-40 -298.5zM514 1223 v209h182v-209h-182z" />
<glyph unicode="&#xf7;" d="M68 596v149h806v-149h-806zM360 352q0 44 32.5 76.5t78.5 32.5q44 0 76.5 -32.5t32.5 -76.5q0 -46 -32 -78t-77 -32q-46 0 -78.5 32t-32.5 78zM360 991q0 44 32.5 76.5t78.5 32.5q44 0 76.5 -32.5t32.5 -76.5q0 -45 -32 -77.5t-77 -32.5q-46 0 -78.5 32t-32.5 78z" />
<glyph unicode="&#xf8;" horiz-adv-x="901" d="M66 508q0 155 23.5 255t74.5 165q104 125 285 125q115 0 176 -35l5 14q5 13 11 27l39 82l98 -47l-45 -99q-3 -3 -6 -12l-10 -16l-4 -9q121 -89 121 -438q0 -285 -91.5 -416t-289.5 -131q-58 0 -109.5 10t-73.5 25l-2 -6l-8 -16l-6 -13l-43 -90l-96 45l47 101 q5 10 10 19.5t8 15t4 6.5q-23 14 -61 86q-57 117 -57 352zM268 543q0 -185 25 -287q7 24 37 98l200 467q14 28 17 33l4 10q0 2 6 8q-39 29 -100 29q-101 0 -145 -83t-44 -275zM342 162q40 -37 104 -37q98 0 141.5 86t43.5 281q0 187 -23 284q-12 -34 -33 -78l-204 -483 q-20 -41 -29 -53z" />
<glyph unicode="&#xf9;" horiz-adv-x="911" d="M92 297v29v702h207v-688q0 -110 29.5 -154.5t101.5 -44.5q52 0 95 26.5t65 72.5q11 24 13.5 42.5t2.5 77.5v668h207v-1028h-195v33q0 28 5 92q-59 -82 -121 -117t-148 -35q-262 0 -262 324zM225 1446h226l118 -277h-145z" />
<glyph unicode="&#xfa;" horiz-adv-x="911" d="M92 297v29v702h207v-688q0 -110 29.5 -154.5t101.5 -44.5q52 0 95 26.5t65 72.5q11 24 13.5 42.5t2.5 77.5v668h207v-1028h-195v33q0 28 5 92q-59 -82 -121 -117t-148 -35q-262 0 -262 324zM373 1169l119 277h225l-201 -277h-143z" />
<glyph unicode="&#xfb;" horiz-adv-x="911" d="M92 297v29v702h207v-688q0 -110 29.5 -154.5t101.5 -44.5q52 0 95 26.5t65 72.5q11 24 13.5 42.5t2.5 77.5v668h207v-1028h-195v33q0 28 5 92q-59 -82 -121 -117t-148 -35q-262 0 -262 324zM182 1174l176 274h205l172 -274h-172l-104 165l-105 -165h-172z" />
<glyph unicode="&#xfc;" horiz-adv-x="911" d="M92 297v29v702h207v-688q0 -110 29.5 -154.5t101.5 -44.5q52 0 95 26.5t65 72.5q11 24 13.5 42.5t2.5 77.5v668h207v-1028h-195v33q0 28 5 92q-59 -82 -121 -117t-148 -35q-262 0 -262 324zM205 1223v209h182v-209h-182zM518 1223v209h182v-209h-182z" />
<glyph unicode="&#xfd;" horiz-adv-x="784" d="M2 1028h221l139 -577q32 -153 41 -252h7q13 157 36 256l121 573h215l-252 -962q-51 -182 -79 -252q-35 -86 -99.5 -123t-177.5 -37q-10 0 -108 4v160q45 -2 73 -2q71 0 106 37.5t54 132.5zM309 1169l119 277h225l-200 -277h-144z" />
<glyph unicode="&#xfe;" horiz-adv-x="915" d="M98 -342v1708h207v-385q0 -29 -6 -84q62 158 236 158q172 0 251 -148q64 -122 64 -372q0 -284 -72 -408q-87 -154 -256 -154q-153 0 -221 140q4 -29 4 -127v-328h-207zM297 532q0 -219 35 -299q42 -96 135 -96q92 0 132 89.5t40 293.5t-37.5 288.5t-126.5 84.5 q-106 0 -151 -115q-27 -76 -27 -246z" />
<glyph unicode="&#xff;" horiz-adv-x="784" d="M2 1028h221l139 -577q32 -153 41 -252h7q13 157 36 256l121 573h215l-252 -962q-51 -182 -79 -252q-35 -86 -99.5 -123t-177.5 -37q-10 0 -108 4v160q45 -2 73 -2q71 0 106 37.5t54 132.5zM145 1223v209h183v-209h-183zM459 1223v209h182v-209h-182z" />
<glyph unicode="&#x152;" horiz-adv-x="1507" d="M74 705q0 317 80 481q50 101 139 155t207 54q93 0 162.5 -33.5t101.5 -93.5q-4 35 -4 98h678v-182h-486v-385h455v-178h-455v-439h502v-182h-694q0 77 6 106q-75 -133 -270 -133q-138 0 -232 69.5t-137 203.5q-53 165 -53 459zM297 707q0 -297 39 -418q25 -74 76.5 -114 t124.5 -40q169 0 196 189q12 89 12 344v108q0 240 -20 316q-19 72 -64.5 106.5t-121.5 34.5q-134 0 -188 -117.5t-54 -408.5z" />
<glyph unicode="&#x153;" horiz-adv-x="1396" d="M68 508q0 154 22.5 253t71.5 165q97 129 287 129q102 0 169 -39t105 -121q75 160 270 160q126 0 207 -67.5t107 -196.5q24 -107 24 -304h-518q0 -189 39.5 -278.5t122.5 -89.5q68 0 108.5 59t44.5 166h193q-9 -180 -98.5 -275.5t-247.5 -95.5q-195 0 -264 164 q-74 -164 -285 -164q-184 0 -271 130t-87 405zM279 516q0 -209 39.5 -300t130.5 -91q89 0 129 93t40 302q0 214 -36.5 298.5t-128.5 84.5q-94 0 -134 -90t-40 -297zM815 625h309q-3 154 -36.5 219t-110.5 65q-78 0 -120.5 -74t-41.5 -210z" />
<glyph unicode="&#x178;" horiz-adv-x="933" d="M0 1366h242l170 -430q13 -37 33 -106t24 -95h4q13 59 59 203l173 428h231l-361 -829v-537h-217v537zM199 1516v221h198v-221h-198zM539 1516v221h198v-221h-198z" />
<glyph unicode="&#x2c6;" horiz-adv-x="1024" d="M236 1174l176 274h204l172 -274h-172l-104 165l-104 -165h-172z" />
<glyph unicode="&#x2dc;" horiz-adv-x="1024" d="M231 1208q13 109 59 166.5t118 57.5q32 0 54 -7t99 -41q40 -16 60 -16q45 0 57 74h113q-6 -100 -52.5 -161.5t-115.5 -61.5q-28 0 -49 6.5t-99 40.5q-46 18 -65 18q-23 0 -41.5 -21t-24.5 -55h-113z" />
<glyph unicode="&#x2000;" horiz-adv-x="926" />
<glyph unicode="&#x2001;" horiz-adv-x="1853" />
<glyph unicode="&#x2002;" horiz-adv-x="926" />
<glyph unicode="&#x2003;" horiz-adv-x="1853" />
<glyph unicode="&#x2004;" horiz-adv-x="617" />
<glyph unicode="&#x2005;" horiz-adv-x="463" />
<glyph unicode="&#x2006;" horiz-adv-x="308" />
<glyph unicode="&#x2007;" horiz-adv-x="308" />
<glyph unicode="&#x2008;" horiz-adv-x="231" />
<glyph unicode="&#x2009;" horiz-adv-x="370" />
<glyph unicode="&#x200a;" horiz-adv-x="102" />
<glyph unicode="&#x2010;" horiz-adv-x="409" d="M0 455v186h410v-186h-410z" />
<glyph unicode="&#x2011;" horiz-adv-x="409" d="M0 455v186h410v-186h-410z" />
<glyph unicode="&#x2012;" horiz-adv-x="409" d="M0 455v186h410v-186h-410z" />
<glyph unicode="&#x2013;" d="M96 438v176h752v-176h-752z" />
<glyph unicode="&#x2014;" horiz-adv-x="1198" d="M0 438v176h1198v-176h-1198z" />
<glyph unicode="&#x2018;" horiz-adv-x="425" d="M104 850v160q0 114 10 172t36 104q25 45 64.5 70t104.5 37v-109q-56 -20 -75 -58t-19 -128h94v-248h-215z" />
<glyph unicode="&#x2019;" horiz-adv-x="425" d="M104 823v109q56 19 75.5 57t19.5 129h-95v248h215v-160q0 -115 -9.5 -172.5t-35.5 -103.5q-47 -85 -170 -107z" />
<glyph unicode="&#x201a;" horiz-adv-x="425" d="M104 0v248h215v-160q0 -115 -9.5 -172.5t-35.5 -103.5q-47 -85 -170 -107v109q56 19 75.5 57t19.5 129h-95z" />
<glyph unicode="&#x201c;" horiz-adv-x="763" d="M104 850v160q0 114 10 172t36 104q25 45 64.5 70t104.5 37v-109q-56 -20 -75 -58t-19 -128h94v-248h-215zM444 850v160q0 115 9.5 172.5t35.5 103.5q47 85 170 107v-109q-56 -20 -75 -58t-19 -128h94v-248h-215z" />
<glyph unicode="&#x201d;" horiz-adv-x="763" d="M104 823v109q56 19 75.5 57t19.5 129h-95v248h215v-160q0 -115 -9.5 -172.5t-35.5 -103.5q-47 -85 -170 -107zM444 823v109q56 19 75.5 57t19.5 129h-95v248h215v-160q0 -115 -9.5 -172.5t-35.5 -103.5q-47 -85 -170 -107z" />
<glyph unicode="&#x201e;" horiz-adv-x="763" d="M104 0v248h215v-160q0 -115 -9.5 -172.5t-35.5 -103.5q-47 -85 -170 -107v109q56 19 75.5 57t19.5 129h-95zM444 0v248h215v-160q0 -115 -9.5 -172.5t-35.5 -103.5q-47 -85 -170 -107v109q56 19 75.5 57t19.5 129h-95z" />
<glyph unicode="&#x2022;" horiz-adv-x="1366" d="M401 692q0 120 83.5 202.5t205.5 82.5q114 0 196.5 -83.5t82.5 -199.5q0 -118 -83 -201t-200 -83t-201 82.5t-84 199.5z" />
<glyph unicode="&#x2026;" horiz-adv-x="1277" d="M104 0v248h215v-248h-215zM530 0v248h215v-248h-215zM956 0v248h215v-248h-215z" />
<glyph unicode="&#x202f;" horiz-adv-x="370" />
<glyph unicode="&#x2039;" horiz-adv-x="423" d="M66 416v221l274 254v-205l-111 -106q-13 -10 -34 -27.5t-29 -24.5q43 -31 57 -45l117 -114v-205z" />
<glyph unicode="&#x203a;" horiz-adv-x="423" d="M86 164v205l113 106q9 7 22.5 19t23 19t15.5 11l-10 8q-10 7 -33 25l-14 12l-117 117v205l274 -252v-223z" />
<glyph unicode="&#x205f;" horiz-adv-x="463" />
<glyph unicode="&#x20ac;" d="M8 518l31 111h67v41v73h-98l31 111h72q14 229 77 352q99 187 332 187q188 0 279.5 -90.5t91.5 -274.5h-193q0 201 -170 201q-97 0 -139.5 -81.5t-54.5 -293.5h346l-31 -111h-319v-61v-53h295l-31 -111h-262q9 -207 53 -295t139 -88q151 0 154 242h194q-6 -119 -26 -183.5 t-66 -119.5q-88 -101 -270 -101q-197 0 -293.5 132t-105.5 413h-103z" />
<glyph unicode="&#x2122;" horiz-adv-x="1454" d="M20 1249v117h535v-117h-195v-661h-143v661h-197zM627 588v778h211l73 -272q41 -146 70 -306q24 147 51 238l88 340h211v-778h-135v481q2 29 10 150q-3 -8 -5 -17.5t-6.5 -29.5t-10.5 -42q-2 -6 -27 -98q-10 -30 -10 -37l-109 -407h-118l-111 407l-6 27l-29 106 q-4 17 -18 91q5 -124 6 -179v-452h-135z" />
<glyph unicode="&#x25fc;" horiz-adv-x="1024" d="M0 0v1024h1024v-1024h-1024z" />
</font>
</defs>
</svg>
